<svg xmlns="http://www.w3.org/2000/svg" width="40" height="40" fill="none"><path fill="#fff" fill-rule="evenodd" d="M17.4 20.228 6 8.828 8.828 6l11.4 11.4L31.628 6l2.828 2.828-11.4 11.4 11.228 11.228-2.828 2.828-11.228-11.228L9 34.284l-2.828-2.828L17.4 20.228Z" clip-rule="evenodd"/><path fill="#fff" fill-rule="evenodd" d="M17.4 20.228 6 8.828 8.828 6l11.4 11.4L31.628 6l2.828 2.828-11.4 11.4 11.228 11.228-2.828 2.828-11.228-11.228L9 34.284l-2.828-2.828L17.4 20.228Z" clip-rule="evenodd"/><path fill="#fff" fill-rule="evenodd" d="M17.4 20.228 6 8.828 8.828 6l11.4 11.4L31.628 6l2.828 2.828-11.4 11.4 11.228 11.228-2.828 2.828-11.228-11.228L9 34.284l-2.828-2.828L17.4 20.228Z" clip-rule="evenodd"/><path fill="#fff" fill-rule="evenodd" d="M17.4 20.228 6 8.828 8.828 6l11.4 11.4L31.628 6l2.828 2.828-11.4 11.4 11.228 11.228-2.828 2.828-11.228-11.228L9 34.284l-2.828-2.828L17.4 20.228Z" clip-rule="evenodd"/></svg>