<svg aria-hidden="true" style="width:0;height:0;position:absolute;overflow:hidden" xmlns="http://www.w3.org/2000/svg"><defs><symbol id="icon-arrow-l" viewBox="0 0 32 32"><path fill="#fbed1f" style="fill:var(--color1,#fbed1f)" d="M13.784 16 25.729 4.054 21.794.119l-15.88 15.88 15.88 15.88 3.935-3.935-11.945-11.946z"/></symbol><symbol id="icon-arrow" viewBox="0 0 32 32"><path fill="#fbed1f" style="fill:var(--color1,#fbed1f)" d="M18.216 16 6.271 4.054 10.206.119l15.88 15.88-15.88 15.88-3.935-3.935 11.945-11.946z"/></symbol><symbol id="icon-burger" viewBox="0 0 32 32"><path fill="#fff" style="fill:var(--color2,#fff)" d="M4 9.617h24v3.2H4zm0 6.4h24v3.2H4zm0 6.4h24v3.2H4z"/></symbol><symbol id="icon-consultation" viewBox="0 0 32 32"><path fill="#fbed1f" style="fill:var(--color1,#fbed1f)" d="M15.373.157c8.403 0 15.216 6.812 15.216 15.216s-6.812 15.216-15.216 15.216C6.97 30.589.157 23.777.157 15.373S6.969.157 15.373.157z"/><path fill="#3da9f4" style="fill:var(--color3,#3da9f4)" d="M13.02 12.392c-.173 0-.314-.094-.314-.209v-1.464c0-.116.141-.209.314-.209s.314.094.314.209v1.464c0 .116-.141.209-.314.209zm5.019 0c-.173 0-.314-.094-.314-.209v-1.464c0-.116.141-.209.314-.209s.314.094.314.209v1.464c0 .116-.141.209-.314.209z"/><path fill="#3da9f4" style="fill:var(--color3,#3da9f4)" opacity=".5" d="M16.311 19.179h-5.116c-.126 0-.228-.096-.228-.215v-4.937c0-.119.102-.215.228-.215h8.67c.126 0 .228.096.228.215v2.53c.167.103.32.224.456.361V11.88c0-.237-.204-.429-.456-.429h-1.369v.859c0 .355-.306.644-.685.644s-.685-.288-.685-.644v-.858h-3.651v.859c0 .355-.306.644-.685.644s-.685-.288-.685-.644v-.859h-1.369c-.252 0-.456.192-.456.429v7.299c0 .237.204.429.456.429h5.524a2.182 2.182 0 0 1-.175-.413l-.004-.016z"/><path fill="#3da9f4" style="fill:var(--color3,#3da9f4)" d="M18.824 20.549a2.04 2.04 0 0 1-2.039-2.039 2.04 2.04 0 1 1 2.039 2.039zm1.293-2.559a.227.227 0 0 0-.321-.321l-1.426 1.426-.52-.52a.227.227 0 0 0-.322.32l.68.68a.226.226 0 0 0 .32 0l1.586-1.586z"/></symbol><symbol id="icon-cross" viewBox="0 0 32 32"><path fill="#fff" style="fill:var(--color2,#fff)" d="M13.92 16.182 4.8 7.062 7.062 4.8l9.12 9.12 9.12-9.12 2.262 2.262-9.12 9.12 8.982 8.982-2.262 2.262-8.982-8.982L7.2 27.426l-2.262-2.262 8.982-8.982z"/></symbol><symbol id="icon-dvigun" viewBox="0 0 32 32"><path fill="#fbed1f" style="fill:var(--color1,#fbed1f)" d="M0 13.333h18.667V32H0z"/><path fill="#cad1d8" style="fill:var(--color4,#cad1d8)" d="M2.5 13.5zM5.331 17zM17.5 8.5zm-5.007 2.832z"/><path fill="none" stroke="#576d7e" style="stroke:var(--color5,#576d7e)" stroke-linejoin="round" stroke-linecap="round" stroke-width=".667" d="M2.5 13.5v7M5.331 17H2.67M17.5 8.5h-10m4.993 2.832V8.67"/><path fill="#34485c" style="fill:var(--color6,#34485c)" d="M5 19v-6h2v-2h10v2h4l2 3.5h3V13h3v10h-3v-3.5h-3V24H9l-1-2H5v-3z"/><path fill="#576d7e" style="fill:var(--color5,#576d7e)" d="m10.432 22 .535 2H12l-.535-2h-1.033zm2 0 .535 2H14l-.535-2h-1.033zm2 0 .535 2H16l-.535-2h-1.033zm2 0 .535 2H18l-.535-2h-1.033zm2 0 .535 2H20l-.535-2h-1.033zm2 0 .535 2H22l-.535-2h-1.033z"/><path fill="#2b4255" style="fill:var(--color7,#2b4255)" d="M7 13v-2h10v2H7z"/></symbol><symbol id="icon-facebook-circle" viewBox="0 0 32 32"><path fill="#fff" style="fill:var(--color2,#fff)" d="M16 2.67h-.021c-7.363 0-13.332 5.969-13.332 13.332 0 6.636 4.849 12.14 11.196 13.162l.076.01v-9.318h-3.39v-3.854h3.386v-2.938c0-3.344 1.992-5.188 5.036-5.188 1.458 0 2.986.26 2.986.26v3.28h-1.686c-1.652 0-2.17 1.028-2.17 2.082V16h3.694l-.59 3.856h-3.102v9.316c6.412-1.043 11.247-6.541 11.247-13.168 0-7.362-5.967-13.33-13.329-13.332z"/></symbol><symbol id="icon-getting" viewBox="0 0 32 32"><path fill="#fbed1f" style="fill:var(--color1,#fbed1f)" d="M15.373.157c8.403 0 15.216 6.812 15.216 15.216s-6.812 15.216-15.216 15.216C6.97 30.589.157 23.777.157 15.373S6.969.157 15.373.157z"/><path fill="#3da9f4" style="fill:var(--color3,#3da9f4)" d="m11.649 20.185-3.335-3.401.941-.941 2.51 1.569 7.216-7.529.941.627-7.325 9.617a.627.627 0 0 1-.947.059z"/><path fill="#3da9f4" style="fill:var(--color3,#3da9f4)" opacity=".497" d="M22.431 12.706h-1.569a.314.314 0 1 1 0-.628h1.569a.314.314 0 1 1 0 .628zm0 2.823h-3.765a.314.314 0 1 1 0-.628h3.765a.314.314 0 1 1 0 .628zm0 2.824H16.47a.314.314 0 1 1 0-.628h5.961a.314.314 0 1 1 0 .628zm0 2.823h-8.157a.314.314 0 1 1 0-.628h8.157a.314.314 0 1 1 0 .628z"/></symbol><symbol id="icon-instagram-alt" viewBox="0 0 32 32"><path fill="#fff" style="fill:var(--color2,#fff)" d="M27.93 11.074a8.697 8.697 0 0 0-.58-3.016l.02.06a6.18 6.18 0 0 0-3.468-3.495l-.042-.015a8.626 8.626 0 0 0-2.905-.56h-.009c-1.286-.058-1.69-.074-4.946-.074s-3.674 0-4.946.074c-.996.02-1.98.21-2.914.56a6.175 6.175 0 0 0-3.495 3.468l-.014.042a8.578 8.578 0 0 0-.56 2.905v.009c-.056 1.284-.074 1.69-.074 4.946s0 3.672.074 4.948c.02.996.208 1.98.56 2.916a6.146 6.146 0 0 0 3.512 3.508c.86.347 1.856.564 2.897.6h.015c1.284.058 1.692.076 4.948.076s3.672 0 4.946-.076a8.802 8.802 0 0 0 2.914-.558 6.193 6.193 0 0 0 3.497-3.468l.015-.042a8.613 8.613 0 0 0 .558-2.907v-.009c.058-1.284.074-1.69.074-4.948-.002-3.256-.002-3.668-.076-4.944zM15.992 22.136h-.001A6.163 6.163 0 0 1 15.99 9.81h.001a6.163 6.163 0 0 1 .001 12.326zm6.41-11.12-.056.001a1.436 1.436 0 1 1 .054-2.871h-.003.002a1.436 1.436 0 0 1 .002 2.872z"/><path fill="#fff" style="fill:var(--color2,#fff)" d="M15.992 19.976a4.004 4.004 0 0 0 0-8.008 4.004 4.004 0 0 0 0 8.008z"/></symbol><symbol id="icon-lightning_solid" viewBox="0 0 32 32"><path fill="#3da9f4" style="fill:var(--color3,#3da9f4)" d="M0 0h32v32H0z"/><path fill="#fbed1f" style="fill:var(--color1,#fbed1f)" d="M17.457 1.693c.377-.528 1.209-.261 1.209.387v11.253h6.705a.667.667 0 0 1 .541 1.056l.001-.002-11.371 15.92c-.377.527-1.209.261-1.209-.387V18.667H6.628a.667.667 0 0 1-.542-1.056l-.001.002 11.371-15.92z"/></symbol><symbol id="icon-mail-solid-by" viewBox="0 0 32 32"><path fill="#3da9f4" style="fill:var(--color3,#3da9f4)" d="M0 0h32v32H0z"/><path fill="#fbed1f" style="fill:var(--color1,#fbed1f)" d="M15.2 17.206 8 13.049V20.8a1.6 1.6 0 0 0 1.6 1.6h12.8a1.6 1.6 0 0 0 1.6-1.6v-7.752l-7.2 4.158a1.604 1.604 0 0 1-1.608-.004l.008.004z"/><path fill="#fbed1f" style="fill:var(--color1,#fbed1f)" d="M16 15.82 8 11.2a1.6 1.6 0 0 1 1.6-1.6h12.8a1.6 1.6 0 0 1 1.6 1.6v.002l-8 4.618z"/></symbol><symbol id="icon-mood-happy-solid" viewBox="0 0 32 32"><path fill="#3da9f4" style="fill:var(--color3,#3da9f4)" d="M.436.581h31.347v31.347H.436z"/><path fill="#fbed1f" style="fill:var(--color1,#fbed1f)" d="M29.17 16.254c0 7.214-5.848 13.061-13.061 13.061S3.048 23.467 3.048 16.254c0-7.214 5.848-13.061 13.061-13.061S29.17 9.041 29.17 16.254zm-15.02-2.612a1.959 1.959 0 1 1-3.918 0 1.959 1.959 0 1 1 3.918 0zm5.877 1.959a1.959 1.959 0 1 0 0-3.918 1.959 1.959 0 1 0 0 3.918zm-8.806 3.918c.6-.401 1.402-.221 1.955.242a4.526 4.526 0 0 0 2.925 1.064h.015c1.117 0 2.14-.402 2.932-1.07l-.007.006c.553-.463 1.356-.643 1.955-.242s.767 1.223.265 1.74a7.145 7.145 0 0 1-5.144 2.178H16.1a7.141 7.141 0 0 1-5.142-2.176l-.002-.002c-.503-.517-.335-1.339.264-1.74z"/></symbol><symbol id="icon-phone-solid-b" viewBox="0 0 32 32"><path d="M6.41 2.666a3.784 3.784 0 0 0-2.862 1.323l-.004.005a3.486 3.486 0 0 0-.872 2.493v-.008A24.299 24.299 0 0 0 9.779 22.22l.001.001a24.253 24.253 0 0 0 15.669 7.104l.071.004c.91.056 1.794-.28 2.486-.872a3.795 3.795 0 0 0 1.328-2.866v-2.684c0-1.224-.832-2.29-2.02-2.588l-4.136-1.036a2.66 2.66 0 0 0-2.053.32l.011-.007-3.076 1.886a1.25 1.25 0 0 1-.676.196c-.291 0-.559-.098-.773-.264l.003.002a40.437 40.437 0 0 1-3.193-2.843l.003.003c-.836-.836-2-2.12-2.84-3.19a1.266 1.266 0 0 1-.063-1.451l-.003.005 1.886-3.076c.374-.61.488-1.346.314-2.04l-1.036-4.14a2.672 2.672 0 0 0-2.586-2.018H6.41z"/></symbol><symbol id="icon-phone-solid-by" viewBox="0 0 32 32"><path fill="#3da9f4" style="fill:var(--color3,#3da9f4)" d="M0 0h32v32H0z"/><path fill="#fbed1f" style="fill:var(--color1,#fbed1f)" d="M10.246 8a2.273 2.273 0 0 0-1.717.793l-.003.003c-.355.416-.557.946-.522 1.491a14.573 14.573 0 0 0 4.264 9.444 14.551 14.551 0 0 0 9.402 4.262l.042.002a2.105 2.105 0 0 0 1.491-.522 2.273 2.273 0 0 0 .796-1.719v-1.611c0-.746-.51-1.372-1.2-1.55l-.011-.002-2.482-.622a1.594 1.594 0 0 0-1.232.192l.007-.004-1.846 1.132a.756.756 0 0 1-.869-.041l.002.001a23.973 23.973 0 0 1-1.915-1.706l.002.002a24.088 24.088 0 0 1-1.704-1.914.755.755 0 0 1-.038-.87l-.002.003 1.132-1.846a1.585 1.585 0 0 0 .186-1.236l.002.011-.622-2.482a1.603 1.603 0 0 0-1.552-1.212h-1.611z"/></symbol><symbol id="icon-phone-solid-w" viewBox="0 0 32 32"><path fill="#fff" style="fill:var(--color2,#fff)" d="M6.41 2.666a3.784 3.784 0 0 0-2.862 1.323l-.004.005a3.486 3.486 0 0 0-.872 2.493v-.008A24.299 24.299 0 0 0 9.779 22.22l.001.001a24.253 24.253 0 0 0 15.669 7.104l.071.004c.91.056 1.794-.28 2.486-.872a3.795 3.795 0 0 0 1.328-2.866v-2.684c0-1.224-.832-2.29-2.02-2.588l-4.136-1.036a2.66 2.66 0 0 0-2.053.32l.011-.007-3.076 1.886a1.25 1.25 0 0 1-.676.196c-.291 0-.559-.098-.773-.264l.003.002a40.437 40.437 0 0 1-3.193-2.843l.003.003c-.836-.836-2-2.12-2.84-3.19a1.266 1.266 0 0 1-.063-1.451l-.003.005 1.886-3.076c.374-.61.488-1.346.314-2.04l-1.036-4.14a2.672 2.672 0 0 0-2.586-2.018H6.41z"/></symbol><symbol id="icon-quote" viewBox="0 0 32 32"><path fill="#fbed1f" style="fill:var(--color1,#fbed1f)" d="M26.814 28.69c1.645 0 2.979-1.373 2.979-3.065v-7.484c0-1.693-1.334-3.064-2.979-3.064h-4.135c0-1.078.062-2.155.185-3.232.184-1.141.492-2.154.924-3.041.43-.887.985-1.585 1.663-2.091.678-.57 1.539-.855 2.586-.855V1.104c-1.725 0-3.233.381-4.526 1.141A10.089 10.089 0 0 0 20.3 5.251l-.022.035c-.801 1.267-1.417 2.756-1.848 4.467-.37 1.647-.554 3.421-.554 5.323v10.549c0 1.693 1.334 3.065 2.979 3.065h5.959zm-17.876 0c1.645 0 2.979-1.373 2.979-3.065v-7.484c0-1.693-1.334-3.064-2.979-3.064H4.803c0-1.078.062-2.155.185-3.232.184-1.141.492-2.154.924-3.041.43-.887.985-1.585 1.663-2.091.678-.57 1.539-.855 2.586-.855V1.104c-1.724 0-3.232.381-4.526 1.141a10.089 10.089 0 0 0-3.211 3.006l-.022.035C1.6 6.553.985 8.042.554 9.753.184 11.4 0 13.174 0 15.076v10.549c0 1.693 1.334 3.065 2.979 3.065h5.959z"/></symbol><symbol id="icon-repair" viewBox="0 0 32 32"><path fill="#fbed1f" style="fill:var(--color1,#fbed1f)" d="M15.366 0c8.487 0 15.366 6.88 15.366 15.366s-6.88 15.366-15.366 15.366C6.879 30.732 0 23.852 0 15.366S6.88 0 15.366 0z"/><path fill="#3da9f4" style="fill:var(--color3,#3da9f4)" opacity=".5" d="M16.515 15.755a5.88 5.88 0 0 0-3.251-.003c-.543.151-.908.609-.908 1.141v.296c0 .131.113.238.253.238h4.562c.14 0 .253-.106.253-.238v-.292c0-.531-.366-.99-.911-1.141zm-1.465-.864c.803 0 1.426-.917 1.426-1.706 0-.806-.639-1.462-1.426-1.462s-1.426.656-1.426 1.462c0 .789.623 1.706 1.426 1.706z"/><path fill="#3da9f4" style="fill:var(--color3,#3da9f4)" d="M19.395 18.693a5.802 5.802 0 0 1-.701.701l1.834 1.834.701-.701-1.833-1.833z"/><path fill="#3da9f4" style="fill:var(--color3,#3da9f4)" d="M15.05 9.822c2.883 0 5.228 2.345 5.228 5.228s-2.345 5.228-5.228 5.228c-2.883 0-5.228-2.345-5.228-5.228s2.345-5.228 5.228-5.228zm-4.73 5.228c0 2.608 2.122 4.73 4.73 4.73s4.73-2.122 4.73-4.73-2.122-4.73-4.73-4.73-4.73 2.122-4.73 4.73z"/></symbol><symbol id="icon-shina" viewBox="0 0 32 32"><path fill="#fbed1f" style="fill:var(--color1,#fbed1f)" d="M0 13.333h18.667V32H0z"/><path fill="#666" style="fill:var(--color8,#666)" d="M14.52 26c-3.31 0-5.993-4.254-5.993-9.5S11.21 7 14.52 7z"/><path fill="#2b4255" style="fill:var(--color7,#2b4255)" d="M11.994 26C8.684 26 6 21.745 6 16.5 6 11.252 8.684 7 11.994 7h7c-1.46.39-3.355 1.063-4.596 2.782-1.24 1.719-2.298 4.094-2.298 6.717 0 2.624 1.057 4.999 2.298 6.718 1.24 1.719 2.51 2.224 4.596 2.782l-7 .001z"/><path fill="#34485c" style="fill:var(--color6,#34485c)" d="M18.994 6.998c-3.862 0-6.994 4.253-6.994 9.5s3.132 9.5 6.994 9.5h.012c3.863 0 6.994-4.253 6.994-9.5s-3.131-9.5-6.994-9.5h-.012zm.002 5h.006c1.656 0 2.998 2.015 2.998 4.5s-1.342 4.5-2.998 4.5h-.006c-1.655 0-2.996-2.015-2.996-4.5s1.341-4.5 2.996-4.5z"/><path fill="none" stroke="#2b4255" style="stroke:var(--color7,#2b4255)" stroke-linejoin="round" stroke-linecap="round" stroke-width=".667" d="M18.993 9h-.008C16.232 9 14 12.131 14 15.993"/><path fill="#34485c" style="fill:var(--color6,#34485c)" d="M12.472 6.998c-.768.547-1.453 1.293-2.02 2.192-1.204 1.907-1.926 4.493-1.926 7.341s.722 5.435 1.925 7.342c.546.865 1.203 1.585 1.936 2.125h2.502c-1.358-.173-2.618-1.116-3.592-2.66-1.081-1.713-1.771-4.13-1.771-6.807s.69-5.095 1.771-6.808c1.081-1.714 2.512-2.696 4.041-2.696h.003a.51.51 0 0 0 .172-.03l-.003.001h-3.037z"/></symbol><symbol id="icon-team" viewBox="0 0 32 32"><path fill="#3da9f4" style="fill:var(--color3,#3da9f4)" d="M.435.327h31.347v31.347H.435V.327z"/><path fill="#3da9f4" style="fill:var(--color3,#3da9f4)" d="M3.048 2.939H29.17v26.122H3.048V2.939z"/><path fill="#fbed1f" style="fill:var(--color1,#fbed1f)" d="M14.748 10.286a4.082 4.082 0 1 1-8.164 0 4.082 4.082 0 0 1 8.164 0zM21.551 14.367a4.082 4.082 0 1 0 0-8.164 4.082 4.082 0 0 0 0 8.164zM19.88 24.707c.37-.64.582-1.384.582-2.177v-1.995c0-.91-.284-1.912-.999-2.726a11.69 11.69 0 0 0-1.235-1.213 9.504 9.504 0 0 1 3.322-.595 9.503 9.503 0 0 1 7.161 3.245c.311.354.458.819.458 1.291v1.995a2.177 2.177 0 0 1-2.177 2.177h-7.113zM18.242 22.969a2.178 2.178 0 0 1-2.133 1.738H5.225a2.177 2.177 0 0 1-2.177-2.177v-1.995c0-.472.147-.936.458-1.291a9.503 9.503 0 0 1 7.161-3.245c2.023 0 3.9.631 5.442 1.707a9.598 9.598 0 0 1 1.719 1.538c.311.354.458.819.458 1.291v1.995c0 .15-.015.297-.044.439z"/></symbol><symbol id="icon-telegram" viewBox="0 0 32 32"><path fill="#fff" style="fill:var(--color2,#fff)" d="M16 0c8.837 0 16 7.163 16 16s-7.163 16-16 16S0 24.837 0 16 7.163 0 16 0zm7.108 9.6c-.61.012-1.546.332-6.048 2.18a739.556 739.556 0 0 0-9.45 4.02c-.768.3-1.168.596-1.206.884-.07.552.736.724 1.752 1.05.826.266 1.94.576 2.52.59.524.01 1.11-.204 1.756-.64 4.416-2.944 6.692-4.432 6.836-4.464.1-.02.24-.05.336.032.096.084.086.24.074.284-.08.338-4.226 4.06-4.464 4.306l-.114.114c-.88.87-1.768 1.438-.236 2.434 1.386.9 2.192 1.476 3.616 2.4.912.59 1.628 1.288 2.568 1.204.434-.04.88-.442 1.108-1.642.536-2.832 1.592-8.972 1.836-11.504a2.787 2.787 0 0 0-.03-.644l.002.016a.67.67 0 0 0-.229-.431l-.001-.001a1.062 1.062 0 0 0-.607-.188h-.02.001z"/></symbol><symbol id="icon-thumb-up-solid" viewBox="0 0 32 32"><path fill="#3da9f4" style="fill:var(--color3,#3da9f4)" d="M0 0h32v32H0z"/><path fill="#fbed1f" style="fill:var(--color1,#fbed1f)" d="M18.253 1.333c-.591 0-1.109.309-1.403.773l-.004.007L10.667 12v16h14.352a2.665 2.665 0 0 0 2.378-1.459l.007-.015 2.7-5.4a5.257 5.257 0 0 0 .563-2.384v-5.408A2.667 2.667 0 0 0 28 10.667h-8.667l1.355-6.322a2.49 2.49 0 0 0-2.435-3.011zm-15.586 12C2.667 12.597 3.264 12 4 12h4v16H4a1.333 1.333 0 0 1-1.333-1.333V13.334z"/></symbol><symbol id="icon-watch_solid_by" viewBox="0 0 32 32"><path fill="#3da9f4" style="fill:var(--color3,#3da9f4)" d="M0 0h32v32H0z"/><path fill="#fbed1f" style="fill:var(--color1,#fbed1f)" d="M13.773 6.4a1.6 1.6 0 0 0-1.58 1.348l-.001.009-.366 2.376A7.113 7.113 0 0 1 15.989 8.8h.012H16h.011c1.562 0 3.007.499 4.184 1.347l-.021-.015-.366-2.376a1.602 1.602 0 0 0-1.581-1.357h-4.454zM19.464 20.4a5.586 5.586 0 0 0 2.136-4.395v-.01c0-1.778-.83-3.363-2.124-4.386l-.012-.009a5.539 5.539 0 0 0-3.456-1.2h-.017c-1.31 0-2.515.452-3.467 1.209l.011-.009a5.586 5.586 0 0 0-2.136 4.395v.01c0 1.778.83 3.363 2.124 4.386l.012.009c.94.748 2.145 1.2 3.456 1.2h.017c1.31 0 2.515-.452 3.467-1.209l-.011.009zM15.6 16.693a.8.8 0 0 1-.4-.693v-1.6a.8.8 0 1 1 1.6 0v1.138l1.246.719a.8.8 0 1 1-.803 1.383l.004.002-1.646-.95zM11.826 21.867a7.113 7.113 0 0 0 4.163 1.333h.012H16h.011a7.132 7.132 0 0 0 4.184-1.347l-.021.015-.366 2.376a1.602 1.602 0 0 1-1.581 1.357h-4.454a1.6 1.6 0 0 1-1.58-1.348l-.001-.009-.366-2.376z"/></symbol><symbol id="icon-youtube" viewBox="0 0 32 32"><path fill="#fff" style="fill:var(--color2,#fff)" d="M28.79 9.604a3.353 3.353 0 0 0-2.325-2.348l-.023-.006C24.354 6.676 16 6.666 16 6.666s-8.352-.008-10.44.54a3.427 3.427 0 0 0-2.35 2.346l-.006.024c-.55 2.088-.556 6.42-.556 6.42s-.006 4.35.54 6.418a3.353 3.353 0 0 0 2.329 2.346l.023.006c2.11.574 10.44.584 10.44.584s8.354.008 10.44-.54a3.37 3.37 0 0 0 2.352-2.324l.006-.024c.552-2.088.556-6.416.556-6.416s.026-4.354-.544-6.442zM13.328 20.006l.006-8 6.944 4.008-6.95 3.992z"/></symbol><symbol id="icon-autoelectrica" viewBox="0 0 32 32"><path fill="#fbed1f" style="fill:var(--color1,#fbed1f)" d="M0 13.333h18.667V32H0V13.333z"/><path fill="none" stroke="#34485c" style="stroke:var(--color6,#34485c)" stroke-linejoin="round" stroke-width=".667" d="M11.833 7.75H21v1.667h-9.167V7.75z"/><path fill="#576d7e" style="fill:var(--color5,#576d7e)" d="M27.998 9H4.836C4.098 9 3.5 9.616 3.5 10.375v15.583c0 .759.598 1.375 1.336 1.375h23.162c.738 0 1.336-.616 1.336-1.375V10.375c0-.759-.598-1.375-1.336-1.375z"/><path fill="#cad1d8" style="fill:var(--color4,#cad1d8)" d="M7.667 15.667a2.5 2.5 0 1 0 0-5 2.5 2.5 0 0 0 0 5z"/><path fill="#f05542" style="fill:var(--color9,#f05542)" d="M6.833 7.333H8.5V9H6.833V7.333z"/><path fill="#2b4255" style="fill:var(--color7,#2b4255)" d="M24.333 7.333H26V9h-1.667V7.333z"/><path fill="none" stroke="#f05542" style="stroke:var(--color9,#f05542)" stroke-linejoin="round" stroke-width=".667" d="M7.667 11.917v2.5m1.25-1.25h-2.5"/><path fill="#cad1d8" style="fill:var(--color4,#cad1d8)" d="M25.167 15.667a2.5 2.5 0 1 0 0-5 2.5 2.5 0 0 0 0 5z"/><path fill="none" stroke="#2b4255" style="stroke:var(--color7,#2b4255)" stroke-linejoin="round" stroke-width=".667" d="M26.417 13.167h-2.5"/><path fill="#fbed1f" style="fill:var(--color1,#fbed1f)" d="m14.323 14.417-1.396 5.75h2.792L14.323 24l5.583-5.75h-2.792l1.397-3.833h-4.188z"/></symbol><symbol id="icon-hodova" viewBox="0 0 32 32"><path fill="#fbed1f" style="fill:var(--color1,#fbed1f)" d="M0 13.333h18.667V32H0V13.333z"/><path fill="none" stroke="#576d7e" style="stroke:var(--color5,#576d7e)" stroke-width=".667" d="M10.5 6.5h11.074M10.5 26.5h4.89m1.141 0H21.5m-5.5-.625V6.5"/><path fill="#34485c" style="fill:var(--color6,#34485c)" d="M8 3h2c.554 0 1 .39 1 .875v5.25c0 .485-.446.875-1 .875H8c-.554 0-1-.39-1-.875v-5.25C7 3.39 7.446 3 8 3zm0 20h2c.554 0 1 .39 1 .875v5.25c0 .485-.446.875-1 .875H8c-.554 0-1-.39-1-.875v-5.25C7 23.39 7.446 23 8 23zM22.326 2.923l1.991.184c.552.051.96.48.916.963l-.483 5.228c-.044.483-.524.83-1.076.78l-1.992-.185c-.551-.05-.96-.48-.915-.963l.483-5.228c.044-.482.524-.83 1.076-.779zM22 23h2c.554 0 1 .39 1 .875v5.25c0 .485-.446.875-1 .875h-2c-.554 0-1-.39-1-.875v-5.25c0-.485.446-.875 1-.875zm-4.5 3.5A1.503 1.503 0 0 1 16 28a1.503 1.503 0 0 1-1.5-1.5A1.503 1.503 0 0 1 16 25a1.503 1.503 0 0 1 1.5 1.5z"/></symbol><symbol id="icon-people" viewBox="0 0 33 32"><path fill="#3da9f4" style="fill:var(--color3,#3da9f4)" d="M.445 0h32v32h-32V0z"/><path fill="#3da9f4" style="fill:var(--color3,#3da9f4)" d="M3.111 2.667h26.667v26.667H3.111V2.667z"/><path fill="#fbed1f" style="fill:var(--color1,#fbed1f)" d="M15.056 10.167a4.167 4.167 0 1 1-8.334 0 4.167 4.167 0 0 1 8.334 0zM22 14.333a4.167 4.167 0 1 0 0-8.334 4.167 4.167 0 0 0 0 8.334zM20.294 24.889a4.427 4.427 0 0 0 .595-2.222V20.63c0-.929-.29-1.952-1.02-2.783-.389-.443-.81-.857-1.26-1.239A9.7 9.7 0 0 1 22 16a9.7 9.7 0 0 1 7.31 3.312c.318.362.468.836.468 1.317v2.037a2.222 2.222 0 0 1-2.222 2.222h-7.261zM18.622 23.115a2.222 2.222 0 0 1-2.177 1.774H5.334a2.222 2.222 0 0 1-2.222-2.222V20.63c0-.482.15-.956.468-1.317a9.697 9.697 0 0 1 7.31-3.312c2.066 0 3.981.644 5.556 1.743a9.78 9.78 0 0 1 1.755 1.57c.318.362.468.836.468 1.317v2.037c0 .153-.016.303-.045.448z"/></symbol></defs></svg>