<svg aria-hidden="true" style="position: absolute; width: 0; height: 0; overflow: hidden;" version="1.1" xmlns="http://www.w3.org/2000/svg" xmlns:xlink="http://www.w3.org/1999/xlink">
<defs>
<symbol id="icon-arrow-l" viewBox="0 0 32 32">
<path fill="#fbed1f" style="fill: var(--color1, #fbed1f)" d="M13.784 16l11.945-11.946-3.935-3.935-15.88 15.88 15.88 15.88 3.935-3.935-11.945-11.946z"></path>
</symbol>
<symbol id="icon-arrow" viewBox="0 0 32 32">
<path fill="#fbed1f" style="fill: var(--color1, #fbed1f)" d="M18.216 16l-11.945-11.946 3.935-3.935 15.88 15.88-15.88 15.88-3.935-3.935 11.945-11.946z"></path>
</symbol>
<symbol id="icon-burger" viewBox="0 0 32 32">
<path fill="#fff" style="fill: var(--color2, #fff)" d="M4 9.617h24v3.2h-24zM4 16.017h24v3.2h-24zM4 22.417h24v3.2h-24z"></path>
</symbol>
<symbol id="icon-consultation" viewBox="0 0 32 32">
<path fill="#fbed1f" style="fill: var(--color1, #fbed1f)" d="M15.373 0.157c8.403 0 15.216 6.812 15.216 15.216s-6.812 15.216-15.216 15.216c-8.403 0-15.216-6.812-15.216-15.216s6.812-15.216 15.216-15.216z"></path>
<path fill="#3da9f4" style="fill: var(--color3, #3da9f4)" d="M13.020 12.392c-0.173 0-0.314-0.094-0.314-0.209v-1.464c0-0.116 0.141-0.209 0.314-0.209s0.314 0.094 0.314 0.209v1.464c0 0.116-0.141 0.209-0.314 0.209zM18.039 12.392c-0.173 0-0.314-0.094-0.314-0.209v-1.464c0-0.116 0.141-0.209 0.314-0.209s0.314 0.094 0.314 0.209v1.464c0 0.116-0.141 0.209-0.314 0.209z"></path>
<path fill="#3da9f4" style="fill: var(--color3, #3da9f4)" opacity="0.5" d="M16.311 19.179h-5.116c-0.126 0-0.228-0.096-0.228-0.215v-4.937c0-0.119 0.102-0.215 0.228-0.215h8.67c0.126 0 0.228 0.096 0.228 0.215v2.53c0.167 0.103 0.32 0.224 0.456 0.361v-5.038c0-0.237-0.204-0.429-0.456-0.429h-1.369v0.859c0 0.355-0.306 0.644-0.685 0.644s-0.685-0.288-0.685-0.644v-0.858h-3.651v0.859c0 0.355-0.306 0.644-0.685 0.644s-0.685-0.288-0.685-0.644v-0.859h-1.369c-0.252 0-0.456 0.192-0.456 0.429v7.299c0 0.237 0.204 0.429 0.456 0.429h5.524c-0.068-0.122-0.129-0.264-0.175-0.413l-0.004-0.016z"></path>
<path fill="#3da9f4" style="fill: var(--color3, #3da9f4)" d="M18.824 20.549c-1.126 0-2.039-0.913-2.039-2.039v0c0.001-1.126 0.913-2.038 2.039-2.039h0c1.126 0 2.039 0.913 2.039 2.039s-0.913 2.039-2.039 2.039v0zM20.117 17.99c0.041-0.041 0.066-0.098 0.066-0.16 0-0.125-0.101-0.227-0.227-0.227-0.063 0-0.119 0.025-0.16 0.066l-1.426 1.426-0.52-0.52c-0.041-0.040-0.097-0.065-0.159-0.065-0.125 0-0.227 0.101-0.227 0.227 0 0.062 0.025 0.117 0.064 0.158l0.68 0.68c0.041 0.041 0.098 0.066 0.16 0.066s0.119-0.025 0.16-0.066l1.586-1.586z"></path>
</symbol>
<symbol id="icon-cross" viewBox="0 0 32 32">
<path fill="#fff" style="fill: var(--color2, #fff)" d="M13.92 16.182l-9.12-9.12 2.262-2.262 9.12 9.12 9.12-9.12 2.262 2.262-9.12 9.12 8.982 8.982-2.262 2.262-8.982-8.982-8.982 8.982-2.262-2.262 8.982-8.982z"></path>
</symbol>
<symbol id="icon-dvigun" viewBox="0 0 32 32">
<path fill="#fbed1f" style="fill: var(--color1, #fbed1f)" d="M0 13.333h18.667v18.667h-18.667z"></path>
<path fill="#cad1d8" style="fill: var(--color4, #cad1d8)" d="M2.5 13.5v0zM5.331 17v0zM17.5 8.5v0zM12.493 11.332v0z"></path>
<path fill="none" stroke="#576d7e" style="stroke: var(--color5, #576d7e)" stroke-linejoin="round" stroke-linecap="round" stroke-miterlimit="4" stroke-width="0.6667" d="M2.5 13.5v7M5.331 17h-2.661M17.5 8.5h-10M12.493 11.332v-2.662"></path>
<path fill="#34485c" style="fill: var(--color6, #34485c)" d="M5 19v-6h2v-2h10v2h4l2 3.5h3v-3.5h3v10h-3v-3.5h-3v4.5h-14l-1-2h-3v-3z"></path>
<path fill="#576d7e" style="fill: var(--color5, #576d7e)" d="M10.432 22l0.535 2h1.033l-0.535-2h-1.033zM12.432 22l0.535 2h1.033l-0.535-2h-1.033zM14.432 22l0.535 2h1.033l-0.535-2h-1.033zM16.432 22l0.535 2h1.033l-0.535-2h-1.033zM18.432 22l0.535 2h1.033l-0.535-2h-1.033zM20.432 22l0.535 2h1.033l-0.535-2h-1.033z"></path>
<path fill="#2b4255" style="fill: var(--color7, #2b4255)" d="M7 13v-2h10v2h-10z"></path>
</symbol>
<symbol id="icon-facebook-circle" viewBox="0 0 32 32">
<path fill="#fff" style="fill: var(--color2, #fff)" d="M16 2.67c-0.006 0-0.014-0-0.021-0-7.363 0-13.332 5.969-13.332 13.332 0 6.636 4.849 12.14 11.196 13.162l0.076 0.010v-9.318h-3.39v-3.854h3.386v-2.938c0-3.344 1.992-5.188 5.036-5.188 1.458 0 2.986 0.26 2.986 0.26v3.28h-1.686c-1.652 0-2.17 1.028-2.17 2.082v2.502h3.694l-0.59 3.856h-3.102v9.316c6.412-1.043 11.247-6.541 11.247-13.168 0-7.362-5.967-13.33-13.329-13.332h-0z"></path>
</symbol>
<symbol id="icon-getting" viewBox="0 0 32 32">
<path fill="#fbed1f" style="fill: var(--color1, #fbed1f)" d="M15.373 0.157c8.403 0 15.216 6.812 15.216 15.216s-6.812 15.216-15.216 15.216c-8.403 0-15.216-6.812-15.216-15.216s6.812-15.216 15.216-15.216z"></path>
<path fill="#3da9f4" style="fill: var(--color3, #3da9f4)" d="M11.649 20.185l-3.335-3.401 0.941-0.941 2.51 1.569 7.216-7.529 0.941 0.627-7.325 9.617c-0.116 0.151-0.296 0.247-0.499 0.247-0.175 0-0.334-0.072-0.448-0.188l-0-0z"></path>
<path fill="#3da9f4" style="fill: var(--color3, #3da9f4)" opacity="0.497" d="M22.431 12.706h-1.569c-0.173 0-0.314-0.14-0.314-0.314s0.14-0.314 0.314-0.314v0h1.569c0.173 0 0.314 0.14 0.314 0.314s-0.14 0.314-0.314 0.314v0zM22.431 15.529h-3.765c-0.173 0-0.314-0.14-0.314-0.314s0.14-0.314 0.314-0.314v0h3.765c0.173 0 0.314 0.14 0.314 0.314s-0.14 0.314-0.314 0.314v0zM22.431 18.353h-5.961c-0.173 0-0.314-0.14-0.314-0.314s0.14-0.314 0.314-0.314v0h5.961c0.173 0 0.314 0.14 0.314 0.314s-0.14 0.314-0.314 0.314v0zM22.431 21.176h-8.157c-0.173 0-0.314-0.14-0.314-0.314s0.14-0.314 0.314-0.314v0h8.157c0.173 0 0.314 0.14 0.314 0.314s-0.14 0.314-0.314 0.314v0z"></path>
</symbol>
<symbol id="icon-instagram-alt" viewBox="0 0 32 32">
<path fill="#fff" style="fill: var(--color2, #fff)" d="M27.93 11.074c-0.015-1.066-0.219-2.080-0.58-3.016l0.020 0.060c-0.638-1.616-1.894-2.872-3.468-3.495l-0.042-0.015c-0.863-0.334-1.862-0.538-2.905-0.56l-0.009-0c-1.286-0.058-1.69-0.074-4.946-0.074s-3.674 0-4.946 0.074c-0.996 0.020-1.98 0.21-2.914 0.56-1.617 0.638-2.872 1.893-3.495 3.468l-0.014 0.042c-0.335 0.863-0.539 1.862-0.56 2.905l-0 0.009c-0.056 1.284-0.074 1.69-0.074 4.946s0 3.672 0.074 4.948c0.020 0.996 0.208 1.98 0.56 2.916 0.624 1.61 1.9 2.884 3.512 3.508 0.86 0.347 1.856 0.564 2.897 0.6l0.015 0c1.284 0.058 1.692 0.076 4.948 0.076s3.672 0 4.946-0.076c0.996-0.020 1.98-0.208 2.914-0.558 1.616-0.639 2.872-1.894 3.497-3.468l0.015-0.042c0.334-0.864 0.537-1.863 0.558-2.907l0-0.009c0.058-1.284 0.074-1.69 0.074-4.948-0.002-3.256-0.002-3.668-0.076-4.944zM15.992 22.136c-0 0-0.001 0-0.001 0-3.404 0-6.163-2.759-6.163-6.163s2.759-6.162 6.162-6.163h0c0 0 0.001 0 0.001 0 3.404 0 6.163 2.759 6.163 6.163s-2.759 6.162-6.162 6.163h-0zM22.402 11.016c-0.017 0.001-0.036 0.001-0.056 0.001-0.793 0-1.436-0.643-1.436-1.436s0.643-1.436 1.436-1.436c0.018 0 0.036 0 0.054 0.001l-0.003-0c0.001 0 0.001 0 0.002 0 0.793 0 1.436 0.643 1.436 1.436s-0.642 1.435-1.434 1.436h-0z"></path>
<path fill="#fff" style="fill: var(--color2, #fff)" d="M15.992 19.976c2.211 0 4.004-1.793 4.004-4.004s-1.793-4.004-4.004-4.004v0c-2.211 0-4.004 1.793-4.004 4.004s1.793 4.004 4.004 4.004v0z"></path>
</symbol>
<symbol id="icon-lightning_solid" viewBox="0 0 32 32">
<path fill="#3da9f4" style="fill: var(--color3, #3da9f4)" d="M0 0h32v32h-32z"></path>
<path fill="#fbed1f" style="fill: var(--color1, #fbed1f)" d="M17.457 1.693c0.377-0.528 1.209-0.261 1.209 0.387v11.253h6.705c0.368 0 0.666 0.299 0.666 0.667 0 0.145-0.047 0.28-0.125 0.389l0.001-0.002-11.371 15.92c-0.377 0.527-1.209 0.261-1.209-0.387v-11.253h-6.705c-0 0-0 0-0 0-0.368 0-0.667-0.298-0.667-0.667 0-0.145 0.046-0.28 0.125-0.389l-0.001 0.002 11.371-15.92z"></path>
</symbol>
<symbol id="icon-mail-solid-by" viewBox="0 0 32 32">
<path fill="#3da9f4" style="fill: var(--color3, #3da9f4)" d="M0 0h32v32h-32z"></path>
<path fill="#fbed1f" style="fill: var(--color1, #fbed1f)" d="M15.2 17.206l-7.2-4.157v7.751c0 0.884 0.716 1.6 1.6 1.6v0h12.8c0.884 0 1.6-0.716 1.6-1.6v0-7.752l-7.2 4.158c-0.23 0.135-0.505 0.214-0.8 0.214s-0.57-0.080-0.808-0.218l0.008 0.004z"></path>
<path fill="#fbed1f" style="fill: var(--color1, #fbed1f)" d="M16 15.82l-8-4.62c0-0.884 0.716-1.6 1.6-1.6v0h12.8c0.884 0 1.6 0.716 1.6 1.6v0 0.002l-8 4.618z"></path>
</symbol>
<symbol id="icon-mood-happy-solid" viewBox="0 0 32 32">
<path fill="#3da9f4" style="fill: var(--color3, #3da9f4)" d="M0.436 0.581h31.347v31.347h-31.347z"></path>
<path fill="#fbed1f" style="fill: var(--color1, #fbed1f)" d="M29.17 16.254c0 7.214-5.848 13.061-13.061 13.061s-13.061-5.848-13.061-13.061c0-7.214 5.848-13.061 13.061-13.061s13.061 5.848 13.061 13.061zM14.15 13.642c0 1.082-0.877 1.959-1.959 1.959s-1.959-0.877-1.959-1.959v0c0-1.082 0.877-1.959 1.959-1.959s1.959 0.877 1.959 1.959v0zM20.027 15.601c1.082 0 1.959-0.877 1.959-1.959s-0.877-1.959-1.959-1.959v0c-1.082 0-1.959 0.877-1.959 1.959s0.877 1.959 1.959 1.959v0zM11.221 19.519c0.6-0.401 1.402-0.221 1.955 0.242 0.785 0.662 1.808 1.064 2.925 1.064 0.002 0 0.005 0 0.007 0h-0c0.002 0 0.005 0 0.008 0 1.117 0 2.14-0.402 2.932-1.070l-0.007 0.006c0.553-0.463 1.356-0.643 1.955-0.242s0.767 1.223 0.265 1.74c-1.304 1.344-3.127 2.178-5.144 2.178-0.003 0-0.006 0-0.009 0h0c-0.002 0-0.005 0-0.008 0-2.018 0-3.84-0.834-5.142-2.176l-0.002-0.002c-0.503-0.517-0.335-1.339 0.264-1.74z"></path>
</symbol>
<symbol id="icon-phone-solid-b" viewBox="0 0 32 32">
<path d="M6.41 2.666c-1.145 0.005-2.17 0.517-2.862 1.323l-0.004 0.005c-0.544 0.614-0.876 1.427-0.876 2.318 0 0.059 0.001 0.117 0.004 0.175l-0-0.008c0.391 6.181 3.033 11.679 7.107 15.741l0.001 0.001c4.063 4.075 9.56 6.717 15.669 7.104l0.071 0.004c0.91 0.056 1.794-0.28 2.486-0.872 0.838-0.716 1.322-1.762 1.328-2.866v-2.684c0-1.224-0.832-2.29-2.020-2.588l-4.136-1.036c-0.194-0.051-0.417-0.080-0.647-0.080-0.516 0-0.998 0.147-1.406 0.4l0.011-0.007-3.076 1.886c-0.191 0.123-0.425 0.196-0.676 0.196-0.291 0-0.559-0.098-0.773-0.264l0.003 0.002c-1.164-0.934-2.204-1.863-3.193-2.843l0.003 0.003c-0.836-0.836-2-2.12-2.84-3.19-0.163-0.211-0.261-0.479-0.261-0.77 0-0.251 0.073-0.484 0.198-0.681l-0.003 0.005 1.886-3.076c0.374-0.61 0.488-1.346 0.314-2.040l-1.036-4.14c-0.3-1.168-1.344-2.018-2.586-2.018-0.001 0-0.001 0-0.002 0h-2.684z"></path>
</symbol>
<symbol id="icon-phone-solid-by" viewBox="0 0 32 32">
<path fill="#3da9f4" style="fill: var(--color3, #3da9f4)" d="M0 0h32v32h-32z"></path>
<path fill="#fbed1f" style="fill: var(--color1, #fbed1f)" d="M10.246 8c-0.687 0.003-1.301 0.31-1.717 0.793l-0.003 0.003c-0.355 0.416-0.557 0.946-0.522 1.491 0.234 3.708 1.819 7.007 4.264 9.444l0 0c2.438 2.445 5.736 4.030 9.402 4.262l0.042 0.002c0.546 0.034 1.075-0.167 1.491-0.522 0.486-0.418 0.793-1.032 0.796-1.719v-1.611c-0-0.746-0.51-1.372-1.2-1.55l-0.011-0.002-2.482-0.622c-0.117-0.030-0.251-0.048-0.389-0.048-0.309 0-0.598 0.088-0.843 0.24l0.007-0.004-1.846 1.132c-0.115 0.073-0.255 0.117-0.405 0.117-0.175 0-0.336-0.059-0.464-0.158l0.002 0.001c-0.698-0.56-1.322-1.117-1.915-1.706l0.002 0.002c-0.501-0.502-1.2-1.272-1.704-1.914-0.098-0.127-0.157-0.288-0.157-0.462 0-0.15 0.044-0.29 0.119-0.408l-0.002 0.003 1.132-1.846c0.148-0.238 0.236-0.527 0.236-0.836 0-0.138-0.017-0.272-0.050-0.4l0.002 0.011-0.622-2.482c-0.18-0.702-0.806-1.212-1.552-1.212h-1.611z"></path>
</symbol>
<symbol id="icon-phone-solid-w" viewBox="0 0 32 32">
<path fill="#fff" style="fill: var(--color2, #fff)" d="M6.41 2.666c-1.145 0.005-2.17 0.517-2.862 1.323l-0.004 0.005c-0.544 0.614-0.876 1.427-0.876 2.318 0 0.059 0.001 0.117 0.004 0.175l-0-0.008c0.391 6.181 3.033 11.679 7.107 15.741l0.001 0.001c4.063 4.075 9.56 6.717 15.669 7.104l0.071 0.004c0.91 0.056 1.794-0.28 2.486-0.872 0.838-0.716 1.322-1.762 1.328-2.866v-2.684c0-1.224-0.832-2.29-2.020-2.588l-4.136-1.036c-0.194-0.051-0.417-0.080-0.647-0.080-0.516 0-0.998 0.147-1.406 0.4l0.011-0.007-3.076 1.886c-0.191 0.123-0.425 0.196-0.676 0.196-0.291 0-0.559-0.098-0.773-0.264l0.003 0.002c-1.164-0.934-2.204-1.863-3.193-2.843l0.003 0.003c-0.836-0.836-2-2.12-2.84-3.19-0.163-0.211-0.261-0.479-0.261-0.77 0-0.251 0.073-0.484 0.198-0.681l-0.003 0.005 1.886-3.076c0.374-0.61 0.488-1.346 0.314-2.040l-1.036-4.14c-0.3-1.168-1.344-2.018-2.586-2.018-0.001 0-0.001 0-0.002 0h-2.684z"></path>
</symbol>
<symbol id="icon-quote" viewBox="0 0 32 32">
<path fill="#fbed1f" style="fill: var(--color1, #fbed1f)" d="M26.814 28.69c1.645 0 2.979-1.373 2.979-3.065v-7.484c0-1.693-1.334-3.064-2.979-3.064h-4.135c0-1.078 0.062-2.155 0.185-3.232 0.184-1.141 0.492-2.154 0.924-3.041 0.43-0.887 0.985-1.585 1.663-2.091 0.678-0.57 1.539-0.855 2.586-0.855v-4.754c-1.725 0-3.233 0.381-4.526 1.141-1.306 0.776-2.388 1.796-3.211 3.006l-0.022 0.035c-0.801 1.267-1.417 2.756-1.848 4.467-0.37 1.647-0.554 3.421-0.554 5.323v10.549c0 1.693 1.334 3.065 2.979 3.065h5.959zM8.938 28.69c1.645 0 2.979-1.373 2.979-3.065v-7.484c0-1.693-1.334-3.064-2.979-3.064h-4.135c0-1.078 0.062-2.155 0.185-3.232 0.184-1.141 0.492-2.154 0.924-3.041 0.43-0.887 0.985-1.585 1.663-2.091 0.678-0.57 1.539-0.855 2.586-0.855v-4.754c-1.724 0-3.232 0.381-4.526 1.141-1.306 0.776-2.388 1.796-3.211 3.006l-0.022 0.035c-0.802 1.267-1.417 2.756-1.848 4.467-0.37 1.647-0.554 3.421-0.554 5.323v10.549c0 1.693 1.334 3.065 2.979 3.065h5.959z"></path>
</symbol>
<symbol id="icon-repair" viewBox="0 0 32 32">
<path fill="#fbed1f" style="fill: var(--color1, #fbed1f)" d="M15.366 0c8.487 0 15.366 6.88 15.366 15.366s-6.88 15.366-15.366 15.366c-8.487 0-15.366-6.88-15.366-15.366s6.88-15.366 15.366-15.366z"></path>
<path fill="#3da9f4" style="fill: var(--color3, #3da9f4)" opacity="0.5" d="M16.515 15.755c-1.117-0.31-2.17-0.304-3.251-0.003-0.543 0.151-0.908 0.609-0.908 1.141v0.296c0 0.131 0.113 0.238 0.253 0.238h4.562c0.14 0 0.253-0.106 0.253-0.238v-0.292c0-0.531-0.366-0.99-0.911-1.141zM15.050 14.891c0.803 0 1.426-0.917 1.426-1.706 0-0.806-0.639-1.462-1.426-1.462s-1.426 0.656-1.426 1.462c0 0.789 0.623 1.706 1.426 1.706z"></path>
<path fill="#3da9f4" style="fill: var(--color3, #3da9f4)" d="M19.395 18.693c-0.213 0.253-0.448 0.488-0.701 0.701l1.834 1.834 0.701-0.701-1.833-1.833z"></path>
<path fill="#3da9f4" style="fill: var(--color3, #3da9f4)" d="M15.050 9.822c2.883 0 5.228 2.345 5.228 5.228s-2.345 5.228-5.228 5.228c-2.883 0-5.228-2.345-5.228-5.228s2.345-5.228 5.228-5.228zM10.32 15.050c0 2.608 2.122 4.73 4.73 4.73s4.73-2.122 4.73-4.73-2.122-4.73-4.73-4.73-4.73 2.122-4.73 4.73z"></path>
</symbol>
<symbol id="icon-shina" viewBox="0 0 32 32">
<path fill="#fbed1f" style="fill: var(--color1, #fbed1f)" d="M0 13.333h18.667v18.667h-18.667z"></path>
<path fill="#666" style="fill: var(--color8, #666)" d="M14.52 26c-3.31 0-5.993-4.254-5.993-9.5s2.683-9.5 5.993-9.5z"></path>
<path fill="#2b4255" style="fill: var(--color7, #2b4255)" d="M11.994 26c-3.31 0-5.994-4.255-5.994-9.5 0-5.248 2.684-9.5 5.994-9.5h7c-1.46 0.39-3.355 1.063-4.596 2.782-1.24 1.719-2.298 4.094-2.298 6.717 0 2.624 1.057 4.999 2.298 6.718 1.24 1.719 2.51 2.224 4.596 2.782l-7 0.001z"></path>
<path fill="#34485c" style="fill: var(--color6, #34485c)" d="M18.994 6.998c-3.862 0-6.994 4.253-6.994 9.5s3.132 9.5 6.994 9.5h0.012c3.863 0 6.994-4.253 6.994-9.5s-3.131-9.5-6.994-9.5h-0.012zM18.996 11.998h0.006c1.656 0 2.998 2.015 2.998 4.5s-1.342 4.5-2.998 4.5h-0.006c-1.655 0-2.996-2.015-2.996-4.5s1.341-4.5 2.996-4.5z"></path>
<path fill="none" stroke="#2b4255" style="stroke: var(--color7, #2b4255)" stroke-linejoin="round" stroke-linecap="round" stroke-miterlimit="4" stroke-width="0.6667" d="M18.993 9h-0.008c-2.753 0-4.985 3.131-4.985 6.993"></path>
<path fill="#34485c" style="fill: var(--color6, #34485c)" d="M12.472 6.998c-0.768 0.547-1.453 1.293-2.020 2.192-1.204 1.907-1.926 4.493-1.926 7.341s0.722 5.435 1.925 7.342c0.546 0.865 1.203 1.585 1.936 2.125h2.502c-1.358-0.173-2.618-1.116-3.592-2.66-1.081-1.713-1.771-4.13-1.771-6.807s0.69-5.095 1.771-6.808c1.081-1.714 2.512-2.696 4.041-2.696 0.001 0 0.002 0 0.003 0 0.061 0 0.119-0.011 0.172-0.030l-0.003 0.001h-3.037z"></path>
</symbol>
<symbol id="icon-team" viewBox="0 0 32 32">
<path fill="#3da9f4" style="fill: var(--color3, #3da9f4)" d="M0.435 0.327h31.347v31.347h-31.347v-31.347z"></path>
<path fill="#3da9f4" style="fill: var(--color3, #3da9f4)" d="M3.048 2.939h26.122v26.122h-26.122v-26.122z"></path>
<path fill="#fbed1f" style="fill: var(--color1, #fbed1f)" d="M14.748 10.286c0 2.254-1.827 4.082-4.082 4.082s-4.082-1.827-4.082-4.082c0-2.254 1.827-4.082 4.082-4.082s4.082 1.827 4.082 4.082z"></path>
<path fill="#fbed1f" style="fill: var(--color1, #fbed1f)" d="M21.551 14.367c2.254 0 4.082-1.827 4.082-4.082s-1.827-4.082-4.082-4.082c-2.254 0-4.082 1.827-4.082 4.082s1.827 4.082 4.082 4.082z"></path>
<path fill="#fbed1f" style="fill: var(--color1, #fbed1f)" d="M19.88 24.707c0.37-0.64 0.582-1.384 0.582-2.177v-1.995c0-0.91-0.284-1.912-0.999-2.726-0.381-0.434-0.794-0.84-1.235-1.213 1.034-0.385 2.154-0.595 3.322-0.595 2.854 0 5.415 1.256 7.161 3.245 0.311 0.354 0.458 0.819 0.458 1.291v1.995c0 1.202-0.975 2.177-2.177 2.177h-7.113z"></path>
<path fill="#fbed1f" style="fill: var(--color1, #fbed1f)" d="M18.242 22.969c-0.203 0.992-1.081 1.738-2.133 1.738h-10.884c-1.202 0-2.177-0.975-2.177-2.177v-1.995c0-0.472 0.147-0.936 0.458-1.291 1.746-1.989 4.307-3.245 7.161-3.245 2.023 0 3.9 0.631 5.442 1.707 0.633 0.442 1.211 0.959 1.719 1.538 0.311 0.354 0.458 0.819 0.458 1.291v1.995c0 0.15-0.015 0.297-0.044 0.439z"></path>
</symbol>
<symbol id="icon-telegram" viewBox="0 0 32 32">
<path fill="#fff" style="fill: var(--color2, #fff)" d="M16 0c8.837 0 16 7.163 16 16s-7.163 16-16 16v0c-8.837 0-16-7.163-16-16s7.163-16 16-16v0zM23.108 9.6c-0.61 0.012-1.546 0.332-6.048 2.18-3.16 1.318-6.308 2.658-9.45 4.020-0.768 0.3-1.168 0.596-1.206 0.884-0.070 0.552 0.736 0.724 1.752 1.050 0.826 0.266 1.94 0.576 2.52 0.59 0.524 0.010 1.11-0.204 1.756-0.64 4.416-2.944 6.692-4.432 6.836-4.464 0.1-0.020 0.24-0.050 0.336 0.032 0.096 0.084 0.086 0.24 0.074 0.284-0.080 0.338-4.226 4.060-4.464 4.306l-0.114 0.114c-0.88 0.87-1.768 1.438-0.236 2.434 1.386 0.9 2.192 1.476 3.616 2.4 0.912 0.59 1.628 1.288 2.568 1.204 0.434-0.040 0.88-0.442 1.108-1.642 0.536-2.832 1.592-8.972 1.836-11.504 0.004-0.057 0.007-0.124 0.007-0.191 0-0.154-0.013-0.306-0.037-0.453l0.002 0.016c-0.021-0.174-0.105-0.325-0.229-0.431l-0.001-0.001c-0.17-0.118-0.38-0.188-0.607-0.188-0.007 0-0.013 0-0.020 0h0.001z"></path>
</symbol>
<symbol id="icon-thumb-up-solid" viewBox="0 0 32 32">
<path fill="#3da9f4" style="fill: var(--color3, #3da9f4)" d="M0 0h32v32h-32z"></path>
<path fill="#fbed1f" style="fill: var(--color1, #fbed1f)" d="M18.253 1.333c-0.591 0-1.109 0.309-1.403 0.773l-0.004 0.007-6.179 9.887v16h14.352c0 0 0 0 0 0 1.038 0 1.938-0.593 2.378-1.459l0.007-0.015 2.7-5.4c0.355-0.695 0.563-1.515 0.563-2.384 0-0 0-0.001 0-0.001v0-5.407c0-1.473-1.194-2.667-2.667-2.667v0h-8.667l1.355-6.322c0.035-0.157 0.055-0.337 0.055-0.521 0-1.375-1.115-2.49-2.49-2.49v0zM2.667 13.333c0-0.736 0.597-1.333 1.333-1.333v0h4v16h-4c-0.736 0-1.333-0.597-1.333-1.333v0-13.333z"></path>
</symbol>
<symbol id="icon-watch_solid_by" viewBox="0 0 32 32">
<path fill="#3da9f4" style="fill: var(--color3, #3da9f4)" d="M0 0h32v32h-32z"></path>
<path fill="#fbed1f" style="fill: var(--color1, #fbed1f)" d="M13.773 6.4c-0 0-0 0-0 0-0.798 0-1.459 0.584-1.58 1.348l-0.001 0.009-0.366 2.376c1.156-0.833 2.601-1.333 4.163-1.333 0.004 0 0.008 0 0.012 0h-0.001c0.003 0 0.007 0 0.011 0 1.562 0 3.007 0.499 4.184 1.347l-0.021-0.015-0.366-2.376c-0.122-0.773-0.784-1.357-1.581-1.357-0 0-0 0-0 0h-4.454z"></path>
<path fill="#fbed1f" style="fill: var(--color1, #fbed1f)" d="M19.464 20.4c1.306-1.033 2.136-2.617 2.136-4.395 0-0.002 0-0.003 0-0.005v0c0-0.001 0-0.003 0-0.005 0-1.778-0.83-3.363-2.124-4.386l-0.012-0.009c-0.94-0.748-2.145-1.2-3.456-1.2-0.003 0-0.006 0-0.009 0h0c-0.002 0-0.005 0-0.008 0-1.31 0-2.515 0.452-3.467 1.209l0.011-0.009c-1.306 1.033-2.136 2.617-2.136 4.395 0 0.002 0 0.003 0 0.005v-0c0 0.001 0 0.003 0 0.005 0 1.778 0.83 3.363 2.124 4.386l0.012 0.009c0.94 0.748 2.145 1.2 3.456 1.2 0.003 0 0.006 0 0.009 0h-0c0.002 0 0.005 0 0.008 0 1.31 0 2.515-0.452 3.467-1.209l-0.011 0.009zM15.6 16.693c-0.241-0.141-0.4-0.398-0.4-0.693v0-1.6c0-0.442 0.358-0.8 0.8-0.8s0.8 0.358 0.8 0.8v0 1.138l1.246 0.719c0.243 0.14 0.405 0.399 0.405 0.695 0 0.442-0.358 0.8-0.8 0.8-0.149 0-0.289-0.041-0.408-0.112l0.004 0.002-1.646-0.95z"></path>
<path fill="#fbed1f" style="fill: var(--color1, #fbed1f)" d="M11.826 21.867c1.156 0.833 2.601 1.333 4.163 1.333 0.004 0 0.008 0 0.012 0h-0.001c0.003 0 0.007 0 0.011 0 1.562 0 3.007-0.499 4.184-1.347l-0.021 0.015-0.366 2.376c-0.122 0.773-0.784 1.357-1.581 1.357-0 0-0 0-0 0h-4.454c-0 0-0 0-0 0-0.798 0-1.459-0.584-1.58-1.348l-0.001-0.009-0.366-2.376z"></path>
</symbol>
<symbol id="icon-youtube" viewBox="0 0 32 32">
<path fill="#fff" style="fill: var(--color2, #fff)" d="M28.79 9.604c-0.317-1.148-1.201-2.035-2.325-2.348l-0.023-0.006c-2.088-0.574-10.442-0.584-10.442-0.584s-8.352-0.008-10.44 0.54c-1.146 0.333-2.030 1.221-2.35 2.346l-0.006 0.024c-0.55 2.088-0.556 6.42-0.556 6.42s-0.006 4.35 0.54 6.418c0.318 1.148 1.204 2.034 2.329 2.346l0.023 0.006c2.11 0.574 10.44 0.584 10.44 0.584s8.354 0.008 10.44-0.54c1.148-0.318 2.035-1.202 2.352-2.324l0.006-0.024c0.552-2.088 0.556-6.416 0.556-6.416s0.026-4.354-0.544-6.442zM13.328 20.006l0.006-8 6.944 4.008-6.95 3.992z"></path>
</symbol>
<symbol id="icon-autoelectrica" viewBox="0 0 32 32">
<path fill="#fbed1f" style="fill: var(--color1, #fbed1f)" d="M0 13.333h18.667v18.667h-18.667v-18.667z"></path>
<path fill="none" stroke="#34485c" style="stroke: var(--color6, #34485c)" stroke-linejoin="round" stroke-linecap="butt" stroke-miterlimit="4" stroke-width="0.6667" d="M11.833 7.75h9.167v1.667h-9.167v-1.667z"></path>
<path fill="#576d7e" style="fill: var(--color5, #576d7e)" d="M27.998 9h-23.162c-0.738 0-1.336 0.616-1.336 1.375v15.583c0 0.759 0.598 1.375 1.336 1.375h23.162c0.738 0 1.336-0.616 1.336-1.375v-15.583c0-0.759-0.598-1.375-1.336-1.375z"></path>
<path fill="#cad1d8" style="fill: var(--color4, #cad1d8)" d="M7.667 15.667c1.381 0 2.5-1.119 2.5-2.5s-1.119-2.5-2.5-2.5c-1.381 0-2.5 1.119-2.5 2.5s1.119 2.5 2.5 2.5z"></path>
<path fill="#f05542" style="fill: var(--color9, #f05542)" d="M6.833 7.333h1.667v1.667h-1.667v-1.667z"></path>
<path fill="#2b4255" style="fill: var(--color7, #2b4255)" d="M24.333 7.333h1.667v1.667h-1.667v-1.667z"></path>
<path fill="none" stroke="#f05542" style="stroke: var(--color9, #f05542)" stroke-linejoin="round" stroke-linecap="butt" stroke-miterlimit="4" stroke-width="0.6667" d="M7.667 11.917v2.5M8.917 13.167h-2.5"></path>
<path fill="#cad1d8" style="fill: var(--color4, #cad1d8)" d="M25.167 15.667c1.381 0 2.5-1.119 2.5-2.5s-1.119-2.5-2.5-2.5c-1.381 0-2.5 1.119-2.5 2.5s1.119 2.5 2.5 2.5z"></path>
<path fill="none" stroke="#2b4255" style="stroke: var(--color7, #2b4255)" stroke-linejoin="round" stroke-linecap="butt" stroke-miterlimit="4" stroke-width="0.6667" d="M26.417 13.167h-2.5"></path>
<path fill="#fbed1f" style="fill: var(--color1, #fbed1f)" d="M14.323 14.417l-1.396 5.75h2.792l-1.396 3.833 5.583-5.75h-2.792l1.397-3.833h-4.188z"></path>
</symbol>
<symbol id="icon-hodova" viewBox="0 0 32 32">
<path fill="#fbed1f" style="fill: var(--color1, #fbed1f)" d="M0 13.333h18.667v18.667h-18.667v-18.667z"></path>
<path fill="none" stroke="#576d7e" style="stroke: var(--color5, #576d7e)" stroke-linejoin="miter" stroke-linecap="butt" stroke-miterlimit="4" stroke-width="0.6667" d="M10.5 6.5h11.074M10.5 26.5h4.89M16.531 26.5h4.969M16 25.875v-19.375"></path>
<path fill="#34485c" style="fill: var(--color6, #34485c)" d="M8 3h2c0.554 0 1 0.39 1 0.875v5.25c0 0.485-0.446 0.875-1 0.875h-2c-0.554 0-1-0.39-1-0.875v-5.25c0-0.485 0.446-0.875 1-0.875zM8 23h2c0.554 0 1 0.39 1 0.875v5.25c0 0.485-0.446 0.875-1 0.875h-2c-0.554 0-1-0.39-1-0.875v-5.25c0-0.485 0.446-0.875 1-0.875zM22.326 2.923l1.991 0.184c0.552 0.051 0.96 0.48 0.916 0.963l-0.483 5.228c-0.044 0.483-0.524 0.83-1.076 0.78l-1.992-0.185c-0.551-0.050-0.96-0.48-0.915-0.963l0.483-5.228c0.044-0.482 0.524-0.83 1.076-0.779zM22 23h2c0.554 0 1 0.39 1 0.875v5.25c0 0.485-0.446 0.875-1 0.875h-2c-0.554 0-1-0.39-1-0.875v-5.25c0-0.485 0.446-0.875 1-0.875zM17.5 26.5c0 0.398-0.158 0.779-0.439 1.061s-0.663 0.439-1.061 0.439-0.779-0.158-1.061-0.439c-0.281-0.281-0.439-0.663-0.439-1.061s0.158-0.779 0.439-1.061c0.281-0.281 0.663-0.439 1.061-0.439s0.779 0.158 1.061 0.439c0.281 0.281 0.439 0.663 0.439 1.061z"></path>
</symbol>
<symbol id="icon-people" viewBox="0 0 33 32">
<path fill="#3da9f4" style="fill: var(--color3, #3da9f4)" d="M0.445 0h32v32h-32v-32z"></path>
<path fill="#3da9f4" style="fill: var(--color3, #3da9f4)" d="M3.111 2.667h26.667v26.667h-26.667v-26.667z"></path>
<path fill="#fbed1f" style="fill: var(--color1, #fbed1f)" d="M15.056 10.167c0 2.301-1.865 4.167-4.167 4.167s-4.167-1.865-4.167-4.167c0-2.301 1.865-4.167 4.167-4.167s4.167 1.865 4.167 4.167z"></path>
<path fill="#fbed1f" style="fill: var(--color1, #fbed1f)" d="M22 14.333c2.301 0 4.167-1.865 4.167-4.167s-1.865-4.167-4.167-4.167c-2.301 0-4.167 1.865-4.167 4.167s1.865 4.167 4.167 4.167z"></path>
<path fill="#fbed1f" style="fill: var(--color1, #fbed1f)" d="M20.294 24.889c0.378-0.654 0.595-1.413 0.595-2.222v-2.037c0-0.929-0.29-1.952-1.020-2.783-0.389-0.443-0.81-0.857-1.26-1.239 1.056-0.393 2.198-0.608 3.391-0.608 2.914 0 5.528 1.282 7.31 3.312 0.318 0.362 0.468 0.836 0.468 1.317v2.037c0 1.227-0.995 2.222-2.222 2.222h-7.261z"></path>
<path fill="#fbed1f" style="fill: var(--color1, #fbed1f)" d="M18.622 23.115c-0.207 1.013-1.103 1.774-2.177 1.774h-11.111c-1.227 0-2.222-0.995-2.222-2.222v-2.037c0-0.482 0.15-0.956 0.468-1.317 1.782-2.031 4.396-3.312 7.31-3.312 2.066 0 3.981 0.644 5.556 1.743 0.647 0.451 1.236 0.979 1.755 1.57 0.318 0.362 0.468 0.836 0.468 1.317v2.037c0 0.153-0.016 0.303-0.045 0.448z"></path>
</symbol>
</defs>
</svg>
