<!-- Generated by IcoMoon.io -->
<svg version="1.1" xmlns="http://www.w3.org/2000/svg" width="32" height="32" viewBox="0 0 32 32">
<title>autoelectrica</title>
<path fill="#fbed1f" d="M0 13.333h18.667v18.667h-18.667v-18.667z"></path>
<path fill="none" stroke="#34485c" stroke-linejoin="round" stroke-linecap="butt" stroke-miterlimit="4" stroke-width="0.6667" d="M11.833 7.75h9.167v1.667h-9.167v-1.667z"></path>
<path fill="#576d7e" d="M27.998 9h-23.162c-0.738 0-1.336 0.616-1.336 1.375v15.583c0 0.759 0.598 1.375 1.336 1.375h23.162c0.738 0 1.336-0.616 1.336-1.375v-15.583c0-0.759-0.598-1.375-1.336-1.375z"></path>
<path fill="#cad1d8" d="M7.667 15.667c1.381 0 2.5-1.119 2.5-2.5s-1.119-2.5-2.5-2.5c-1.381 0-2.5 1.119-2.5 2.5s1.119 2.5 2.5 2.5z"></path>
<path fill="#f05542" d="M6.833 7.333h1.667v1.667h-1.667v-1.667z"></path>
<path fill="#2b4255" d="M24.333 7.333h1.667v1.667h-1.667v-1.667z"></path>
<path fill="none" stroke="#f05542" stroke-linejoin="round" stroke-linecap="butt" stroke-miterlimit="4" stroke-width="0.6667" d="M7.667 11.917v2.5M8.917 13.167h-2.5"></path>
<path fill="#cad1d8" d="M25.167 15.667c1.381 0 2.5-1.119 2.5-2.5s-1.119-2.5-2.5-2.5c-1.381 0-2.5 1.119-2.5 2.5s1.119 2.5 2.5 2.5z"></path>
<path fill="none" stroke="#2b4255" stroke-linejoin="round" stroke-linecap="butt" stroke-miterlimit="4" stroke-width="0.6667" d="M26.417 13.167h-2.5"></path>
<path fill="#fbed1f" d="M14.323 14.417l-1.396 5.75h2.792l-1.396 3.833 5.583-5.75h-2.792l1.397-3.833h-4.188z"></path>
</svg>
