<svg xmlns="http://www.w3.org/2000/svg" width="64" height="64" fill="none"><g clip-path="url(#a)"><path fill="#000" fill-rule="evenodd" d="M32 0c17.627 0 32.001 14.374 32.001 32 0 17.627-14.374 32.001-32 32.001C14.374 64.001 0 49.625 0 32.001 0 14.376 14.374 0 32 0Z" clip-rule="evenodd"/><path fill="#fff" d="m13.408 22.403-7.55-6.495 2.827-3.287a6.182 6.182 0 0 1 1.613-1.413 2.643 2.643 0 0 1 1.524-.343c.475.028.929.208 1.294.513.326.285.553.666.647 1.09a2.783 2.783 0 0 1-.1 1.513 3.094 3.094 0 0 1 1.735-.633 2.208 2.208 0 0 1 1.512.556c.348.296.61.679.763 1.11.15.397.202.825.15 1.247-.073.45-.226.882-.451 1.278a8.84 8.84 0 0 1-1.09 1.522l-2.874 3.342Zm-3.38-4.926 1.631-1.895c.331-.36.62-.756.863-1.18a1.65 1.65 0 0 0 .196-.99 1.301 1.301 0 0 0-.467-.79 1.442 1.442 0 0 0-.84-.361 1.398 1.398 0 0 0-.905.26 7.625 7.625 0 0 0-1.255 1.244l-1.504 1.75 2.282 1.962Zm3.487 2.999 1.875-2.18c.232-.26.447-.533.644-.82.169-.26.293-.547.367-.848a1.545 1.545 0 0 0-.524-1.523 1.502 1.502 0 0 0-.951-.381 1.757 1.757 0 0 0-1.038.321c-.457.337-.87.732-1.226 1.173l-1.743 2.026 2.596 2.232Zm12.448-9.23V2.705h2.252l2.673 6.047c.246.563.428.985.538 1.265.129-.31.33-.767.602-1.37l2.707-5.942h2.012v8.541h-1.441v-7.15l-3.285 7.15h-1.35l-3.267-7.27v7.27h-1.441Zm20.426 4.987 5.226-7.086.714.88-3.54 4.504c-.364.468-.742.925-1.133 1.371.842-.407 1.327-.64 1.46-.699l5.47-2.389.84 1.036-2.599 3.644a23.636 23.636 0 0 1-1.934 2.403 41.142 41.142 0 0 1 1.701-.844l5.078-2.432.7.864-8.062 3.588-.67-.828 3.937-5.454c.329-.457.533-.734.612-.833-.36.178-.67.325-.932.44l-6.158 2.71-.71-.875Z"/><path fill="#00ACEC" fill-rule="evenodd" d="M50.903 32.317a18.622 18.622 0 0 1-18.586 18.586V32.317h18.586Z" clip-rule="evenodd"/><path fill="#fff" fill-rule="evenodd" d="M50.903 31.683a18.622 18.622 0 0 0-18.586-18.586v18.586h18.586Z" clip-rule="evenodd"/><path fill="#00ACEC" fill-rule="evenodd" d="M13.097 31.683a18.622 18.622 0 0 1 18.586-18.586v18.586H13.097Z" clip-rule="evenodd"/><path fill="#fff" fill-rule="evenodd" d="M13.097 32.317a18.621 18.621 0 0 0 18.586 18.586V32.317H13.097Z" clip-rule="evenodd"/></g><defs><clipPath id="a"><path fill="#fff" d="M0 0h64v64H0z"/></clipPath></defs></svg>