<svg xmlns="http://www.w3.org/2000/svg" width="101" height="102" fill="none"><g filter="url(#a)"><rect width="97" height="97" y=".5" fill="#FBED1F" rx="48.5"/></g><path fill="#3DA9F4" fill-rule="evenodd" d="M41 39.5c-.552 0-1-.298-1-.667v-4.666c0-.369.448-.667 1-.667s1 .298 1 .667v4.666c0 .369-.448.667-1 .667ZM57 39.5c-.552 0-1-.298-1-.667v-4.666c0-.369.448-.667 1-.667s1 .298 1 .667v4.666c0 .369-.448.667-1 .667Z" clip-rule="evenodd"/><path fill="#3DA9F4" fill-rule="evenodd" d="M51.49 61.132H35.183c-.402 0-.727-.307-.727-.685V44.711c0-.378.325-.685.727-.685h27.636c.402 0 .727.307.727.684v8.065c.532.328 1.02.714 1.455 1.15V37.867c0-.755-.651-1.368-1.455-1.368h-4.363v2.737c0 1.133-.977 2.052-2.182 2.052s-2.182-.919-2.182-2.052V36.5H43.182v2.737c0 1.133-.977 2.052-2.182 2.052s-2.182-.919-2.182-2.052V36.5h-4.363c-.804 0-1.455.613-1.455 1.368v23.264c0 .755.651 1.368 1.455 1.368h17.607a7.194 7.194 0 0 1-.571-1.368Z" clip-rule="evenodd" opacity=".5"/><path fill="#3DA9F4" fill-rule="evenodd" d="M59.5 65.5A6.5 6.5 0 0 1 53 59a6.507 6.507 0 0 1 6.5-6.5 6.5 6.5 0 1 1 0 13Zm4.122-8.156a.722.722 0 1 0-1.022-1.021l-4.544 4.545-1.656-1.656a.722.722 0 0 0-1.022 1.02l2.167 2.168a.722.722 0 0 0 1.021 0l5.056-5.056Z" clip-rule="evenodd"/><defs><filter id="a" width="101" height="101" x="0" y=".5" color-interpolation-filters="sRGB" filterUnits="userSpaceOnUse"><feFlood flood-opacity="0" result="BackgroundImageFix"/><feColorMatrix in="SourceAlpha" result="hardAlpha" values="0 0 0 0 0 0 0 0 0 0 0 0 0 0 0 0 0 0 127 0"/><feOffset dx="4" dy="4"/><feComposite in2="hardAlpha" operator="out"/><feColorMatrix values="0 0 0 0 0.239216 0 0 0 0 0.662745 0 0 0 0 0.956863 0 0 0 1 0"/><feBlend in2="BackgroundImageFix" result="effect1_dropShadow_84_8027"/><feBlend in="SourceGraphic" in2="effect1_dropShadow_84_8027" result="shape"/></filter></defs></svg>