<!-- Generated by IcoMoon.io -->
<svg version="1.1" xmlns="http://www.w3.org/2000/svg" width="32" height="32" viewBox="0 0 32 32">
<title>consultation</title>
<path fill="#fbed1f" d="M15.373 0.157c8.403 0 15.216 6.812 15.216 15.216s-6.812 15.216-15.216 15.216c-8.403 0-15.216-6.812-15.216-15.216s6.812-15.216 15.216-15.216z"></path>
<path fill="#3da9f4" d="M13.020 12.392c-0.173 0-0.314-0.094-0.314-0.209v-1.464c0-0.116 0.141-0.209 0.314-0.209s0.314 0.094 0.314 0.209v1.464c0 0.116-0.141 0.209-0.314 0.209zM18.039 12.392c-0.173 0-0.314-0.094-0.314-0.209v-1.464c0-0.116 0.141-0.209 0.314-0.209s0.314 0.094 0.314 0.209v1.464c0 0.116-0.141 0.209-0.314 0.209z"></path>
<path fill="#3da9f4" opacity="0.5" d="M16.311 19.179h-5.116c-0.126 0-0.228-0.096-0.228-0.215v-4.937c0-0.119 0.102-0.215 0.228-0.215h8.67c0.126 0 0.228 0.096 0.228 0.215v2.53c0.167 0.103 0.32 0.224 0.456 0.361v-5.038c0-0.237-0.204-0.429-0.456-0.429h-1.369v0.859c0 0.355-0.306 0.644-0.685 0.644s-0.685-0.288-0.685-0.644v-0.858h-3.651v0.859c0 0.355-0.306 0.644-0.685 0.644s-0.685-0.288-0.685-0.644v-0.859h-1.369c-0.252 0-0.456 0.192-0.456 0.429v7.299c0 0.237 0.204 0.429 0.456 0.429h5.524c-0.068-0.122-0.129-0.264-0.175-0.413l-0.004-0.016z"></path>
<path fill="#3da9f4" d="M18.824 20.549c-1.126 0-2.039-0.913-2.039-2.039v0c0.001-1.126 0.913-2.038 2.039-2.039h0c1.126 0 2.039 0.913 2.039 2.039s-0.913 2.039-2.039 2.039v0zM20.117 17.99c0.041-0.041 0.066-0.098 0.066-0.16 0-0.125-0.101-0.227-0.227-0.227-0.063 0-0.119 0.025-0.16 0.066l-1.426 1.426-0.52-0.52c-0.041-0.040-0.097-0.065-0.159-0.065-0.125 0-0.227 0.101-0.227 0.227 0 0.062 0.025 0.117 0.064 0.158l0.68 0.68c0.041 0.041 0.098 0.066 0.16 0.066s0.119-0.025 0.16-0.066l1.586-1.586z"></path>
</svg>
