<!-- Generated by IcoMoon.io -->
<svg version="1.1" xmlns="http://www.w3.org/2000/svg" width="32" height="32" viewBox="0 0 32 32">
<title>dvigun</title>
<path fill="#fbed1f" d="M0 13.333h18.667v18.667h-18.667z"></path>
<path fill="#cad1d8" d="M2.5 13.5v0zM5.331 17v0zM17.5 8.5v0zM12.493 11.332v0z"></path>
<path fill="none" stroke="#576d7e" stroke-linejoin="round" stroke-linecap="round" stroke-miterlimit="4" stroke-width="0.6667" d="M2.5 13.5v7M5.331 17h-2.661M17.5 8.5h-10M12.493 11.332v-2.662"></path>
<path fill="#34485c" d="M5 19v-6h2v-2h10v2h4l2 3.5h3v-3.5h3v10h-3v-3.5h-3v4.5h-14l-1-2h-3v-3z"></path>
<path fill="#576d7e" d="M10.432 22l0.535 2h1.033l-0.535-2h-1.033zM12.432 22l0.535 2h1.033l-0.535-2h-1.033zM14.432 22l0.535 2h1.033l-0.535-2h-1.033zM16.432 22l0.535 2h1.033l-0.535-2h-1.033zM18.432 22l0.535 2h1.033l-0.535-2h-1.033zM20.432 22l0.535 2h1.033l-0.535-2h-1.033z"></path>
<path fill="#2b4255" d="M7 13v-2h10v2h-10z"></path>
</svg>
