<svg xmlns="http://www.w3.org/2000/svg" width="48" height="48" fill="none"><g clip-path="url(#a)"><path fill="#FBED1F" d="M0 20h28v28H0z"/><path fill="#CAD1D8" fill-rule="evenodd" d="M3.75 20.25v10.5-10.5Zm4.247 5.25H4.005h3.992ZM26.25 12.75h-15 15Zm-7.51 4.248v-3.993 3.993Z" clip-rule="evenodd"/><path stroke="#576D7E" stroke-linecap="round" stroke-linejoin="round" d="M3.75 20.25v10.5m4.247-5.25H4.005M26.25 12.75h-15m7.49 4.248v-3.993"/><path fill="#34485C" fill-rule="evenodd" d="M7.5 28.5v-9h3v-3h15v3h6l3 5.25H39V19.5h4.5v15H39v-5.25h-4.5V36h-21L12 33H7.5v-4.5Z" clip-rule="evenodd"/><path fill="#576D7E" d="m15.648 33 .802 3H18l-.803-3h-1.55Zm3 0 .802 3H21l-.803-3h-1.55Zm3 0 .802 3H24l-.803-3h-1.55Zm3 0 .802 3H27l-.803-3h-1.55Zm3 0 .802 3H30l-.803-3h-1.55Zm3 0 .802 3H33l-.803-3h-1.55Z"/><path fill="#2B4255" fill-rule="evenodd" d="M10.5 19.5v-3h15v3h-15Z" clip-rule="evenodd"/></g><defs><clipPath id="a"><path fill="#fff" d="M0 0h48v48H0z"/></clipPath></defs></svg>