<!-- Generated by IcoMoon.io -->
<svg version="1.1" xmlns="http://www.w3.org/2000/svg" width="32" height="32" viewBox="0 0 32 32">
<title>facebook-circle</title>
<path fill="#fff" d="M16 2.67c-0.006 0-0.014-0-0.021-0-7.363 0-13.332 5.969-13.332 13.332 0 6.636 4.849 12.14 11.196 13.162l0.076 0.010v-9.318h-3.39v-3.854h3.386v-2.938c0-3.344 1.992-5.188 5.036-5.188 1.458 0 2.986 0.26 2.986 0.26v3.28h-1.686c-1.652 0-2.17 1.028-2.17 2.082v2.502h3.694l-0.59 3.856h-3.102v9.316c6.412-1.043 11.247-6.541 11.247-13.168 0-7.362-5.967-13.33-13.329-13.332h-0z"></path>
</svg>
