<svg xmlns="http://www.w3.org/2000/svg" width="64" height="64" fill="none"><g clip-path="url(#a)"><path fill="#231F20" d="M64 32c0 17.673-14.327 32-32 32C14.327 64 0 49.673 0 32 0 14.327 14.327 0 32 0c17.673 0 32 14.327 32 32Z"/><path fill="#BDBCBC" d="M62.877 32c0 17.054-13.824 30.877-30.877 30.877C14.947 62.877 1.122 49.054 1.122 32 1.122 14.947 14.947 1.123 32 1.123S62.877 14.947 62.877 32Z"/><path fill="#231F20" d="M7.166 16.448c0 .025-3.426.547-3.422.563.016.085-.178 17.623 2.95 16.74 2.06-.969.952-12.397.952-10.86 0 2.143.209 5.657 1.03 11.176.927 6.216.536 6.99.968 8.33-1.005-.976-2.568-1.415-2.568-1.415l2.217 7.492 1.632-.016s.024-.503.045-.527c.044 0 1.613.116 2.69 2.088 6.236 11.413 22.654 7.024 18.357 7.272l6.765-.814c-19.814 3.39-23.53-5.746-24.527-7.57-.624-.915-2.418-1.873-3.546-1.328 0 0 2.753.11 2.63-.62.861.836-2.139-1.352-2.139-1.352l.151.474c.465.047.256-.455.746-.537l-.608-.279c-.078-.095.338-.592-1.148-10.56-.816-5.478-.651-9.742-.651-11.864 0-2.056-.135-2.201-.13-2.216l-1.208-.789-.232-.047c-.332-.067-.662-.174-.805-.253.074-.11.117-.258.117-.5 0-.235-.025-.542-.058-.937-.043-.529-.022-2.424-.095-1.79-3.847 33.388 1.478-3.738.824-3.024l.374-.424c1.813-2.092 8.143-6.977 24.478-7.36 17.273-.404 17.352 5.906 17.41 5.998l4.475 2.216c-.058-.095-5.87-9.74-23.413-9.33-16.53.387-21.438 6.05-23.285 8.182l-.365.414c-.76.829-1.631.836-1.631 2.057 0 .651-.73 1.52-.686 2.058 2.132 3.746 1.396 1.895 1.706-.648Zm47.237-1.606c-.377.162-.32.773-.241 1.619.058.63.124 1.344 0 1.843l.431.109c.143-.573.072-1.328.011-1.994-.039-.423-.099-1.064-.009-1.178.011.015.136 4.771 1.116 5.905 1.559 1.805.782.767.782 3.912 0 1.55 1.16 3.356 1.113 3.989-.578-.731-.742-2.613-.889-4.3-.172-1.965-.319-3.661-1.018-4.225.861-.755-2.131-4.712-1.927-2.032.14.937-.318-2.105-.983-3.14-2.039-3.173-6.262-6.88-20.94-7.39-13.453-.467-20.121 5.055-21.835 6.74l.223-.384-2.187-1.127-.618 6.545.936-1.477s1.51-2.739 1.538-2.803c.236-.278 6.61-7.579 21.928-7.047 16.328.567 19.309 5.205 20.582 7.185.613.955.774 2.023.917 2.964.187 1.24.365 2.411 1.757 2.224a.41.41 0 0 1 .331.091c.552.445.705 2.209.854 3.914.195 2.257.382 4.389 1.419 4.911l.289.146.03-.325c.04-.414.934-10.17-1.828-13.368-1.088-1.26-1.489-1.434-1.782-1.307Zm5.906 8.086c-.28-1.297-.7-2.56-1.252-3.766.314.723.815 2.012 1.252 3.766Zm-1.252-3.766a14.147 14.147 0 0 0-.195-.436c.072.146.13.29.195.436Zm-1.391-3.23c3.65 3.52 2.995 12.602 2.995 12.602l-1.776-2.063v8.8l-1.229 2.474c-2.186 11.688-7.375 22-27.727 21.45C9.58 58.645 6.438 47.783 4.525 37.47c-1.912-10.312.82-21.587.82-21.587-6.01 17.875 1.093 31.35 1.093 31.35s3.414 12.65 24.448 12.513c21.033-.138 24.312-11.826 24.312-11.826l.382 2.95s4.886-4.469 6.388-13.819c.76-4.733-2.18-19.074-4.302-21.12Zm1.196 2.794c-.071-.149-.114-.23-.114-.23.04.077.076.154.114.23Z"/><path fill="url(#b)" d="M60.226 27.197c.024.036 0 0 0 0ZM7.96 12.534s2.78-2.566 4.767-4.455c0 0-2.649 1.484-4.767 4.454Zm-.74 34.038c1.574 3.176 3.124 5.244 3.124 5.244s-1.477-2.228-3.124-5.244Zm51.584-30.529-.517-1.508 4.622 1.643-4.472-2.292 4.541-2.695-4.99 2.046.798-4.99-1.62 4.82-1.174-.331C53.529 9.074 50.145 7.242 45.886 5.2c-7.914-3.798-18.463-2.79-18.463-2.79s12.453.158 21.98 5.804c1.967 1.166 3.607 2.783 4.969 4.61l-2.056.114 2.356.3c.222.314.437.632.643.955l-2.735 1.58 2.951-1.239c.303.492.592.992.865 1.5l-1.167 3.654 1.379-3.251c2.044 3.953 3.12 8.153 3.617 10.76-.572-5.456-1.57-9.345-2.982-12.261l.103-.243s5.164 6.75 4.238 17.82c-.927 11.069-3.575 14.983-6.224 17.683l-.132-1.35S51.39 60.321 32.323 60.05C13.256 59.78 11.8 53.571 11.8 53.571l-1.06-.54S6.24 49.52 3.458 40.206c-2.78-9.315-.132-16.874-.132-16.874s-1.457 6.21-.397 12.554c.548 3.288 2.518 7.442 4.29 10.685-1.3-2.623-2.62-6.002-3.099-9.605-1.06-7.965-.794-13.365.53-17.414 1.323-4.05 2.118-5.805 2.118-5.805s-5.56 6.48-5.693 20.25C.942 47.766 12.594 57.215 17.758 59.24c5.164 2.025 21.45 4.724 31.248-2.16 9.798-6.885 9.136-8.64 12.314-14.985 3.178-6.344 1.854-19.168-2.516-26.053Zm-2.319-2.525-.03-.052.098.012-.068.04Zm.456.813c-.056-.106-.112-.214-.169-.317l.311-.13-.142.447Zm-46.597-.583c.794-1.35 4.898-3.78 4.898-3.78s-2.25 1.35-4.766 4.32.927-.27 5.561-3.375C20.671 7.81 27.16 8.08 27.16 8.08s-2.118-1.62-10.195.945l7.812-3.375S12.86 8.214 9.416 13.073c-3.442 4.86.133 2.025.928.675Zm39.857-.427a42.195 42.195 0 0 1 2.513 2.857s-.43-1.365-2.513-2.857ZM4.915 33.187c1.456 14.31 7.547 20.385 7.547 20.385s4.634 4.589 19.067 5.264c14.432.675 19.067-4.995 19.464-5.94.397-.945-1.855.54-2.516.27-.662-.27 2.119-5.265 2.119-5.265-1.457 5.4.794-.81 2.25-.134 1.457.674-2.913 2.43-1.456 3.78 1.456 1.35 4.5-8.235 6.488-12.555 1.986-4.32 1.324-8.775 1.192-11.61-.132-2.835-.795-4.05-.795-4.05l-.397 6.75s.265.945-1.854-3.78l-1.721-4.59c-1.192 21.06-5.96 29.025-5.96 29.025s-1.72 5.264-15.623 5.4c-13.902.133-15.889-3.511-15.889-3.511-4.501-5.94-7.15-18.629-6.487-26.998.662-8.37 0-10.665 5.958-13.23 5.958-2.564 14.962-2.835 14.962-2.835 10.814-.304 16.25 1.833 18.937 3.758-.346-.36-.7-.713-1.062-1.057-1.986-1.89-20.391-5.805-30.057-2.026-9.665 3.78-10.327 7.425-9.665 18.494.662 11.07 4.105 20.249 6.488 23.76C18.288 56 26.762 57.08 26.762 57.08c-11.52-.27-12.843-6.344-13.505-7.425-.663-1.08-2.649-3.24-3.046-1.485-.397 1.755-3.957-8.976-3.295-9.516.662-.54 4.752 5.467 4.752 5.467s-1.457-2.97-2.913-11.34c-1.457-8.369.794-12.554-.663-12.824-1.456-.27 1.812 12.35-2.36 12.911-1.188.16-.202-11.161.328-13.456s1.106-2.965 1.106-2.965-3.708 2.43-2.251 16.74Z"/><path fill="url(#c)" stroke="#6D0115" stroke-width=".434" d="M33.966 55.248c.023-.002 3.318-.163 6.193-.81 2.498-.563 4.708-1.638 4.73-1.649l.008-.004.01-.004c.012-.005 1.243-.537 2-1.261.769-.734 1.118-1.695 1.121-1.705.016-.041 1.36-3.625 2.377-7.453.936-3.523 1.578-7.417 1.585-7.456.01-.051.785-3.986 1.003-8.172.183-3.518-.18-7.512-.185-7.552-.002-.03-.189-2.395-1.138-3.942-.853-1.39-2.5-2.072-2.517-2.079l-.014-.005-.014-.008c-.02-.01-1.931-.967-5.559-1.757-2.893-.629-6.915-1.078-10.244-1.143-3.807-.075-7.894.19-10.931.71-3.643.622-6.01 1.547-6.034 1.557l-.02.007-.02.005c-.024.007-2.384.654-3.625 2.23-1.26 1.6-1.465 4.23-1.466 4.256l-.002.016a48.342 48.342 0 0 0-.268 5.073c0 .498.008 1.013.029 1.534.142 3.702.789 7.804.795 7.845.008.04.885 4.857 1.884 8.916a62.852 62.852 0 0 0 1.715 5.698l.007.019.005.02c.003.013.332 1.364.867 2.306a4.386 4.386 0 0 0 1.158 1.307l.011.008.011.009c.005.003.472.38 1.187.772.825.452 1.93.936 1.976.955.078.031 2.514.963 5.724 1.387 3.353.443 7.598.37 7.64.37Z"/><path fill="#6D0115" d="M19.416 52.668c-.145-.066-.224-.105-.224-.105-.008-.003-.05-.021-.117-.052l-.024-.145c-.575-3.17-1.452-8.961-1.74-16.024-.354-8.305-.34-18.484-.307-23.414v-.357c.097-.033.197-.066.301-.099l.002.357c-.035 4.889-.05 15.145.306 23.5.292 7.186 1.196 13.05 1.768 16.166l.035.173Z"/><path fill="#6D0115" d="M20.366 53.075a28.86 28.86 0 0 1-.328-.135l-.028-.222c-.419-2.986-1.16-9.072-1.512-16.858-.373-8.276-.306-18.68-.248-23.41l.001-.265.302-.085v.293c-.058 4.697-.128 15.148.247 23.454.36 7.962 1.127 14.142 1.54 17.038l.026.19Zm7.099-42.172.359 43.277.006.647a30.26 30.26 0 0 1-.3-.033l-.008-.615-.359-43.236-.007-.268.304-.025.005.253Zm3.93-.119.143 43.614.003.612a37.5 37.5 0 0 1-.305.003v-.694l-.143-43.634-.002-.205.295-.004.01.308Zm1.51.04L32.687 54.4v.59a62.66 62.66 0 0 1-.307.008l.004-.48.217-43.752-.007-.288.315.004-.006.343Zm4.079 43.418c.216-3.585.626-11.187.794-19.789.171-8.766.095-18.743.042-23.428l-.017-.302.364.033.017.386c.052 4.738.126 14.622-.043 23.318-.167 8.53-.571 16.078-.789 19.706l-.032.519c-.127.015-.237.03-.366.043l.03-.486Zm10.31-3.554a4.333 4.333 0 0 1-.475.543l.145-.769a119.66 119.66 0 0 0 1.853-14.26c.484-7.057.546-16.706.536-22.189l.007-.525c.117.065.237.134.355.208l.001.7c.007 5.546-.063 14.926-.536 21.83a120.11 120.11 0 0 1-1.82 14.096l-.066.366ZM50.78 38.85c.289-2.27.512-4.55.669-6.833.365-5.381.374-11.478.328-15.359l-.008-.647c.147.332.272.673.373 1.021l.008.602c.032 3.886-.003 9.45-.339 14.407a112.423 112.423 0 0 1-.248 3.052l-.111 1.09c-.269 1.348-.553 2.691-.853 4.032l.181-1.365Z"/><path fill="#6D0115" d="M46.01 51.868a8.95 8.95 0 0 1-.408.26l.11-.618c.604-3.33 1.546-9.372 1.916-16.393.406-7.713.407-16.882.373-21.575l-.014-.665c.103.036.226.081.36.135l.018.62c.033 4.725.029 13.833-.375 21.503a134.053 134.053 0 0 1-1.866 16.132l-.115.601Zm-4.454 1.527c.286-3.102.81-9.523 1.062-17.27.283-8.696.284-19.001.263-23.98l-.01-.707.372.078.001.686c.021 5.002.019 15.266-.263 23.935-.25 7.695-.77 14.085-1.057 17.22l-.036.38c-.12.035-.24.072-.374.109l.042-.451Zm-1.253.292c.314-2.634.828-7.74 1.04-14.38.31-9.663.272-21.848.232-27.487l-.008-.627c.12.02.24.041.356.063l.014.655c.04 5.682.077 17.792-.231 27.407-.21 6.539-.711 11.594-1.028 14.275l-.058.485-.377.092.06-.483Zm-1.016.214c.246-2.785.67-8.302.869-15.013.278-9.38.206-21.256.139-27.448l-.007-.443.366.052.006.592c.066 6.249.133 17.975-.142 27.257-.196 6.608-.61 12.06-.857 14.893l-.045.514c-.125.026-.242.05-.372.075l.043-.479Zm-1.179.237c.208-3.253.602-10.05.774-17.342.229-9.692.24-20.503.23-25.564l-.01-.381.365.041.008.43c.01 5.1-.003 15.845-.23 25.483a451.096 451.096 0 0 1-.766 17.23l-.032.487c-.13.022-.234.04-.367.06l.028-.444Zm-1.247-43.076c-.016 5.18-.067 16.93-.235 26.953a695.087 695.087 0 0 1-.466 16.148l-.028.642-.308.025.03-.57c.127-3.11.352-9.233.47-16.25.169-10.072.22-21.89.236-27.027l.002-.355.305.02-.006.414Zm-1.493-.238c.042 4.571.104 13.517.049 21.947-.061 9.125-.258 17.838-.352 21.589l-.011.525-.308.019.014-.446c.093-3.69.294-12.48.355-21.69.055-8.38-.006-17.272-.048-21.865l-.003-.36.301.015.003.266Zm-1.186-.02c.062 5.243.148 14.626.107 23.475-.04 8.233-.216 16.119-.322 20.239l-.009.426-.304.013.012-.499c.107-4.133.28-11.984.32-20.18.042-8.805-.043-18.139-.105-23.395l-.007-.382.304.008.004.295ZM23.506 54.112l-.314-.08-.018-.197a264.993 264.993 0 0 1-.974-16.12c-.27-9.217-.18-20.738-.114-26.163l-.003-.238.305-.051v.24c-.065 5.4-.157 16.962.114 26.205a264.7 264.7 0 0 0 .984 16.212l.02.192Zm-2.048-.622c-.109-.039-.215-.077-.319-.116l-.025-.226c-.462-3.853-1.355-12.177-1.638-21.007-.24-7.47-.033-15.809.107-20.002l.005-.307c.1-.025.202-.05.305-.073l-.004.264c-.14 4.148-.353 12.57-.111 20.11.287 8.954 1.203 17.387 1.657 21.153l.024.204ZM12.86 38.132c-.369-1.796-.584-3.108-.588-3.131l-.052-.787c-.213-2.688-.404-5.7-.448-8.267-.053-3.036-.03-6.071.004-8.342l-.012-.289c.09-.359.203-.712.336-1.057l-.026 1.614a258.3 258.3 0 0 0 0 8.07c.056 3.248.348 7.209.621 10.323l.165 1.867Zm2.627 9.587c-.21-.614-.45-1.338-.698-2.13l-.184-1.061c-.471-2.784-.889-5.74-1.007-8.012-.616-7.55-.647-16.264-.608-20.903l.007-.854c.096-.105.195-.204.296-.297l.002.808c-.044 4.535-.027 13.493.604 21.226.138 2.648.685 6.232 1.247 9.384l.34 1.839Zm1.484 1.588c-.62-3.06-1.386-7.574-1.782-12.735-.616-8.009-.594-17.432-.534-22.095l.007-.963a6.562 6.562 0 0 0-.31.17v.804c-.06 4.672-.08 14.096.535 22.107.395 5.14 1.156 9.642 1.776 12.711l.386 1.822a3.705 3.705 0 0 0 .383.374l-.46-2.195Zm5.467 4.341a183.796 183.796 0 0 1-.983-13.807c-.338-10.152-.363-22.823-.356-28.087l-.003-.256-.305.062.006.223c-.007 5.284.018 17.93.356 28.068.201 6.033.68 11.058.964 13.647l.024.223c.103.033.208.066.314.098l-.017-.171Z"/><path fill="#6D0115" d="M16.016 12.925c-.112.042-.214.083-.308.12l-.006.454c-.101 4.739-.234 14.212.143 20.436.534 8.828 1.64 15.085 2.187 17.772l.05.265c.117.073.249.15.358.212l-.068-.325c-.527-2.547-1.678-8.887-2.225-17.941-.38-6.267-.241-15.835-.14-20.528l.009-.477m7.673-1.85-.306.044.005.254c-.052 4.934-.119 14.694.04 23.239.152 8.124.65 15.533.932 19.201l.036.51.309.062-.033-.45c-.279-3.612-.788-11.104-.942-19.33-.16-8.553-.092-18.327-.04-23.252l-.001-.278Zm1.283-.167-.309.038v.247c-.079 4.024-.195 12.35-.026 20.638.184 9.427.677 18.326.915 22.236l.027.473.31.049-.034-.517c-.237-3.895-.732-12.806-.915-22.247-.17-8.301-.053-16.64.025-20.651l.007-.266Zm1.236-.134-.302.03-.002.251c-.034 4.318-.08 13.397.023 22.205.1 8.542.358 16.987.488 20.854l.018.555c.102.014.204.028.304.04l-.02-.597c-.13-3.862-.387-12.31-.488-20.855-.104-8.849-.057-17.97-.023-22.262l.002-.22Zm2.62-.204-.315.018.008.17.29 43.653.004.523.304.026-.006-.53c-.059-8.73-.238-35.793-.29-43.693l.006-.167Zm1.273-.056-.308.01.007.292.08 43.474-.006.721.169.01.138.002v-.752l-.079-43.455-.001-.303Zm12.48 42.481a258.597 258.597 0 0 0 1.565-20.374c.25-6.78.052-15.874-.078-20.422l-.024-.49c.127.03.25.061.371.091l.018.503c.13 4.589.324 13.598.076 20.33a259.396 259.396 0 0 1-1.564 20.377l-.052.421c-.127.044-.254.086-.382.126l.07-.561Z"/><path fill="#6D0115" d="M44.096 52.459c.354-3.2.974-9.522 1.347-17.408.359-7.572.34-17.349.297-22.532l-.008-.377a33.635 33.635 0 0 0-.366-.104l.01.447c.044 5.17.064 14.968-.295 22.55a284.76 284.76 0 0 1-1.358 17.51l-.068.57.377-.173.065-.483Zm1.112-.702c.427-2.863 1.009-7.544 1.339-13.524.49-8.894.58-20.24.594-25.313l-.008-.336a27.3 27.3 0 0 0-.359-.122l.005.34c-.014 5.01-.1 16.456-.594 25.411-.343 6.223-.96 11.035-1.39 13.847l-.083.552c.133-.066.265-.134.396-.204l.1-.651Zm3.173-3.71s.325-.897.727-2.18l.152-.997a170.136 170.136 0 0 0 1.363-11.906c.46-5.952.36-13.202.232-17.567l-.028-.823a5.028 5.028 0 0 0-.38-.351l.03.67c.134 4.283.262 11.866-.216 18.044a171.156 171.156 0 0 1-1.599 13.433l-.28 1.676Z"/><path fill="#1A1A1A" d="M22.768 35.035v-3.141h-2.694l.01-7.906h3.517l-.019-3.174h-7.311l.66 24.296h3.213l-.07-10.075h2.694Zm2.084-14.222.406 24.297h3.318l.067-24.297h-3.791ZM46.158 45.11l.681-21.236h2.6l-.02-3.06h-9.016v3.064h2.62l-.075 21.232h3.21ZM33.646 32.058l.036-8.253h1.852c.84 1.838 1.38 4.27 1.803 8.253h-3.691Zm-2.96 13.051h3.071l.034-10.047h3.68c.29 1.774.36 7.248.378 10.047h2.979c.28-12.404-.593-19.415-3.005-24.296h-7.418l.281 24.296Z"/><path fill="url(#d)" d="M23.161 31.459h-2.7l.01-7.906h3.525l-.019-3.175h-7.33l.664 24.297h3.22l-.07-10.076h2.7v-3.14Z"/><path fill="url(#e)" d="M29.051 20.378h-3.8l.407 24.297h3.326l.067-24.297Z"/><path fill="url(#f)" d="M43.392 44.675h3.218l.683-21.236h2.605l-.02-3.06H40.84v3.064h2.627l-.075 21.232Z"/><path fill="url(#g)" d="m34.066 31.623.036-8.253h1.857c.842 1.838 1.383 4.269 1.807 8.253h-3.7ZM31.1 44.674h3.08l.033-10.047h3.69c.29 1.774.36 7.248.378 10.047h2.986c.282-12.404-.593-19.415-3.012-24.296h-7.437l.282 24.296Z"/></g><defs><radialGradient id="c" cx="0" cy="0" r="1" gradientTransform="matrix(21.261 0 0 22.7259 32 32.741)" gradientUnits="userSpaceOnUse"><stop stop-color="#E60A47"/><stop offset="1" stop-color="#7C0626"/></radialGradient><radialGradient id="d" cx="0" cy="0" r="1" gradientTransform="matrix(23.1638 0 0 20.0985 33.275 32.528)" gradientUnits="userSpaceOnUse"><stop stop-color="#D3D1D2"/><stop offset=".5" stop-color="#C9C7C8"/><stop offset="1" stop-color="#8D8B8C"/></radialGradient><radialGradient id="e" cx="0" cy="0" r="1" gradientTransform="matrix(23.1638 0 0 20.0985 33.275 32.528)" gradientUnits="userSpaceOnUse"><stop stop-color="#D3D1D2"/><stop offset=".5" stop-color="#C9C7C8"/><stop offset="1" stop-color="#8D8B8C"/></radialGradient><radialGradient id="f" cx="0" cy="0" r="1" gradientTransform="matrix(23.1638 0 0 20.0985 33.275 32.528)" gradientUnits="userSpaceOnUse"><stop stop-color="#D3D1D2"/><stop offset=".5" stop-color="#C9C7C8"/><stop offset="1" stop-color="#8D8B8C"/></radialGradient><radialGradient id="g" cx="0" cy="0" r="1" gradientTransform="matrix(23.163 0 0 20.0978 33.275 32.527)" gradientUnits="userSpaceOnUse"><stop stop-color="#D3D1D2"/><stop offset=".5" stop-color="#C9C7C8"/><stop offset="1" stop-color="#8D8B8C"/></radialGradient><linearGradient id="b" x1="1.554" x2="31.679" y1="60.857" y2="32.06" gradientUnits="userSpaceOnUse"><stop stop-color="#8C8C8C"/><stop offset=".5" stop-color="#464646"/><stop offset=".75" stop-color="#fff"/><stop offset="1" stop-color="#fff"/></linearGradient><clipPath id="a"><path fill="#fff" d="M0 0h64v64H0z"/></clipPath></defs></svg>