<svg xmlns="http://www.w3.org/2000/svg" width="65" height="24" fill="none"><g clip-path="url(#a)"><path fill="#C9C9CA" d="M32.67.006C14.917.006.686 5.328.686 12c0 6.633 14.349 11.995 31.985 11.995 17.637 0 31.986-5.381 31.986-11.995 0-6.612-14.35-11.993-31.986-11.993Zm31.791 11.067c.012.059.02.118.03.175-.008-.057-.02-.116-.03-.175Z"/><path fill="url(#b)" d="M32.672.485c-17.4 0-31.495 5.143-31.495 11.508 0 6.362 14.095 11.508 31.495 11.508 17.402 0 31.494-5.146 31.494-11.508C64.166 5.629 50.074.485 32.672.485Z"/><path fill="url(#c)" d="M32.815 2.898c14.793 0 27.008 3.615 28.874 8.292-1.246-4.922-13.761-8.788-29.02-8.788-16.083 0-29.12 4.295-29.12 9.595 0 .432.087.856.253 1.273a3.265 3.265 0 0 1-.11-.833c.001-5.268 13.039-9.539 29.123-9.539Z"/><path fill="url(#d)" d="M62.656 10.796c.127.388.192.793.193 1.2 0 5.803-13.512 10.506-30.18 10.506-14.834 0-27.167-3.726-29.704-8.631 1.925 5.098 14.537 9.037 29.824 9.054h.185c16.625-.016 30.088-4.672 30.088-10.416 0-.583-.139-1.156-.406-1.713Z"/><path fill="url(#e)" d="M38.477 13.614a.967.967 0 0 1-.041-.547c.014-.067-.073-.127-.144-.055-.676.705-.726 1.617-.283 2.026.158.147.34.213.534.225-.289-.366-.425-1.083-.066-1.65Z"/><path fill="url(#f)" d="M45.324 14.97c.035-.066.07-.137.107-.212.028-.058.014-.075-.01-.084-.07-.025-.141-.079-.151-.134-.005-.01-.005-.02-.006-.03v.005c.01.107.037.307.06.455Z"/><path fill="url(#g)" d="M46.092 12.21c.225.217.363.48.389.72.01.115.096.127.168.028l.064-.1-.06-.08a6.239 6.239 0 0 0-.561-.567Z"/><path fill="url(#h)" d="M36.73 11.767c.18.248.265.601.253 1.054-.003.117.082.11.138.03l.09-.125v-.003c-.133-.406-.336-.805-.481-.956Z"/><path fill="url(#i)" d="M45.146 12.964c-.558-.267-1.408.224-2.177 1.17-.631.775-.97 1.562-.983 2.33-.004.273.1.611.34.735.075.041.157.07.241.083a1.222 1.222 0 0 1-.042-.309c-.01-.792.237-1.583.869-2.358.764-.942 1.567-1.412 2.125-1.152a.618.618 0 0 0-.373-.499Z"/><path fill="url(#j)" d="M28.477 14.534c.587-.796 1.249-1.098 2.003-1.424.1-.043.112-.1.093-.187a8.483 8.483 0 0 0-.17-.613c.024.082.003.144-.095.181-.856.325-1.714.83-2.308 1.625-.673.902-.854 1.988-.404 2.613.107.146.235.255.376.326-.242-.747-.066-1.749.505-2.521Z"/><path fill="url(#k)" d="M32.786 19.257c.58 0 1.29 0 1.772-.003a.207.207 0 0 0 .16-.098c.72-1.127 1.487-2.35 2.222-3.477.161.569.244.834.544 1.102.305.272.587.344 1.002.347.377.005.75-.146 1.191-.33.15-.063.293-.14.428-.229 0-.209.022-.42.059-.62.003-.021-.018-.16-.137-.078a3.368 3.368 0 0 1-.8.43c-.408.152-.597.21-.975.206-.474-.004-.902-.206-1.202-.675-.168-.254-.238-.64-.254-.924-.002-.03-.043-.086-.087-.015-.798 1.22-1.542 2.397-2.334 3.635-.041.058-.077.096-.159.099-.489 0-1.025-.002-1.563.001-.056 0-.097-.025-.109-.065.043.19.112.532.13.611.012.055.052.083.112.083Z"/><path fill="url(#l)" d="M40.53 18.583c.133.256.432.544.614.634 1.037.512 2.518-.068 3.47-.982.009-.013.01-.014.024-.029l.105.392c.065.212.167.405.256.507.65.736 2.032.401 3.47-.712.804-.621 1.4-1.245 2.13-2.094.029-.036.026-.088.01-.167-.042-.185-.107-.52-.144-.687a.137.137 0 0 1-.028.077c-.762.93-1.605 1.808-2.41 2.429-1.253.97-2.504 1.217-3.122.595a1.341 1.341 0 0 1-.373-.843c-.007-.151-.085-.159-.157-.087-.739.731-2.023 1.541-3.193.964-.603-.297-.918-.856-1.03-1.471 0 .006.002.014.004.02.072.436.167 1.066.373 1.454Z"/><path fill="url(#m)" d="M40.013 14.615c.385-.209.723-.65.68-1.368a2.444 2.444 0 0 0-.292-1.02c.114.216.161.467.121.733-.074.463-.324.87-.75 1.082-.362.177-.784.146-1.08-.118a.855.855 0 0 1-.206-.292c.076.35.142.606.233.744.279.42.761.526 1.294.239Z"/><path fill="url(#n)" d="M51.462 8.56c-.243.42-4.928 7.553-5.224 8.29-.094.234-.105.413-.01.541.097.13.238.179.398.176.017-.09.051-.191.094-.298.296-.74 4.683-7.409 4.924-7.83.02-.037.013-.077.007-.104l-.176-.842a.096.096 0 0 1-.013.067Z"/><path fill="url(#o)" d="M32.017 11.88c.013.014.024.029.036.044.282.42.436 1.01.451 1.62.017.129.072.132.134.066.057-.058.113-.12.168-.18a5.12 5.12 0 0 0-.342-.906c-.049-.103-.263-.47-.447-.645Z"/><path fill="url(#p)" d="M24.455 18.546c.086.043.174.004.216-.02.286-.146.842-.574 1.082-.872.073-.068.143-.022.166.05.1.318.247.562.411.823.18.29.539.59 1.005.718.603.169 1.254.199 2.109-.128.686-.262 1.405-.797 1.957-1.398.664-.72.904-1.181 1.155-1.496.43-.533 1.1-1.476 2.038-2.277.329-.28.688-.463.914-.374.136-.35.071-.543-.073-.636-.22-.143-.659.072-1.03.355-1.01.765-1.86 1.958-2.29 2.491-.253.314-.492.777-1.155 1.496-1.041 1.13-2.422 1.78-3.754 1.332a2.253 2.253 0 0 1-1.453-1.547c-.04-.14-.118-.178-.194-.086-.215.268-.655.663-1.022.912-.04.029-.14.088-.225.045-.077-.035-.35-.42-.403-.531a.107.107 0 0 1-.014-.037v.005c.096.474.108.53.238.748.147.242.29.414.322.427Z"/><path fill="url(#q)" d="M16.424 14.286c.336-.678.81-1.002 1.275-1.296.2-.127.289-.25.17-.58-.034-.094-.053-.264-.09-.414a.343.343 0 0 1-.191.34c-.568.29-1.253.787-1.59 1.465-.275.553-.33 1.221.088 1.856.035.05.073.102.115.149-.134-.527.01-1.095.223-1.52Z"/><path fill="url(#r)" d="M22.242 6.052c2.067-.682 4.37-.25 6.22.145.259-.161.486-.273.712-.397.113-.06-.013-.13-.048-.13-2.389-.448-4.87-1.03-7.242-.152-1.643.614-2.364 1.917-2.016 2.787a.818.818 0 0 0 .31.386c-.116-.802.486-2.117 2.064-2.64Z"/><path fill="url(#s)" d="M15.521 18.54c.678.478 1.345.636 2.123.65 1.58.027 3.024-.625 4.554-2.179 1.47-1.491 2.742-3.576 3.997-5.641.041-.073.086-.105.296-.133.787-.097 1.492-.142 2.187-.207.207-.02.365-.038.44.037.252.25.544.48.737.593.128.001.236.03.312.097a.375.375 0 0 0 .203-.102c.09-.088.093-.192.079-.28-.032-.17-.078-.51-.133-.607.038.074.014.18-.061.265a.33.33 0 0 1-.25.12c-.091-.002-.145-.033-.258-.095a2.414 2.414 0 0 1-.719-.578c-.065-.082-.1-.084-.265-.075-.743.043-1.903.155-2.69.254-.19.023-.217.059-.257.124-1.253 2.067-2.59 4.295-4.06 5.786-1.575 1.6-2.885 2.02-4.275 2.031-1.604.011-3.031-.898-3.393-2.494.195.893.77 1.966 1.434 2.434Z"/><path fill="url(#t)" d="M21.447 11.597a.34.34 0 0 1-.055-.18c-.017.268.091.662.178.793.095.147.363.22.575.06.48-.352.913-.558 1.397-.65l.412-.57c.014-.017.017-.04.012-.05-.009-.02-.024-.025-.055-.027a3.25 3.25 0 0 0-1.932.682c-.173.126-.423.108-.532-.058Z"/><path fill="url(#u)" d="M40.773 6.757c-.993.545-2.031.71-3.117.719-2.623.021-5.068-1.001-7.597-1.55.004.11.033.242-.06.312-1.4 1.033-2.667 2.083-3.516 3.556-.028.034-.012.066.037.063.224-.01.44-.02.653-.033.773-1.21 1.6-1.904 2.862-2.835.094-.072.189-.122.158-.391 2.536.563 4.465 1.496 7.741 1.505.978.003 2.356-.323 3.098-.769.852-.513 1.079-.89 1.11-1.288.01-.124-.024-.31-.044-.404-.029-.135-.048-.308-.086-.436a.553.553 0 0 1 .014.176c-.026.458-.38.899-1.253 1.375Z"/><path fill="url(#v)" d="M29.813 8.467c-.031.03-.067.06-.101.092-.25.259-.327.602-.29.862.02.105.061.126.11.117a.889.889 0 0 0 .144-.046.626.626 0 0 1 .222-.409.435.435 0 0 1 .348-.117c.097-.19.124-.421.006-.524-.113-.098-.293-.08-.44.025Z"/><path fill="url(#w)" d="M30.822 9.365c-.241.46-.638.705-1.019.824 0 0-.08.019-.067.091.009.082.279.253.447.373.025-.006.062-.02.062-.02.195-.077.52-.276.709-.688.12-.266.186-.475.134-.93-.038-.32-.102-.607-.188-.755.165.333.1.761-.078 1.105Z"/><path fill="url(#x)" d="M23.772 7.721c-.694 1.631-2.02 2.925-3.634 2.979-.904.03-1.595-.396-1.962-1.045.268.484.723.91 1.127 1.164.35.218.782.34 1.275.323 1.683-.057 2.958-1.444 3.38-2.616.114-.316.026-.654-.026-.883-.022-.088-.05-.287-.115-.43.047.118.047.29-.045.508Z"/><path fill="#4B4B4B" d="M32.67.006C14.917.006.686 5.328.686 12c0 6.633 14.349 11.995 31.985 11.995 17.637 0 31.986-5.381 31.986-11.995 0-6.612-14.35-11.993-31.986-11.993ZM.905 12.132C.9 10.728 1.518 9.334 2.82 8.02 7.397 3.4 19.395.28 32.617.226c17.516-.073 31.79 5.15 31.82 11.643.007 1.404-.649 2.78-1.95 4.091-4.58 4.62-16.54 7.761-29.761 7.814C15.21 23.847.936 18.625.906 12.132Zm63.556-1.059c.012.059.02.118.03.175-.008-.057-.02-.116-.03-.175Z"/><path fill="url(#y)" d="M.783 12c0 .313.037.624.1.93a4.517 4.517 0 0 1-.077-.797C.8 10.71 1.436 9.274 2.748 7.95 7.352 3.306 19.362.18 32.618.126a84.035 84.035 0 0 1 5.39.148A85.253 85.253 0 0 0 32.67.106C14.989.106.783 5.408.783 12Z"/><path fill="url(#z)" d="M62.558 16.034c-4.588 4.627-16.595 7.785-29.832 7.84-1.832.009-3.663-.04-5.492-.15 1.766.113 3.584.17 5.437.17 17.582 0 31.886-5.368 31.886-11.89 0-.25-.023-.497-.063-.742.029.201.042.405.044.61.007 1.422-.668 2.838-1.98 4.162Z"/><path fill="#fff" d="M32.67 1.492C16 1.492 2.486 6.194 2.486 11.997c0 5.802 13.513 10.505 30.182 10.505 16.668 0 30.18-4.703 30.18-10.505 0-5.803-13.512-10.505-30.18-10.505Zm0 20.1c-16.085 0-29.122-4.295-29.122-9.595 0-5.3 13.037-9.595 29.121-9.595 16.085 0 29.12 4.295 29.12 9.595 0 5.3-13.035 9.595-29.12 9.595Z"/><path fill="#fff" d="M51.462 8.56c.041-.073-.002-.127-.094-.127l-1.617.002c-.12 0-.18.013-.237.125-.186.355-2.445 3.74-2.865 4.397-.072.1-.159.087-.169-.027-.041-.39-.379-.84-.91-1.054a2.306 2.306 0 0 0-1.212-.14c-.743.1-1.404.493-1.987.934-.877.668-1.634 1.531-2.61 2.17-.533.347-1.264.65-1.752.198-.443-.41-.392-1.32.284-2.026.07-.072.157-.012.143.055-.064.32.014.636.256.857.296.264.718.295 1.08.118.426-.21.676-.62.75-1.082.113-.72-.44-1.353-1.134-1.404-.562-.04-1.1.156-1.626.59a3.099 3.099 0 0 0-.64.704c-.057.08-.142.088-.139-.03.026-.92-.354-1.437-1.115-1.454-.59-.015-1.221.307-1.713.698-.54.432-1.01 1.006-1.517 1.545-.062.066-.117.063-.134-.065-.015-.61-.169-1.201-.45-1.62a.376.376 0 0 0-.487-.12c-.082.044-.365.175-.573.342-.101.084-.14.206-.097.362a4.268 4.268 0 0 1-.157 2.823c-.338.8-.998 1.524-1.773 1.767-.51.162-1.042.083-1.37-.37-.45-.625-.27-1.71.404-2.613.593-.795 1.452-1.3 2.308-1.625.1-.04.122-.104.093-.19-.047-.14-.12-.331-.151-.418-.079-.209-.3-.244-.568-.214-.622.072-1.183.285-1.737.582-1.452.777-2.18 2.281-2.499 3.087-.153.387-.285.627-.455.842-.23.288-.516.55-1.042 1.01a.186.186 0 0 0-.042.214c.054.11.327.496.403.53.086.043.185-.016.226-.044.367-.25.807-.644 1.022-.913.075-.091.153-.052.193.086.2.718.727 1.303 1.454 1.547 1.331.448 2.712-.2 3.754-1.331.662-.72.901-1.183 1.155-1.496.43-.534 1.28-1.727 2.29-2.492.37-.282.81-.497 1.03-.354.177.115.234.38-.05.898-1.03 1.882-2.547 4.094-2.826 4.628-.05.094-.006.167.091.167.54-.002 1.075-.001 1.564-.001.081-.004.117-.041.158-.099.792-1.238 1.536-2.416 2.334-3.634.045-.071.086-.016.088.014.016.284.086.67.253.924.301.47.729.671 1.203.675.377.004.567-.053.974-.206.285-.107.554-.251.8-.43.12-.082.14.057.137.079-.182.982.042 2.147 1.02 2.63 1.17.576 2.454-.234 3.192-.965.073-.07.15-.064.158.087.014.281.142.612.373.843.618.621 1.868.375 3.121-.595.806-.621 1.648-1.5 2.41-2.429.027-.036.05-.095-.005-.152-.115-.121-.283-.26-.399-.367-.052-.044-.129-.031-.174.002-.78.741-1.481 1.588-2.497 2.287-.342.24-.887.432-1.133.101-.095-.128-.084-.308.01-.54.297-.74 4.982-7.873 5.225-8.293Zm-6.192 5.98c.01.056.08.108.151.134.024.01.038.026.01.084-.198.427-.382.673-.632 1.044-.228.343-.488.61-.8.868-.473.39-1.13.815-1.672.53-.24-.125-.345-.462-.34-.736.013-.767.353-1.555.983-2.33.769-.946 1.619-1.437 2.177-1.17.576.276.392.944.134 1.47a.135.135 0 0 0-.011.107Z"/><path fill="#fff" d="M17.482 18.601c-1.747.013-3.285-1.068-3.462-2.936a3.775 3.775 0 0 1 .781-2.719c.52-.678 1.4-1.24 2.144-1.378.244-.044.569-.015.704.145.21.246.15.516-.06.623-.569.29-1.253.787-1.59 1.465-.275.553-.33 1.221.087 1.856.703 1.058 2.658 1.088 4.475-.601.45-.414.854-.811 1.264-1.28.8-.917 1.066-1.251 2.13-2.727.014-.017.018-.039.012-.05-.008-.02-.024-.025-.055-.026-.71.02-1.33.232-1.932.681-.173.126-.423.108-.532-.058-.121-.188-.034-.433.166-.57.968-.674 2.026-.797 3.107-.98 0 0 .076.004.137-.078.443-.569.778-1.082 1.252-1.659.476-.584 1.091-1.119 1.562-1.523.656-.565 1.077-.754 1.505-.987.113-.06-.014-.13-.049-.13-2.388-.448-4.87-1.03-7.242-.152-1.643.614-2.364 1.917-2.016 2.787.245.617 1.058.717 1.818.346a4.114 4.114 0 0 0 1.63-1.45c.231-.357.72-.1.456.52-.694 1.631-2.02 2.925-3.635 2.978-1.375.046-2.262-.965-2.258-2.213.004-2.461 2.745-4.082 5.623-4.325 3.468-.286 6.752.638 10.193 1.056 2.638.318 5.167.325 7.818-.284.313-.068.534.132.512.449-.026.457-.38.898-1.253 1.374-.993.545-2.03.71-3.116.72-2.624.02-5.069-1.002-7.597-1.551.003.11.032.243-.06.312C28.6 7.27 27.332 8.32 26.484 9.792c-.028.035-.013.066.037.063.736-.039 1.399-.057 2.085-.112.12-.01.125-.04.115-.128-.06-.508.087-1.087.534-1.486.457-.41 1.03-.456 1.409-.162.431.337.393.942.158 1.396-.24.46-.638.705-1.018.825 0 0-.08.018-.068.09.015.116.534.404.578.48.043.073.021.186-.059.273a.33.33 0 0 1-.25.12c-.09-.002-.144-.033-.257-.095a2.422 2.422 0 0 1-.719-.578c-.066-.082-.1-.084-.265-.075-.743.043-1.903.155-2.69.253-.19.024-.217.06-.257.124-1.253 2.068-2.59 4.296-4.06 5.787-1.576 1.603-2.886 2.023-4.276 2.034Zm11.94-9.18c.02.105.061.125.11.116.238-.047.498-.244.654-.47.14-.207.207-.505.067-.625-.125-.107-.328-.076-.48.057-.298.265-.39.64-.351.921Z"/></g><defs><linearGradient id="c" x1="32.613" x2="32.613" y1="24.258" y2="-.107" gradientUnits="userSpaceOnUse"><stop stop-color="#00082E"/><stop offset=".321" stop-color="#010A30"/><stop offset=".501" stop-color="#030F39"/><stop offset=".647" stop-color="#071846"/><stop offset=".773" stop-color="#0D245A"/><stop offset=".809" stop-color="#0F2961"/><stop offset=".839" stop-color="#0B386E"/><stop offset=".896" stop-color="#054E83"/><stop offset=".951" stop-color="#015B90"/><stop offset="1" stop-color="#006094"/></linearGradient><linearGradient id="d" x1="5816.65" x2="5816.65" y1="24.263" y2="-.123" gradientUnits="userSpaceOnUse"><stop stop-color="#00082E"/><stop offset=".321" stop-color="#010A30"/><stop offset=".501" stop-color="#030F39"/><stop offset=".647" stop-color="#071846"/><stop offset=".773" stop-color="#0D245A"/><stop offset=".809" stop-color="#0F2961"/><stop offset=".839" stop-color="#0B386E"/><stop offset=".896" stop-color="#054E83"/><stop offset=".951" stop-color="#015B90"/><stop offset="1" stop-color="#006094"/></linearGradient><linearGradient id="e" x1="38.133" x2="38.133" y1="20.127" y2="3.008" gradientUnits="userSpaceOnUse"><stop stop-color="#00082E"/><stop offset=".321" stop-color="#010A30"/><stop offset=".501" stop-color="#030F39"/><stop offset=".647" stop-color="#071846"/><stop offset=".773" stop-color="#0D245A"/><stop offset=".809" stop-color="#0F2961"/><stop offset=".839" stop-color="#0B386E"/><stop offset=".896" stop-color="#054E83"/><stop offset=".951" stop-color="#015B90"/><stop offset="1" stop-color="#006094"/></linearGradient><linearGradient id="f" x1="45.359" x2="45.359" y1="20.1" y2="3.094" gradientUnits="userSpaceOnUse"><stop stop-color="#00082E"/><stop offset=".321" stop-color="#010A30"/><stop offset=".501" stop-color="#030F39"/><stop offset=".647" stop-color="#071846"/><stop offset=".773" stop-color="#0D245A"/><stop offset=".809" stop-color="#0F2961"/><stop offset=".839" stop-color="#0B386E"/><stop offset=".896" stop-color="#054E83"/><stop offset=".951" stop-color="#015B90"/><stop offset="1" stop-color="#006094"/></linearGradient><linearGradient id="g" x1="46.407" x2="46.407" y1="20.051" y2="3.128" gradientUnits="userSpaceOnUse"><stop stop-color="#00082E"/><stop offset=".321" stop-color="#010A30"/><stop offset=".501" stop-color="#030F39"/><stop offset=".647" stop-color="#071846"/><stop offset=".773" stop-color="#0D245A"/><stop offset=".809" stop-color="#0F2961"/><stop offset=".839" stop-color="#0B386E"/><stop offset=".896" stop-color="#054E83"/><stop offset=".951" stop-color="#015B90"/><stop offset="1" stop-color="#006094"/></linearGradient><linearGradient id="h" x1="36.968" x2="36.968" y1="20.164" y2="3.005" gradientUnits="userSpaceOnUse"><stop stop-color="#00082E"/><stop offset=".321" stop-color="#010A30"/><stop offset=".501" stop-color="#030F39"/><stop offset=".647" stop-color="#071846"/><stop offset=".773" stop-color="#0D245A"/><stop offset=".809" stop-color="#0F2961"/><stop offset=".839" stop-color="#0B386E"/><stop offset=".896" stop-color="#054E83"/><stop offset=".951" stop-color="#015B90"/><stop offset="1" stop-color="#006094"/></linearGradient><linearGradient id="i" x1="43.755" x2="43.755" y1="20.124" y2="3.032" gradientUnits="userSpaceOnUse"><stop stop-color="#00082E"/><stop offset=".321" stop-color="#010A30"/><stop offset=".501" stop-color="#030F39"/><stop offset=".647" stop-color="#071846"/><stop offset=".773" stop-color="#0D245A"/><stop offset=".809" stop-color="#0F2961"/><stop offset=".839" stop-color="#0B386E"/><stop offset=".896" stop-color="#054E83"/><stop offset=".951" stop-color="#015B90"/><stop offset="1" stop-color="#006094"/></linearGradient><linearGradient id="j" x1="28.973" x2="28.973" y1="20.112" y2="3.038" gradientUnits="userSpaceOnUse"><stop stop-color="#00082E"/><stop offset=".321" stop-color="#010A30"/><stop offset=".501" stop-color="#030F39"/><stop offset=".647" stop-color="#071846"/><stop offset=".773" stop-color="#0D245A"/><stop offset=".809" stop-color="#0F2961"/><stop offset=".839" stop-color="#0B386E"/><stop offset=".896" stop-color="#054E83"/><stop offset=".951" stop-color="#015B90"/><stop offset="1" stop-color="#006094"/></linearGradient><linearGradient id="k" x1="36.351" x2="36.351" y1="20.124" y2="3.02" gradientUnits="userSpaceOnUse"><stop stop-color="#00082E"/><stop offset=".321" stop-color="#010A30"/><stop offset=".501" stop-color="#030F39"/><stop offset=".647" stop-color="#071846"/><stop offset=".773" stop-color="#0D245A"/><stop offset=".809" stop-color="#0F2961"/><stop offset=".839" stop-color="#0B386E"/><stop offset=".896" stop-color="#054E83"/><stop offset=".951" stop-color="#015B90"/><stop offset="1" stop-color="#006094"/></linearGradient><linearGradient id="l" x1="45.396" x2="45.396" y1="20.165" y2="2.931" gradientUnits="userSpaceOnUse"><stop stop-color="#00082E"/><stop offset=".321" stop-color="#010A30"/><stop offset=".501" stop-color="#030F39"/><stop offset=".647" stop-color="#071846"/><stop offset=".773" stop-color="#0D245A"/><stop offset=".809" stop-color="#0F2961"/><stop offset=".839" stop-color="#0B386E"/><stop offset=".896" stop-color="#054E83"/><stop offset=".951" stop-color="#015B90"/><stop offset="1" stop-color="#006094"/></linearGradient><linearGradient id="m" x1="39.587" x2="39.587" y1="20.18" y2="2.99" gradientUnits="userSpaceOnUse"><stop stop-color="#00082E"/><stop offset=".321" stop-color="#010A30"/><stop offset=".501" stop-color="#030F39"/><stop offset=".647" stop-color="#071846"/><stop offset=".773" stop-color="#0D245A"/><stop offset=".809" stop-color="#0F2961"/><stop offset=".839" stop-color="#0B386E"/><stop offset=".896" stop-color="#054E83"/><stop offset=".951" stop-color="#015B90"/><stop offset="1" stop-color="#006094"/></linearGradient><linearGradient id="n" x1="48.905" x2="48.905" y1="20.13" y2="3.051" gradientUnits="userSpaceOnUse"><stop stop-color="#00082E"/><stop offset=".321" stop-color="#010A30"/><stop offset=".501" stop-color="#030F39"/><stop offset=".647" stop-color="#071846"/><stop offset=".773" stop-color="#0D245A"/><stop offset=".809" stop-color="#0F2961"/><stop offset=".839" stop-color="#0B386E"/><stop offset=".896" stop-color="#054E83"/><stop offset=".951" stop-color="#015B90"/><stop offset="1" stop-color="#006094"/></linearGradient><linearGradient id="o" x1="32.413" x2="32.413" y1="20.14" y2="3.016" gradientUnits="userSpaceOnUse"><stop stop-color="#00082E"/><stop offset=".321" stop-color="#010A30"/><stop offset=".501" stop-color="#030F39"/><stop offset=".647" stop-color="#071846"/><stop offset=".773" stop-color="#0D245A"/><stop offset=".809" stop-color="#0F2961"/><stop offset=".839" stop-color="#0B386E"/><stop offset=".896" stop-color="#054E83"/><stop offset=".951" stop-color="#015B90"/><stop offset="1" stop-color="#006094"/></linearGradient><linearGradient id="p" x1="29.746" x2="29.746" y1="20.127" y2="3.046" gradientUnits="userSpaceOnUse"><stop stop-color="#00082E"/><stop offset=".321" stop-color="#010A30"/><stop offset=".501" stop-color="#030F39"/><stop offset=".647" stop-color="#071846"/><stop offset=".773" stop-color="#0D245A"/><stop offset=".809" stop-color="#0F2961"/><stop offset=".839" stop-color="#0B386E"/><stop offset=".896" stop-color="#054E83"/><stop offset=".951" stop-color="#015B90"/><stop offset="1" stop-color="#006094"/></linearGradient><linearGradient id="q" x1="16.85" x2="16.85" y1="20.132" y2="3.04" gradientUnits="userSpaceOnUse"><stop stop-color="#00082E"/><stop offset=".321" stop-color="#010A30"/><stop offset=".501" stop-color="#030F39"/><stop offset=".647" stop-color="#071846"/><stop offset=".773" stop-color="#0D245A"/><stop offset=".809" stop-color="#0F2961"/><stop offset=".839" stop-color="#0B386E"/><stop offset=".896" stop-color="#054E83"/><stop offset=".951" stop-color="#015B90"/><stop offset="1" stop-color="#006094"/></linearGradient><linearGradient id="r" x1="24.501" x2="24.501" y1="20.229" y2="2.975" gradientUnits="userSpaceOnUse"><stop stop-color="#00082E"/><stop offset=".321" stop-color="#010A30"/><stop offset=".501" stop-color="#030F39"/><stop offset=".647" stop-color="#071846"/><stop offset=".773" stop-color="#0D245A"/><stop offset=".809" stop-color="#0F2961"/><stop offset=".839" stop-color="#0B386E"/><stop offset=".896" stop-color="#054E83"/><stop offset=".951" stop-color="#015B90"/><stop offset="1" stop-color="#006094"/></linearGradient><linearGradient id="s" x1="22.271" x2="22.271" y1="20.129" y2="3.032" gradientUnits="userSpaceOnUse"><stop stop-color="#00082E"/><stop offset=".321" stop-color="#010A30"/><stop offset=".501" stop-color="#030F39"/><stop offset=".647" stop-color="#071846"/><stop offset=".773" stop-color="#0D245A"/><stop offset=".809" stop-color="#0F2961"/><stop offset=".839" stop-color="#0B386E"/><stop offset=".896" stop-color="#054E83"/><stop offset=".951" stop-color="#015B90"/><stop offset="1" stop-color="#006094"/></linearGradient><linearGradient id="t" x1="22.68" x2="22.68" y1="20.169" y2="3.013" gradientUnits="userSpaceOnUse"><stop stop-color="#00082E"/><stop offset=".321" stop-color="#010A30"/><stop offset=".501" stop-color="#030F39"/><stop offset=".647" stop-color="#071846"/><stop offset=".773" stop-color="#0D245A"/><stop offset=".809" stop-color="#0F2961"/><stop offset=".839" stop-color="#0B386E"/><stop offset=".896" stop-color="#054E83"/><stop offset=".951" stop-color="#015B90"/><stop offset="1" stop-color="#006094"/></linearGradient><linearGradient id="u" x1="34.31" x2="34.31" y1="20.14" y2="3.031" gradientUnits="userSpaceOnUse"><stop stop-color="#00082E"/><stop offset=".321" stop-color="#010A30"/><stop offset=".501" stop-color="#030F39"/><stop offset=".647" stop-color="#071846"/><stop offset=".773" stop-color="#0D245A"/><stop offset=".809" stop-color="#0F2961"/><stop offset=".839" stop-color="#0B386E"/><stop offset=".896" stop-color="#054E83"/><stop offset=".951" stop-color="#015B90"/><stop offset="1" stop-color="#006094"/></linearGradient><linearGradient id="v" x1="29.866" x2="29.866" y1="20.144" y2="3.028" gradientUnits="userSpaceOnUse"><stop stop-color="#00082E"/><stop offset=".321" stop-color="#010A30"/><stop offset=".501" stop-color="#030F39"/><stop offset=".647" stop-color="#071846"/><stop offset=".773" stop-color="#0D245A"/><stop offset=".809" stop-color="#0F2961"/><stop offset=".839" stop-color="#0B386E"/><stop offset=".896" stop-color="#054E83"/><stop offset=".951" stop-color="#015B90"/><stop offset="1" stop-color="#006094"/></linearGradient><linearGradient id="w" x1="30.428" x2="30.428" y1="20.13" y2="3.04" gradientUnits="userSpaceOnUse"><stop stop-color="#00082E"/><stop offset=".321" stop-color="#010A30"/><stop offset=".501" stop-color="#030F39"/><stop offset=".647" stop-color="#071846"/><stop offset=".773" stop-color="#0D245A"/><stop offset=".809" stop-color="#0F2961"/><stop offset=".839" stop-color="#0B386E"/><stop offset=".896" stop-color="#054E83"/><stop offset=".951" stop-color="#015B90"/><stop offset="1" stop-color="#006094"/></linearGradient><linearGradient id="x" x1="21.098" x2="21.098" y1="20.164" y2="3.034" gradientUnits="userSpaceOnUse"><stop stop-color="#00082E"/><stop offset=".321" stop-color="#010A30"/><stop offset=".501" stop-color="#030F39"/><stop offset=".647" stop-color="#071846"/><stop offset=".773" stop-color="#0D245A"/><stop offset=".809" stop-color="#0F2961"/><stop offset=".839" stop-color="#0B386E"/><stop offset=".896" stop-color="#054E83"/><stop offset=".951" stop-color="#015B90"/><stop offset="1" stop-color="#006094"/></linearGradient><linearGradient id="y" x1="25.664" x2="18.272" y1="29.734" y2="2.146" gradientUnits="userSpaceOnUse"><stop stop-color="#A5A5A6"/><stop offset=".35" stop-color="#D7D7D7"/><stop offset=".65" stop-color="#D7D7D7"/><stop offset="1" stop-color="#A5A5A6"/></linearGradient><linearGradient id="z" x1="45.057" x2="37.681" y1="14.48" y2="-13.047" gradientUnits="userSpaceOnUse"><stop stop-color="#A5A5A6"/><stop offset=".35" stop-color="#D7D7D7"/><stop offset=".65" stop-color="#D7D7D7"/><stop offset="1" stop-color="#A5A5A6"/></linearGradient><radialGradient id="b" cx="0" cy="0" r="1" gradientTransform="matrix(137.82 0 0 69.9987 32.46 39.58)" gradientUnits="userSpaceOnUse"><stop stop-color="#00082E"/><stop offset=".155" stop-color="#000A30"/><stop offset=".242" stop-color="#010F39"/><stop offset=".312" stop-color="#011946"/><stop offset=".373" stop-color="#02275A"/><stop offset=".414" stop-color="#03346C"/><stop offset=".439" stop-color="#0B4F87"/><stop offset=".48" stop-color="#1676AF"/><stop offset=".513" stop-color="#1C8EC7"/><stop offset=".533" stop-color="#1F97D0"/><stop offset="1" stop-color="#1F97D0"/></radialGradient><clipPath id="a"><path fill="#fff" d="M.672.006h64v23.987h-64z"/></clipPath></defs></svg>