<!-- Generated by IcoMoon.io -->
<svg version="1.1" xmlns="http://www.w3.org/2000/svg" width="32" height="32" viewBox="0 0 32 32">
<title>getting</title>
<path fill="#fbed1f" d="M15.373 0.157c8.403 0 15.216 6.812 15.216 15.216s-6.812 15.216-15.216 15.216c-8.403 0-15.216-6.812-15.216-15.216s6.812-15.216 15.216-15.216z"></path>
<path fill="#3da9f4" d="M11.649 20.185l-3.335-3.401 0.941-0.941 2.51 1.569 7.216-7.529 0.941 0.627-7.325 9.617c-0.116 0.151-0.296 0.247-0.499 0.247-0.175 0-0.334-0.072-0.448-0.188l-0-0z"></path>
<path fill="#3da9f4" opacity="0.497" d="M22.431 12.706h-1.569c-0.173 0-0.314-0.14-0.314-0.314s0.14-0.314 0.314-0.314v0h1.569c0.173 0 0.314 0.14 0.314 0.314s-0.14 0.314-0.314 0.314v0zM22.431 15.529h-3.765c-0.173 0-0.314-0.14-0.314-0.314s0.14-0.314 0.314-0.314v0h3.765c0.173 0 0.314 0.14 0.314 0.314s-0.14 0.314-0.314 0.314v0zM22.431 18.353h-5.961c-0.173 0-0.314-0.14-0.314-0.314s0.14-0.314 0.314-0.314v0h5.961c0.173 0 0.314 0.14 0.314 0.314s-0.14 0.314-0.314 0.314v0zM22.431 21.176h-8.157c-0.173 0-0.314-0.14-0.314-0.314s0.14-0.314 0.314-0.314v0h8.157c0.173 0 0.314 0.14 0.314 0.314s-0.14 0.314-0.314 0.314v0z"></path>
</svg>
