<svg xmlns="http://www.w3.org/2000/svg" width="101" height="102" fill="none"><g filter="url(#a)"><rect width="97" height="97" y=".5" fill="#FBED1F" rx="48.5"/></g><path fill="#3DA9F4" fill-rule="evenodd" d="M36.631 64.341 26 53.5l3-3 8 5 23-24 3 2-23.35 30.653a2 2 0 0 1-3.019.188Z" clip-rule="evenodd"/><path fill="#3DA9F4" fill-rule="evenodd" d="M71 40.5h-5a1 1 0 1 1 0-2h5a1 1 0 1 1 0 2ZM71 49.5H59a1 1 0 1 1 0-2h12a1 1 0 1 1 0 2ZM71 58.5H52a1 1 0 1 1 0-2h19a1 1 0 1 1 0 2ZM71 67.5H45a1 1 0 1 1 0-2h26a1 1 0 1 1 0 2Z" clip-rule="evenodd" opacity=".497"/><defs><filter id="a" width="101" height="101" x="0" y=".5" color-interpolation-filters="sRGB" filterUnits="userSpaceOnUse"><feFlood flood-opacity="0" result="BackgroundImageFix"/><feColorMatrix in="SourceAlpha" result="hardAlpha" values="0 0 0 0 0 0 0 0 0 0 0 0 0 0 0 0 0 0 127 0"/><feOffset dx="4" dy="4"/><feComposite in2="hardAlpha" operator="out"/><feColorMatrix values="0 0 0 0 0.239216 0 0 0 0 0.662745 0 0 0 0 0.956863 0 0 0 1 0"/><feBlend in2="BackgroundImageFix" result="effect1_dropShadow_84_8053"/><feBlend in="SourceGraphic" in2="effect1_dropShadow_84_8053" result="shape"/></filter></defs></svg>