<!-- Generated by IcoMoon.io -->
<svg version="1.1" xmlns="http://www.w3.org/2000/svg" width="32" height="32" viewBox="0 0 32 32">
<title>hodova</title>
<path fill="#fbed1f" d="M0 13.333h18.667v18.667h-18.667v-18.667z"></path>
<path fill="none" stroke="#576d7e" stroke-linejoin="miter" stroke-linecap="butt" stroke-miterlimit="4" stroke-width="0.6667" d="M10.5 6.5h11.074M10.5 26.5h4.89M16.531 26.5h4.969M16 25.875v-19.375"></path>
<path fill="#34485c" d="M8 3h2c0.554 0 1 0.39 1 0.875v5.25c0 0.485-0.446 0.875-1 0.875h-2c-0.554 0-1-0.39-1-0.875v-5.25c0-0.485 0.446-0.875 1-0.875zM8 23h2c0.554 0 1 0.39 1 0.875v5.25c0 0.485-0.446 0.875-1 0.875h-2c-0.554 0-1-0.39-1-0.875v-5.25c0-0.485 0.446-0.875 1-0.875zM22.326 2.923l1.991 0.184c0.552 0.051 0.96 0.48 0.916 0.963l-0.483 5.228c-0.044 0.483-0.524 0.83-1.076 0.78l-1.992-0.185c-0.551-0.050-0.96-0.48-0.915-0.963l0.483-5.228c0.044-0.482 0.524-0.83 1.076-0.779zM22 23h2c0.554 0 1 0.39 1 0.875v5.25c0 0.485-0.446 0.875-1 0.875h-2c-0.554 0-1-0.39-1-0.875v-5.25c0-0.485 0.446-0.875 1-0.875zM17.5 26.5c0 0.398-0.158 0.779-0.439 1.061s-0.663 0.439-1.061 0.439-0.779-0.158-1.061-0.439c-0.281-0.281-0.439-0.663-0.439-1.061s0.158-0.779 0.439-1.061c0.281-0.281 0.663-0.439 1.061-0.439s0.779 0.158 1.061 0.439c0.281 0.281 0.439 0.663 0.439 1.061z"></path>
</svg>
