<svg xmlns="http://www.w3.org/2000/svg" width="65" height="64" fill="none"><path fill="#295BA7" fill-rule="evenodd" d="M3.304 37.768h2.259v2.484h4.035v-2.484h2.23v6.97h-2.23v-2.934H5.534v2.907h-2.23v-6.943Zm8.778 0h2.201l2.315 2.681 2.286-2.68h2.173l-3.358 4.26v2.71h-2.23v-2.907l-3.387-4.064Zm9.258 0h2.23v5.39h3.584c.564 0 .931-.563.931-1.157v-4.233h2.23v5.56c0 .874-.988 1.383-1.553 1.383H21.34v-6.943Zm9.454 0h7.423c.875 0 1.58.536 1.58 1.623v5.334l-2.229.013v-4.233c0-.591-.198-.944-.96-.944H33.25v5.193h-2.456v-6.986Zm9.681 0h6.491c1.3 0 2.301 1.044 2.301 1.848v3.204c-.014.564-.805 1.918-1.792 1.918h-7v-6.97Zm2.272 5.419h3.426c.493 0 .875-.367.875-.82v-2.03c0-.495-.406-.79-.927-.79h-3.374v3.64Zm9.272-5.448h6.957v7h-2.484v-1.806h-4.276v1.805h-2.511v-4.544c-.057-1.523 1.298-2.455 2.314-2.455Zm.169 2.485v1.128h4.29v-1.779h-3.613c-.423 0-.677.255-.677.651Zm7.24-2.47h2.23v7.196h-2.23v-7.196ZM32.615 17.587c-9.252 0-16.753 3.703-16.753 8.27s7.501 8.271 16.753 8.271c9.252 0 16.753-3.703 16.753-8.27 0-4.568-7.501-8.271-16.753-8.271Zm-1.589 1.84c1.912-.676 7.593 0 9.8 1.06.706.678-3.15 2.854-7.74 3.797-6.562 1.323-3.443-3.738-2.06-4.857Zm-11.27 9.8c-1.443-1.028-4.268-3.972.412-7.032 2.471-1.442 3.854-1.767 5.56-2.12.825-.177 1.414.03.678.648-1.56 1.619-4.797 6.974-5.09 8.152-.237.795-.707 1-1.56.352Zm13.477 3.415c-2.766.293-8.916-.619-9.034-1.412.118-1.914 9.77-5.092 11.506-3.327.736 1.383-.676 4.65-2.472 4.739ZM47.3 27.078c-.707 1.62-3.09 3.445-8.093 4.68-.765.176-1.03-.294-.53-.736.825-.5 4.797-7.15 5.297-8.475.295-.678.854-.412 1.207-.147 1.59 1.03 2.796 2.707 2.119 4.678Z" clip-rule="evenodd"/></svg>