<svg xmlns="http://www.w3.org/2000/svg" width="16" height="16" fill="none"><path fill="#fff" d="M13.965 5.537a4.354 4.354 0 0 0-.28-1.478 3.073 3.073 0 0 0-1.755-1.755 4.404 4.404 0 0 0-1.457-.28C9.83 1.995 9.628 1.987 8 1.987s-1.837 0-2.473.037c-.498.01-.99.105-1.457.28a3.071 3.071 0 0 0-1.755 1.755 4.37 4.37 0 0 0-.28 1.457c-.028.642-.037.845-.037 2.473s0 1.836.037 2.474c.01.498.104.99.28 1.458.312.805.95 1.442 1.756 1.754a4.39 4.39 0 0 0 1.456.3c.642.029.846.038 2.474.038 1.628 0 1.836 0 2.473-.038.498-.01.99-.104 1.457-.279a3.077 3.077 0 0 0 1.756-1.755 4.39 4.39 0 0 0 .279-1.458c.029-.642.037-.845.037-2.474-.001-1.628-.001-1.834-.038-2.472Zm-5.969 5.531a3.081 3.081 0 1 1-.001-6.163 3.081 3.081 0 0 1 .001 6.163Zm3.205-5.56a.718.718 0 1 1-.002-1.435.718.718 0 0 1 .002 1.436Z"/><path fill="#fff" d="M7.996 9.988a2.002 2.002 0 1 0 0-4.004 2.002 2.002 0 0 0 0 4.004Z"/></svg>