<!-- Generated by IcoMoon.io -->
<svg version="1.1" xmlns="http://www.w3.org/2000/svg" width="32" height="32" viewBox="0 0 32 32">
<title>instagram-alt</title>
<path fill="#fff" d="M27.93 11.074c-0.015-1.066-0.219-2.080-0.58-3.016l0.020 0.060c-0.638-1.616-1.894-2.872-3.468-3.495l-0.042-0.015c-0.863-0.334-1.862-0.538-2.905-0.56l-0.009-0c-1.286-0.058-1.69-0.074-4.946-0.074s-3.674 0-4.946 0.074c-0.996 0.020-1.98 0.21-2.914 0.56-1.617 0.638-2.872 1.893-3.495 3.468l-0.014 0.042c-0.335 0.863-0.539 1.862-0.56 2.905l-0 0.009c-0.056 1.284-0.074 1.69-0.074 4.946s0 3.672 0.074 4.948c0.020 0.996 0.208 1.98 0.56 2.916 0.624 1.61 1.9 2.884 3.512 3.508 0.86 0.347 1.856 0.564 2.897 0.6l0.015 0c1.284 0.058 1.692 0.076 4.948 0.076s3.672 0 4.946-0.076c0.996-0.020 1.98-0.208 2.914-0.558 1.616-0.639 2.872-1.894 3.497-3.468l0.015-0.042c0.334-0.864 0.537-1.863 0.558-2.907l0-0.009c0.058-1.284 0.074-1.69 0.074-4.948-0.002-3.256-0.002-3.668-0.076-4.944zM15.992 22.136c-0 0-0.001 0-0.001 0-3.404 0-6.163-2.759-6.163-6.163s2.759-6.162 6.162-6.163h0c0 0 0.001 0 0.001 0 3.404 0 6.163 2.759 6.163 6.163s-2.759 6.162-6.162 6.163h-0zM22.402 11.016c-0.017 0.001-0.036 0.001-0.056 0.001-0.793 0-1.436-0.643-1.436-1.436s0.643-1.436 1.436-1.436c0.018 0 0.036 0 0.054 0.001l-0.003-0c0.001 0 0.001 0 0.002 0 0.793 0 1.436 0.643 1.436 1.436s-0.642 1.435-1.434 1.436h-0z"></path>
<path fill="#fff" d="M15.992 19.976c2.211 0 4.004-1.793 4.004-4.004s-1.793-4.004-4.004-4.004v0c-2.211 0-4.004 1.793-4.004 4.004s1.793 4.004 4.004 4.004v0z"></path>
</svg>
