<svg xmlns="http://www.w3.org/2000/svg" width="64" height="26" fill="none"><g fill="#231F20" clip-path="url(#a)"><path d="M53.396 13.89c-.052 2.871.568 4.392 2.935 4.392 2.364 0 2.703-2.59 2.703-4.563 0-1.973-.448-3.888-2.931-3.888-1.524 0-2.648 1.184-2.707 4.058Zm-4.789 12V6.45h4.848v.789c0 1.051.424.618.766.208.057-.069 1.137-1.391 3.57-1.391 2.426 0 6.2 1.69 6.2 7.662 0 4.62-2.251 8-6.14 8-2.142 0-3.381-.843-3.664-1.184-.284-.335-.678-.394-.678 0v5.355h-4.902M11.139.142h5.24V13.89c0 2.365-1.015 7.325-8.282 7.325C.829 21.214.04 16.59.04 14v-2.535h5.07v2.478c0 1.521 1.015 2.929 2.93 2.929 1.915 0 3.098-1.07 3.098-2.872V.142Zm16.199 11.662c0-1.41-.787-2.762-2.59-2.762-1.747 0-2.367 1.239-2.367 2.762h4.957Zm-3.096-5.916c4.116 0 7.72 1.577 7.72 8.845h-9.746c0 2.31.956 3.268 2.647 3.268 1.69 0 2.253-1.353 2.253-1.353h4.79c0 2.085-2.873 4.902-7.212 4.846-4.957 0-7.38-3.662-7.38-7.437 0-3.777 2.14-8.17 6.928-8.17Zm18.676 5.916c0-1.41-.788-2.762-2.59-2.762-1.746 0-2.368 1.239-2.368 2.762h4.958Zm-3.095-5.916c4.115 0 7.718 1.577 7.718 8.845h-9.746c0 2.31.958 3.268 2.65 3.268 1.688 0 2.252-1.353 2.252-1.353h4.79c0 2.085-2.874 4.902-7.212 4.846-4.959 0-7.382-3.662-7.382-7.437 0-3.777 2.142-8.17 6.93-8.17Zm20.96 17.671a1.398 1.398 0 0 1 2.794 0 1.4 1.4 0 0 1-1.395 1.398c-.773 0-1.4-.63-1.4-1.398Zm-.162 0a1.56 1.56 0 1 0 3.12.001 1.56 1.56 0 0 0-3.12 0Z"/><path d="m62.807 24.357-.324-.765a.383.383 0 0 0 .191-.119.471.471 0 0 0 .116-.306c0-.276-.212-.464-.52-.464h-.65v1.654h.193v-.716h.47l.31.716h.214Zm-1-.884v-.59h.46c.191 0 .313.11.313.279 0 .192-.129.311-.34.311h-.432Z"/></g><defs><clipPath id="a"><path fill="#fff" d="M0 .11h64v25.78H0z"/></clipPath></defs></svg>