<svg xmlns="http://www.w3.org/2000/svg" width="64" height="64" fill="none"><path fill="#CC2229" fill-rule="evenodd" d="m21.23 31.655 4.446-6.507c.17-.256-.034-.546-.392-.546l-3.432-.025c-.256 0-.767.324-.988.604l-1.55 2.02-2.155 2.819.017-4.873c0-.332-.35-.545-.562-.545h-3.936c-.272 0-.52.102-.528.605-.008.494.605.596.605.732v13.024c0 .247.34.621.58.621l3.372-.017c.239-.008.443-.35.443-.58l.008-5.425 2.155 2.666 2.283 2.811c.187.221.553.528.937.528l3.662-.025c.35 0 .315-.426.23-.537a1165.653 1165.653 0 0 1-5.195-7.35Zm12.64-7.052h-3.893c-.46 0-.562.272-.639.562.085.528.639.673.639.681V38.99c0 .349.213.579.511.579l1.397-.009 2.078-.017c.383 0 .485-.23.485-.553V25.148c0-.332-.28-.545-.579-.545Z" clip-rule="evenodd"/><path fill="#CC2229" fill-rule="evenodd" d="M45.717 17.89c-4.14-1.047-8.798-1.634-13.721-1.634-.035 0-.069.008-.11.008-4.464 0-8.723.494-12.573 1.371C8.504 20.105.941 25.625.941 32.005c0 6.38 7.563 11.898 18.372 14.368 3.85.878 8.108 1.371 12.572 1.371h.11c4.924 0 9.582-.579 13.722-1.626 10.263-2.573 17.341-7.938 17.341-14.114.001-6.175-7.077-11.541-17.341-14.113Zm0 24.795c-4.08.946-8.756 1.482-13.721 1.482-.035 0-.069-.008-.11-.008-4.498 0-8.765-.451-12.573-1.244-9.53-1.984-16.106-6.132-16.106-10.91 0-4.779 6.575-8.927 16.106-10.911 3.808-.792 8.075-1.244 12.572-1.252h.11c4.966 0 9.642.536 13.722 1.482 8.969 2.06 15.076 6.081 15.076 10.68 0 4.6-6.107 8.62-15.076 10.681Z" clip-rule="evenodd"/><path fill="#CC2229" fill-rule="evenodd" d="M48.4 25.165c-.127-.29-.35-.562-.639-.562h-5.264c-.187 0-.443.153-.443.409-.008.749.776.724.733.834L38.35 38.937c-.077.222.119.63.392.63l3.091-.025c.273 0 .656-.23.767-.562l1.465-4.395c.494-1.465.988-2.93 1.473-4.395.026-.06.103-.094.18-.094.118 0 .246.043.272.128l2.87 8.807c.06.196.46.511.673.511l3.22.026c.187 0 .408-.375.349-.545L48.4 25.165Z" clip-rule="evenodd"/></svg>