<svg xmlns="http://www.w3.org/2000/svg" width="64" height="34" fill="none"><g clip-path="url(#a)"><path fill="#58595B" d="M32 .199C14.323.199 0 7.716 0 17c0 9.27 14.323 16.801 32 16.801 17.664 0 32-7.517 32-16.801C64 7.716 49.664.199 32 .199Z"/><path fill="#595A5C" d="M32 .199C14.323.199 0 7.716 0 17c0 9.27 14.323 16.787 31.986 16.787 17.664 0 32-7.517 32-16.787C63.986 7.716 49.664.199 32 .199Z"/><path fill="#5A5B5D" d="M32 .213C14.336.213.014 7.73.014 17S14.336 33.787 32 33.787 63.986 26.27 63.986 17 49.664.213 32 .213Z"/><path fill="#5B5C5E" d="M32 .213C14.336.213.014 7.73.014 17S14.336 33.787 32 33.787 63.986 26.27 63.986 17 49.664.213 32 .213Z"/><path fill="#5C5C5F" d="M32 .213C14.336.213.014 7.73.014 17S14.336 33.787 32 33.787 63.986 26.27 63.986 17 49.664.213 32 .213Z"/><path fill="#5C5D60" d="M32 .213C14.336.213.014 7.73.014 17s14.322 16.787 31.972 16.787c17.664 0 31.987-7.517 31.987-16.787S49.663.213 32 .213Z"/><path fill="#5D5E60" d="M32 .213C14.336.213.027 7.73.027 17S14.35 33.774 32 33.774c17.664 0 31.973-7.518 31.973-16.774C63.973 7.73 49.663.213 32 .213Z"/><path fill="#5E5F61" d="M32 .226C14.336.226.027 7.73.027 17c0 9.27 14.31 16.774 31.973 16.774 17.664 0 31.973-7.518 31.973-16.774C63.973 7.73 49.65.226 32 .226Z"/><path fill="#5F6062" d="M32 .226C14.35.226.027 7.73.027 17c0 9.256 14.31 16.774 31.973 16.774 17.65 0 31.973-7.504 31.973-16.774C63.973 7.73 49.65.226 32 .226Z"/><path fill="#606163" d="M32 .226C14.35.226.04 7.744.04 17S14.35 33.774 32 33.774 63.973 26.27 63.973 17C63.973 7.744 49.65.226 32 .226Z"/><path fill="#616264" d="M32 .24C14.35.24.04 7.744.04 17 .041 26.256 14.35 33.76 32 33.76S63.959 26.256 63.959 17c0-9.256-14.31-16.76-31.96-16.76Z"/><path fill="#616265" d="M32 .24C14.35.24.04 7.744.04 17 .041 26.256 14.35 33.76 32 33.76S63.959 26.256 63.959 17c0-9.256-14.31-16.76-31.96-16.76Z"/><path fill="#626366" d="M32 .24C14.35.24.04 7.744.04 17 .041 26.256 14.35 33.76 32 33.76S63.959 26.256 63.959 17c0-9.256-14.31-16.76-31.96-16.76Z"/><path fill="#636467" d="M32 .24C14.35.24.055 7.744.055 17c0 9.256 14.309 16.76 31.945 16.76 17.65 0 31.959-7.504 31.959-16.76 0-9.256-14.31-16.76-31.96-16.76Z"/><path fill="#646567" d="M32 .24C14.364.24.055 7.744.055 17c0 9.256 14.309 16.746 31.945 16.746 17.65 0 31.945-7.49 31.945-16.746C63.945 7.744 49.65.24 32 .24Z"/><path fill="#656668" d="M32 .254C14.364.254.055 7.744.055 17c0 9.256 14.309 16.746 31.945 16.746 17.636 0 31.945-7.49 31.945-16.746C63.945 7.744 49.636.254 32 .254Z"/><path fill="#656769" d="M32 .254C14.364.254.055 7.757.055 17c0 9.242 14.309 16.746 31.945 16.746 17.636 0 31.945-7.504 31.945-16.746C63.945 7.757 49.636.254 32 .254Z"/><path fill="#66686A" d="M32 .254C14.364.254.068 7.757.068 17c0 9.242 14.296 16.746 31.932 16.746S63.945 26.242 63.945 17C63.945 7.757 49.636.254 32 .254Z"/><path fill="#67686B" d="M32 .254C14.364.254.068 7.757.068 17c0 9.242 14.296 16.746 31.932 16.746S63.945 26.242 63.945 17C63.945 7.757 49.636.254 32 .254Z"/><path fill="#68696C" d="M32 .267C14.364.267.068 7.757.068 17c0 9.242 14.296 16.733 31.932 16.733S63.93 26.242 63.93 17 49.636.267 32 .267Z"/><path fill="#696A6C" d="M32 .267C14.377.267.082 7.757.082 17c0 9.242 14.295 16.733 31.932 16.733 17.636 0 31.931-7.49 31.931-16.733C63.932 7.757 49.636.267 32 .267Z"/><path fill="#696B6D" d="M32 .267C14.377.267.082 7.757.082 17c0 9.242 14.295 16.733 31.918 16.733 17.636 0 31.932-7.49 31.932-16.733S49.636.267 32 .267Z"/><path fill="#6A6C6E" d="M32 .267C14.377.267.082 7.757.082 17c0 9.242 14.295 16.719 31.918 16.719 17.623 0 31.918-7.49 31.918-16.72C63.932 7.758 49.636.268 32 .268Z"/><path fill="#6B6C6F" d="M32 .281C14.377.281.082 7.771.082 17.001c0 9.228 14.295 16.718 31.918 16.718 17.623 0 31.918-7.49 31.918-16.719C63.918 7.771 49.636.281 32 .281Z"/><path fill="#6C6D70" d="M32 .281C14.377.281.096 7.771.096 17.001c0 9.228 14.295 16.718 31.918 16.718 17.622 0 31.918-7.49 31.918-16.719C63.918 7.771 49.622.281 32 .281Z"/><path fill="#6D6E70" d="M32 .281C14.377.281.096 7.771.096 17.001c0 9.228 14.281 16.718 31.904 16.718 17.623 0 31.918-7.49 31.918-16.719C63.918 7.771 49.623.281 32 .281Z"/><path fill="#6D6F71" d="M32 .281C14.377.281.096 7.758.096 17.001c0 9.228 14.281 16.718 31.904 16.718 17.623 0 31.904-7.49 31.904-16.719C63.918 7.771 49.623.281 32 .281Z"/><path fill="#6E7072" d="M32 .295C14.377.295.096 7.77.096 17S14.377 33.705 32 33.705c17.623 0 31.904-7.476 31.904-16.705S49.623.295 32 .295Z"/><path fill="#6F7073" d="M32 .295C14.377.295.096 7.77.096 17S14.377 33.705 32 33.705c17.623 0 31.904-7.476 31.904-16.705S49.623.295 32 .295Z"/><path fill="#707174" d="M32 .295C14.391.295.11 7.77.11 17S14.39 33.705 32 33.705 63.904 26.23 63.904 17 49.623.295 32 .295Z"/><path fill="#707274" d="M32 .295C14.391.295.11 7.785.11 17 .11 26.215 14.39 33.705 32 33.705S63.89 26.23 63.89 17C63.905 7.785 49.624.295 32 .295Z"/><path fill="#717375" d="M32.014.309C14.39.309.124 7.785.124 17s14.28 16.692 31.89 16.692c17.609 0 31.89-7.477 31.89-16.692S49.623.31 32.014.31Z"/><path fill="#727476" d="M32.014.309C14.404.309.124 7.785.124 17s14.28 16.692 31.89 16.692c17.609 0 31.89-7.477 31.89-16.692C63.89 7.785 49.623.31 32.014.31Z"/><path fill="#737477" d="M32.014.309C14.404.309.124 7.785.124 17S14.39 33.692 32 33.692 63.89 26.215 63.89 17 49.61.31 32.014.31Z"/><path fill="#747578" d="M32.014.309C14.404.309.124 7.785.124 17S14.39 33.692 32 33.692 63.877 26.215 63.877 17C63.89 7.785 49.609.31 32.014.31Z"/><path fill="#747678" d="M32.014.322C14.404.322.137 7.785.137 17s14.268 16.691 31.877 16.691c17.609 0 31.877-7.476 31.877-16.677C63.89 7.784 49.609.322 32.014.322Z"/><path fill="#757779" d="M32.014.322C14.404.322.137 7.785.137 17s14.268 16.678 31.877 16.678c17.595 0 31.877-7.463 31.877-16.678C63.877 7.785 49.609.322 32.014.322Z"/><path fill="#76777A" d="M32.014.322C14.404.322.137 7.8.137 17c0 9.215 14.268 16.678 31.877 16.678 17.595 0 31.877-7.463 31.877-16.678C63.877 7.8 49.609.322 32.014.322Z"/><path fill="#77787B" d="M32.014.322C14.418.322.15 7.8.15 17c0 9.202 14.268 16.678 31.863 16.678S63.877 26.215 63.877 17C63.877 7.8 49.609.322 32.014.322Z"/><path fill="#77797B" d="M32.014.336C14.418.336.15 7.799.15 17c0 9.202 14.268 16.664 31.863 16.664S63.877 26.202 63.877 17C63.877 7.799 49.609.336 32.014.336Z"/><path fill="#787A7C" d="M32.014.336C14.418.336.15 7.799.15 17c0 9.202 14.268 16.664 31.863 16.664S63.877 26.202 63.877 17C63.877 7.799 49.609.336 32.014.336Z"/><path fill="#797A7D" d="M32.014.336C14.418.336.15 7.799.15 17 .15 26.202 14.419 33.664 32 33.664c17.595 0 31.863-7.462 31.863-16.664C63.863 7.799 49.61.336 32.013.336Z"/><path fill="#7A7B7E" d="M32.014.336C14.418.336.164 7.799.164 17c0 9.202 14.255 16.664 31.85 16.664S63.864 26.202 63.864 17c0-9.201-14.269-16.664-31.85-16.664Z"/><path fill="#7A7C7F" d="M32.014.35C14.418.35.164 7.798.164 17c0 9.202 14.255 16.65 31.85 16.65 17.581 0 31.85-7.462 31.85-16.65 0-9.202-14.269-16.65-31.85-16.65Z"/><path fill="#7B7D7F" d="M32.014.35C14.432.35.164 7.798.164 17c0 9.202 14.255 16.65 31.85 16.65 17.581 0 31.85-7.462 31.85-16.65 0-9.202-14.269-16.65-31.85-16.65Z"/><path fill="#7C7D80" d="M32.014.35C14.432.35.178 7.812.178 17c0 9.202 14.254 16.65 31.836 16.65 17.581 0 31.835-7.448 31.835-16.65C63.85 7.812 49.595.35 32.014.35Z"/><path fill="#7C7E81" d="M32.014.35C14.432.35.178 7.812.178 17c0 9.188 14.254 16.65 31.836 16.65 17.581 0 31.835-7.448 31.835-16.65C63.85 7.812 49.595.35 32.014.35Z"/><path fill="#7D7F82" d="M32.014.363C14.432.363.178 7.813.178 17c0 9.188 14.254 16.65 31.836 16.65 17.581 0 31.835-7.448 31.835-16.65C63.85 7.812 49.595.363 32.014.363Z"/><path fill="#7E8082" d="M32.014.363C14.432.363.178 7.813.178 17c0 9.188 14.254 16.637 31.836 16.637 17.581 0 31.835-7.45 31.835-16.637C63.85 7.812 49.595.363 32.014.363Z"/><path fill="#7F8083" d="M32.014.363C14.432.363.192 7.813.192 17c0 9.188 14.254 16.637 31.822 16.637 17.581 0 31.835-7.45 31.835-16.637C63.836 7.812 49.595.363 32.014.363Z"/><path fill="#7F8184" d="M32.014.363C14.446.363.192 7.813.192 17c0 9.188 14.254 16.637 31.822 16.637 17.581 0 31.822-7.45 31.822-16.637C63.836 7.812 49.58.363 32.014.363Z"/><path fill="#808285" d="M32.014.377C14.446.377.192 7.812.192 17c0 9.188 14.24 16.637 31.822 16.637 17.567 0 31.822-7.45 31.822-16.637C63.836 7.812 49.58.377 32.014.377Z"/><path fill="#818385" d="M32.014.377C14.446.377.205 7.826.205 17c0 9.188 14.24 16.623 31.822 16.623 17.568 0 31.822-7.449 31.822-16.623C63.836 7.826 49.581.377 32.014.377Z"/><path fill="#828386" d="M32.014.377C14.446.377.205 7.826.205 17c0 9.174 14.24 16.623 31.809 16.623 17.567 0 31.808-7.449 31.808-16.623C63.836 7.826 49.582.377 32.014.377Z"/><path fill="#828487" d="M32.014.377C14.446.377.205 7.826.205 17c0 9.174 14.24 16.623 31.809 16.623 17.567 0 31.808-7.449 31.808-16.623 0-9.174-14.24-16.623-31.808-16.623Z"/><path fill="#838588" d="M32.014.39C14.446.39.205 7.827.205 17s14.24 16.623 31.809 16.623c17.567 0 31.808-7.435 31.808-16.623 0-9.174-14.24-16.61-31.808-16.61Z"/><path fill="#848688" d="M32.014.39C14.459.39.219 7.827.219 17s14.24 16.61 31.795 16.61c17.567 0 31.808-7.436 31.808-16.61S49.582.39 32.014.39Z"/><path fill="#858689" d="M32.014.39C14.459.39.219 7.827.219 17s14.24 16.61 31.795 16.61c17.567 0 31.794-7.436 31.794-16.61C63.822 7.826 49.581.39 32.014.39Z"/><path fill="#85878A" d="M32.014.39C14.459.39.219 7.827.219 17s14.24 16.61 31.795 16.61c17.567 0 31.794-7.436 31.794-16.61S49.581.39 32.014.39Z"/><path fill="#86888B" d="M32.014.404C14.459.404.219 7.84.219 17c0 9.174 14.24 16.61 31.795 16.61 17.554 0 31.794-7.436 31.794-16.61 0-9.16-14.24-16.596-31.794-16.596Z"/><path fill="#87898B" d="M32.014.404C14.459.404.233 7.84.233 17c0 9.174 14.226 16.596 31.78 16.596 17.555.013 31.795-7.422 31.795-16.596 0-9.16-14.24-16.596-31.794-16.596Z"/><path fill="#88898C" d="M32.014.404C14.459.404.233 7.84.233 17c0 9.174 14.226 16.61 31.78 16.61 17.555 0 31.795-7.436 31.795-16.61 0-9.16-14.24-16.596-31.794-16.596Z"/><path fill="#888A8D" d="M32.014.404C14.459.404.233 7.84.233 17.014c0 9.16 14.226 16.595 31.78 16.595 17.555 0 31.782-7.435 31.782-16.595 0-9.175-14.227-16.61-31.781-16.61Z"/><path fill="#898B8E" d="M32.014.418C14.474.418.247 7.839.247 17.014c0 9.16 14.226 16.595 31.78 16.595 17.555 0 31.781-7.435 31.781-16.595C63.795 7.839 49.568.418 32.014.418Z"/><path fill="#8A8C8E" d="M32.014.418C14.474.418.247 7.839.247 17.014c0 9.16 14.226 16.582 31.767 16.582 17.554 0 31.78-7.422 31.78-16.582 0-9.175-14.226-16.596-31.78-16.596Z"/><path fill="#8A8C8F" d="M32.014.418C14.474.418.247 7.839.247 17c0 9.16 14.226 16.582 31.767 16.582 17.54 0 31.767-7.422 31.767-16.582C63.795 7.84 49.568.418 32.014.418Z"/><path fill="#8B8D90" d="M32.014.418C14.474.418.247 7.839.247 17c0 9.16 14.226 16.582 31.767 16.582 17.54 0 31.767-7.422 31.767-16.582C63.795 7.853 49.568.418 32.014.418Z"/><path fill="#8C8E91" d="M32.014.432C14.474.432.247 7.853.247 17.014c0 9.16 14.226 16.582 31.767 16.582 17.54 0 31.767-7.422 31.767-16.582S49.568.432 32.014.432Z"/><path fill="#8D8F91" d="M32.014.432C14.474.432.26 7.853.26 17.014c0 9.146 14.227 16.568 31.754 16.568 17.54 0 31.767-7.422 31.767-16.568 0-9.16-14.227-16.582-31.767-16.582Z"/><path fill="#8D8F92" d="M32.014.432C14.487.432.26 7.853.26 17.014c0 9.146 14.213 16.568 31.754 16.568 17.54 0 31.753-7.422 31.753-16.568C63.781 7.854 49.554.432 32.014.432Z"/><path fill="#8E9093" d="M32.014.432C14.487.432.274 7.853.274 17.014c0 9.146 14.213 16.568 31.754 16.568 17.54 0 31.753-7.422 31.753-16.568 0-9.16-14.227-16.582-31.767-16.582Z"/><path fill="#8F9194" d="M32.014.446C14.487.446.274 7.853.274 17.014c0 9.147 14.213 16.568 31.754 16.568 17.54 0 31.753-7.421 31.753-16.568C63.767 7.854 49.554.446 32.014.446Z"/><path fill="#909294" d="M32.028.446C14.487.446.274 7.853.274 17.014c0 9.147 14.213 16.568 31.74 16.568 17.526 0 31.753-7.421 31.753-16.568 0-9.16-14.213-16.568-31.74-16.568Z"/><path fill="#909395" d="M32.028.446C14.487.446.274 7.867.274 17.014c0 9.147 14.213 16.554 31.74 16.554 17.526 0 31.74-7.407 31.74-16.554C63.767 7.867 49.554.446 32.028.446Z"/><path fill="#919396" d="M32.027.446C14.487.446.287 7.867.287 17.014c0 9.147 14.214 16.554 31.74 16.554 17.527 0 31.74-7.407 31.74-16.554 0-9.147-14.213-16.568-31.74-16.568Z"/><path fill="#929497" d="M32.027.46C14.501.46.287 7.866.287 17.013c0 9.147 14.214 16.554 31.74 16.554 17.527 0 31.74-7.407 31.74-16.554 0-9.147-14.213-16.555-31.74-16.555Z"/><path fill="#939597" d="M32.027.46C14.501.46.287 7.866.287 17.013c0 9.133 14.214 16.554 31.727 16.554 17.526 0 31.74-7.407 31.74-16.554C63.754 7.867 49.54.459 32.027.459Z"/><path fill="#939698" d="M32.027.46C14.501.46.287 7.866.287 17.013c0 9.133 14.2 16.54 31.727 16.54 17.526 0 31.726-7.407 31.726-16.54C63.754 7.867 49.54.459 32.027.459Z"/><path fill="#949699" d="M32.027.46C14.501.46.301 7.866.301 17.013c0 9.133 14.2 16.54 31.726 16.54 17.527 0 31.727-7.407 31.727-16.54C63.754 7.867 49.54.459 32.027.459Z"/><path fill="#95979A" d="M32.027.473C14.501.473.301 7.867.301 17.013c0 9.134 14.2 16.542 31.726 16.542 17.514 0 31.727-7.408 31.727-16.541C63.754 7.867 49.54.473 32.027.473Z"/><path fill="#96989A" d="M32.027.473C14.501.473.301 7.88.301 17.013c0 9.134 14.2 16.542 31.713 16.542S63.74 26.147 63.74 17.014 49.54.473 32.027.473Z"/><path fill="#97999B" d="M32.027.473C14.514.473.315 7.88.315 17.013c0 9.134 14.2 16.528 31.712 16.528 17.513 0 31.713-7.408 31.713-16.527C63.74 7.88 49.54.473 32.027.473Z"/><path fill="#97999C" d="M32.027.473C14.514.473.315 7.88.315 17.013c0 9.134 14.2 16.528 31.712 16.528 17.513 0 31.713-7.408 31.713-16.527C63.74 7.88 49.54.473 32.027.473Z"/><path fill="#989A9D" d="M32.027.487C14.514.487.315 7.88.315 17.014c0 9.12 14.2 16.527 31.712 16.527 17.513 0 31.713-7.394 31.713-16.527C63.74 7.88 49.54.487 32.027.487Z"/><path fill="#999B9E" d="M32.027.487C14.514.487.315 7.88.315 17.014c0 9.12 14.2 16.527 31.699 16.527 17.513 0 31.712-7.394 31.712-16.527C63.726 7.88 49.54.487 32.027.487Z"/><path fill="#9A9C9E" d="M32.027.487C14.514.487.33 7.88.33 17.014c0 9.12 14.199 16.513 31.698 16.513 17.513 0 31.7-7.394 31.7-16.513 0-9.133-14.2-16.527-31.7-16.527Z"/><path fill="#9A9C9F" d="M32.027.487C14.514.487.33 7.88.33 17.014c0 9.12 14.185 16.513 31.698 16.513 17.5 0 31.7-7.394 31.7-16.513 0-9.133-14.2-16.527-31.7-16.527Z"/><path fill="#9B9DA0" d="M32.027.5C14.528.5.33 7.894.33 17.014s14.185 16.513 31.698 16.513c17.5 0 31.7-7.394 31.7-16.513 0-9.12-14.2-16.514-31.7-16.514Z"/><path fill="#9C9EA1" d="M32.027.5C14.528.5.342 7.894.342 17.014s14.186 16.513 31.685 16.513c17.5 0 31.7-7.394 31.7-16.513 0-9.12-14.2-16.514-31.7-16.514Z"/><path fill="#9D9FA1" d="M32.027.5C14.528.5.342 7.894.342 17.014s14.186 16.5 31.685 16.5c17.5 0 31.685-7.395 31.685-16.5C63.712 7.894 49.527.5 32.027.5Z"/><path fill="#9DA0A2" d="M32.027.5C14.528.5.342 7.894.342 17.014s14.186 16.5 31.685 16.5c17.5 0 31.685-7.395 31.685-16.5C63.712 7.894 49.527.5 32.027.5Z"/><path fill="#9EA0A3" d="M32.027.514C14.528.514.342 7.894.342 17.014c0 9.105 14.186 16.5 31.685 16.5 17.5 0 31.685-7.395 31.685-16.5 0-9.12-14.185-16.5-31.685-16.5Z"/><path fill="#9FA1A4" d="M32.027.514C14.528.514.356 7.894.356 17.014c0 9.105 14.186 16.5 31.671 16.5 17.5 0 31.685-7.38 31.685-16.5 0-9.12-14.185-16.5-31.685-16.5Z"/><path fill="#A0A2A4" d="M32.027.514C14.542.514.356 7.894.356 17.014c0 9.105 14.186 16.5 31.671 16.5 17.5 0 31.672-7.38 31.672-16.5 0-9.12-14.172-16.5-31.672-16.5Z"/><path fill="#A1A3A5" d="M32.027.514C14.542.514.356 7.908.356 17.014c0 9.105 14.186 16.486 31.671 16.486 17.486 0 31.672-7.38 31.672-16.486 0-9.106-14.186-16.5-31.672-16.5Z"/><path fill="#A1A3A6" d="M32.027.528C14.542.528.356 7.908.356 17.014c0 9.105 14.172 16.486 31.671 16.486 17.486 0 31.672-7.38 31.672-16.486C63.699 7.908 49.513.528 32.027.528Z"/><path fill="#A2A4A7" d="M32.027.528C14.542.528.37 7.908.37 17.014.37 26.119 14.542 33.5 32.027 33.5c17.486 0 31.672-7.38 31.672-16.486C63.699 7.908 49.513.528 32.027.528Z"/><path fill="#A3A5A8" d="M32.027.528C14.542.528.37 7.908.37 17.014.37 26.119 14.542 33.5 32.027 33.5c17.486 0 31.658-7.38 31.658-16.486C63.685 7.908 49.513.528 32.027.528Z"/><path fill="#A4A6A8" d="M32.027.528C14.542.528.37 7.908.37 17.014c0 9.105 14.172 16.472 31.657 16.472 17.486 0 31.658-7.38 31.658-16.472C63.685 7.908 49.513.528 32.027.528Z"/><path fill="#A4A7A9" d="M32.027.541C14.555.541.383 7.908.383 17.014c0 9.092 14.172 16.472 31.658 16.472s31.658-7.38 31.658-16.472C63.685 7.908 49.513.54 32.027.54Z"/><path fill="#A5A7AA" d="M32.027.541C14.555.541.383 7.908.383 17.014c0 9.092 14.172 16.472 31.644 16.472 17.486 0 31.658-7.38 31.658-16.472C63.685 7.908 49.513.54 32.027.54Z"/><path fill="#A6A8AB" d="M32.027.541C14.555.541.383 7.921.383 17.014c0 9.092 14.172 16.458 31.644 16.458 17.472 0 31.644-7.366 31.644-16.472C63.685 7.922 49.513.541 32.027.541Z"/><path fill="#A7A9AC" d="M32.027.541C14.555.541.383 7.921.383 17.014c0 9.092 14.172 16.458 31.644 16.458 17.486 0 31.644-7.366 31.644-16.458C63.671 7.922 49.513.54 32.027.54Z"/><path fill="#A8AAAC" d="M32.027.555C14.555.555.397 7.922.397 17.014c0 9.092 14.158 16.458 31.63 16.458s31.644-7.366 31.644-16.458C63.671 7.922 49.5.554 32.027.554Z"/><path fill="#A8ABAD" d="M32.027.555C14.555.555.397 7.922.397 17.014c0 9.092 14.158 16.458 31.63 16.458s31.644-7.366 31.644-16.458C63.671 7.922 49.5.554 32.027.554Z"/><path fill="#A9ABAE" d="M32.027.555C14.555.555.397 7.922.397 17.014c0 9.092 14.158 16.458 31.63 16.458s31.63-7.366 31.63-16.458C63.672 7.922 49.5.554 32.028.554Z"/><path fill="#AAACAF" d="M32.028.555C14.569.555.41 7.922.41 17.014c0 9.078 14.158 16.445 31.63 16.445s31.63-7.367 31.63-16.445C63.659 7.922 49.5.554 32.029.554Z"/><path fill="#ABADAF" d="M32.028.569C14.569.569.41 7.922.41 17.014c0 9.078 14.158 16.445 31.63 16.445s31.63-7.367 31.63-16.445C63.659 7.922 49.5.569 32.029.569Z"/><path fill="#ACAEB0" d="M32.028.569C14.569.569.41 7.935.41 17.014c0 9.078 14.158 16.445 31.617 16.445 17.458 0 31.63-7.367 31.63-16.445 0-9.079-14.159-16.445-31.63-16.445Z"/><path fill="#ACAFB1" d="M32.028.569C14.569.569.41 7.935.41 17.014c0 9.078 14.158 16.445 31.617 16.445 17.458 0 31.616-7.367 31.616-16.445C63.658 7.935 49.5.569 32.028.569Z"/><path fill="#ADAFB2" d="M32.028.569C14.569.569.425 7.935.425 17.014c0 9.078 14.158 16.43 31.616 16.43s31.617-7.366 31.617-16.43C63.644 7.935 49.499.569 32.028.569Z"/><path fill="#AEB0B3" d="M32.041.582C14.583.582.425 7.935.425 17.014c0 9.078 14.158 16.43 31.616 16.43s31.617-7.352 31.617-16.43C63.644 7.935 49.486.582 32.04.582Z"/><path fill="#AFB1B3" d="M32.041.582C14.583.582.425 7.935.425 17.014c0 9.078 14.158 16.43 31.603 16.43 17.458 0 31.616-7.352 31.616-16.43C63.644 7.935 49.486.582 32.041.582Z"/><path fill="#B0B2B4" d="M32.041.582C14.583.582.438 7.935.438 17.014c0 9.078 14.145 16.43 31.603 16.43 17.458 0 31.603-7.352 31.603-16.43C63.644 7.935 49.486.582 32.041.582Z"/><path fill="#B1B3B5" d="M32.041.582C14.583.582.438 7.935.438 17.014c0 9.064 14.145 16.43 31.603 16.43 17.458 0 31.603-7.352 31.603-16.43C63.644 7.935 49.486.582 32.041.582Z"/><path fill="#B1B3B6" d="M32.041.596C14.583.596.438 7.95.438 17.014c0 9.064 14.145 16.417 31.603 16.417 17.445 0 31.603-7.353 31.603-16.417C63.63 7.949 49.486.596 32.041.596Z"/><path fill="#B2B4B7" d="M32.041.596C14.583.596.438 7.95.438 17.014c0 9.064 14.145 16.417 31.603 16.417 17.445 0 31.59-7.353 31.59-16.417C63.63 7.949 49.485.596 32.04.596Z"/><path fill="#B3B5B7" d="M32.041.596C14.597.596.451 7.95.451 17.014c0 9.064 14.146 16.417 31.59 16.417 17.445 0 31.59-7.353 31.59-16.417C63.63 7.949 49.485.596 32.04.596Z"/><path fill="#B4B6B8" d="M32.041.596C14.597.596.451 7.95.451 17.014c0 9.064 14.146 16.417 31.59 16.417 17.445 0 31.59-7.353 31.59-16.417C63.63 7.949 49.485.596 32.04.596Z"/><path fill="#B5B7B9" d="M32.041.61C14.597.61.451 7.95.451 17.014s14.146 16.404 31.59 16.404c17.445 0 31.59-7.353 31.59-16.404C63.616 7.949 49.485.61 32.04.61Z"/><path fill="#B5B7BA" d="M32.041.61C14.597.61.451 7.95.451 17.014s14.146 16.404 31.59 16.404c17.445 0 31.576-7.34 31.576-16.404C63.617 7.949 49.472.61 32.04.61Z"/><path fill="#B6B8BB" d="M32.041.61C14.597.61.466 7.95.466 17.014s14.13 16.404 31.575 16.404 31.576-7.34 31.576-16.404C63.617 7.949 49.472.61 32.04.61Z"/><path fill="#B7B9BB" d="M32.041.61C14.597.61.466 7.963.466 17.014c0 9.05 14.13 16.404 31.575 16.404 17.431 0 31.576-7.34 31.576-16.404C63.617 7.963 49.472.61 32.04.61Z"/><path fill="#B8BABC" d="M32.041.624C14.611.624.466 7.963.466 17.014c0 9.05 14.13 16.39 31.575 16.39 17.431 0 31.576-7.34 31.576-16.39 0-9.051-14.145-16.39-31.576-16.39Z"/><path fill="#B9BBBD" d="M32.041.624C14.611.624.48 7.963.48 17.014c0 9.05 14.131 16.39 31.562 16.39s31.562-7.34 31.562-16.39c0-9.051-14.131-16.39-31.562-16.39Z"/><path fill="#BABBBE" d="M32.041.624C14.611.624.48 7.963.48 17.014c0 9.05 14.131 16.39 31.562 16.39s31.562-7.34 31.562-16.39c0-9.051-14.131-16.39-31.562-16.39Z"/><path fill="#BABCBF" d="M32.041.624C14.611.624.48 7.963.48 17.014c0 9.05 14.131 16.39 31.562 16.39s31.562-7.34 31.562-16.39c0-9.051-14.131-16.39-31.562-16.39Z"/><path fill="#BBBDBF" d="M32.041.637C14.611.637.48 7.963.48 17.014c0 9.05 14.131 16.376 31.548 16.376 17.431 0 31.562-7.339 31.562-16.376C63.603 7.963 49.472.637 32.041.637Z"/><path fill="#BCBEC0" d="M32.041.637C14.611.637.493 7.963.493 17.014c0 9.05 14.13 16.376 31.548 16.376 17.431 0 31.548-7.339 31.548-16.376C63.59 7.963 49.472.637 32.041.637Z"/><path fill="#BDBFC1" d="M32.041.637C14.624.637.493 7.977.493 17.014c0 9.037 14.13 16.376 31.548 16.376 17.417 0 31.548-7.339 31.548-16.376S49.46.637 32.041.637Z"/><path fill="#BEC0C2" d="M32.041.637C14.624.637.493 7.977.493 17.014.493 26.05 14.61 33.39 32.04 33.39c17.417 0 31.548-7.325 31.548-16.376C63.59 7.977 49.46.637 32.041.637Z"/><path fill="#BFC0C3" d="M32.041.65C14.624.65.507 7.978.507 17.015S14.624 33.377 32.04 33.377c17.417 0 31.548-7.326 31.548-16.363C63.59 7.977 49.46.65 32.041.65Z"/><path fill="#BFC1C3" d="M32.041.65C14.624.65.507 7.978.507 17.015S14.624 33.377 32.04 33.377c17.417 0 31.535-7.326 31.535-16.363C63.575 7.977 49.457.65 32.04.65Z"/><path fill="#C0C2C4" d="M32.041.65C14.624.65.507 7.978.507 17.015S14.624 33.377 32.04 33.377c17.417 0 31.535-7.326 31.535-16.363C63.575 7.977 49.457.65 32.04.65Z"/><path fill="#C1C3C5" d="M32.041.65C14.624.65.507 7.978.507 17.015S14.624 33.377 32.04 33.377c17.417 0 31.535-7.326 31.535-16.363C63.575 7.977 49.457.65 32.04.65Z"/><path fill="#C2C4C6" d="M32.041.665C14.638.665.521 7.976.521 17.014c0 9.037 14.116 16.363 31.52 16.363 17.417 0 31.535-7.326 31.535-16.363 0-9.038-14.118-16.35-31.535-16.35Z"/><path fill="#C3C4C7" d="M32.041.665C14.638.665.521 7.99.521 17.014c0 9.023 14.116 16.349 31.52 16.349s31.52-7.326 31.52-16.35C63.576 7.99 49.459.666 32.042.666Z"/><path fill="#C4C5C7" d="M32.041.665C14.638.665.521 7.99.521 17.014c0 9.023 14.116 16.349 31.52 16.349s31.52-7.326 31.52-16.35C63.562 7.99 49.445.666 32.042.666Z"/><path fill="#C4C6C8" d="M32.041.665C14.638.665.521 7.99.521 17.014c0 9.023 14.116 16.349 31.52 16.349s31.52-7.326 31.52-16.35C63.562 7.99 49.445.666 32.042.666Z"/><path fill="#C5C7C9" d="M32.041.678C14.638.678.534 7.99.534 17.014c0 9.023 14.103 16.349 31.507 16.349 17.404 0 31.52-7.312 31.52-16.35C63.562 7.99 49.445.679 32.042.679Z"/><path fill="#C6C8CA" d="M32.041.678C14.638.678.534 7.99.534 17.014c0 9.023 14.103 16.335 31.507 16.335 17.404 0 31.507-7.312 31.507-16.335C63.562 7.99 49.444.678 32.041.678Z"/><path fill="#C7C9CB" d="M32.041.678C14.651.678.534 7.99.534 17.014c0 9.023 14.103 16.335 31.507 16.335 17.404 0 31.507-7.312 31.507-16.335C63.548 7.99 49.444.678 32.041.678Z"/><path fill="#C8C9CB" d="M32.041.678C14.651.678.548 7.99.548 17.014c0 9.023 14.103 16.335 31.493 16.335 17.404 0 31.507-7.312 31.507-16.335C63.548 7.99 49.444.678 32.041.678Z"/><path fill="#C9CACC" d="M32.041.692C14.651.692.548 7.99.548 17.014c0 9.023 14.103 16.335 31.493 16.335s31.507-7.312 31.507-16.335C63.548 7.99 49.444.692 32.041.692Z"/><path fill="#C9CBCD" d="M32.041.692C14.651.692.548 8.004.548 17.014c0 9.01 14.103 16.322 31.493 16.322s31.493-7.313 31.493-16.322C63.548 8.004 49.444.692 32.041.692Z"/><path fill="#CACCCE" d="M32.041.692C14.651.692.548 8.004.548 17.014c0 9.023 14.103 16.322 31.493 16.322s31.493-7.313 31.493-16.322C63.548 8.004 49.444.692 32.041.692Z"/><path fill="#CBCDCE" d="M32.041.692C14.651.692.561 8.004.561 17.014c0 9.01 14.09 16.322 31.48 16.322s31.494-7.313 31.494-16.322C63.535 8.004 49.43.692 32.04.692Z"/><path fill="#CCCDCF" d="M32.041.706C14.665.706.561 8.004.561 17.014s14.104 16.321 31.48 16.321c17.39 0 31.494-7.312 31.494-16.321C63.535 8.004 49.43.706 32.04.706Z"/><path fill="#CDCED0" d="M32.041.706C14.665.706.561 8.004.561 17.014s14.104 16.321 31.48 16.321c17.39 0 31.494-7.312 31.494-16.321C63.535 8.004 49.43.706 32.04.706Z"/><path fill="#CECFD1" d="M32.041.706C14.665.706.575 8.004.575 17.014s14.09 16.308 31.48 16.308 31.48-7.299 31.48-16.308C63.535 8.004 49.43.706 32.04.706Z"/><path fill="#CED0D2" d="M32.041.706C14.665.706.575 8.004.575 17.014s14.09 16.308 31.48 16.308 31.48-7.299 31.48-16.308C63.52 8.004 49.43.706 32.04.706Z"/><path fill="#CFD1D2" d="M32.055.72C14.665.72.575 8.016.575 17.013c0 9.01 14.09 16.308 31.466 16.308s31.48-7.299 31.48-16.308C63.52 8.017 49.43.719 32.055.719Z"/><path fill="#D0D1D3" d="M32.055.72C14.665.72.575 8.016.575 17.013c0 8.996 14.09 16.294 31.466 16.294s31.466-7.298 31.466-16.294C63.521 8.017 49.431.719 32.055.719Z"/><path fill="#D1D2D4" d="M32.055.72C14.679.72.589 8.016.589 17.013c0 8.996 14.09 16.294 31.466 16.294S63.52 26.01 63.52 17.014C63.52 8.017 49.43.719 32.055.719Z"/><path fill="#D2D3D5" d="M32.055.72C14.679.72.589 8.016.589 17.013c0 8.996 14.09 16.294 31.466 16.294S63.52 26.01 63.52 17.014C63.507 8.017 49.43.719 32.055.719Z"/><path fill="#D2D4D6" d="M32.055.733C14.679.733.589 8.017.589 17.013c0 8.997 14.09 16.295 31.452 16.295 17.376 0 31.466-7.298 31.466-16.294 0-8.997-14.09-16.281-31.452-16.281Z"/><path fill="#D3D5D6" d="M32.055.733C14.679.733.603 8.017.603 17.013c0 8.997 14.09 16.281 31.452 16.281 17.376 0 31.452-7.298 31.452-16.28 0-8.997-14.09-16.281-31.452-16.281Z"/><path fill="#D4D6D7" d="M32.055.733C14.679.733.603 8.017.603 17.013c0 8.997 14.076 16.281 31.452 16.281s31.452-7.298 31.452-16.28c0-8.997-14.09-16.281-31.452-16.281Z"/><path fill="#D5D6D8" d="M32.055.733C14.679.733.603 8.03.603 17.013c0 8.997 14.076 16.281 31.452 16.281 17.362 0 31.452-7.284 31.452-16.28C63.507 8.03 49.417.733 32.055.733Z"/><path fill="#D6D7D9" d="M32.055.747C14.692.747.603 8.03.603 17.014c0 8.982 14.076 16.28 31.438 16.28 17.363 0 31.452-7.284 31.452-16.28C63.493 8.03 49.417.747 32.055.747Z"/><path fill="#D7D8D9" d="M32.055.747C14.692.747.616 8.03.616 17.014c0 8.982 14.076 16.28 31.439 16.28 17.362 0 31.438-7.284 31.438-16.28C63.493 8.03 49.417.747 32.055.747Z"/><path fill="#D7D9DA" d="M32.055.747C14.692.747.616 8.03.616 17.014c0 8.982 14.076 16.267 31.439 16.267 17.362 0 31.438-7.285 31.438-16.267C63.493 8.03 49.417.747 32.055.747Z"/><path fill="#D8DADB" d="M32.055.747C14.692.747.616 8.03.616 17.014c0 8.982 14.076 16.267 31.439 16.267 17.362 0 31.438-7.285 31.438-16.267C63.493 8.03 49.417.747 32.055.747Z"/><path fill="#D9DADC" d="M32.055.76C14.692.76.616 8.031.616 17.014c0 8.982 14.076 16.267 31.425 16.267 17.363 0 31.439-7.285 31.439-16.267C63.48 8.03 49.417.76 32.055.76Z"/><path fill="#DADBDD" d="M32.055.76C14.692.76.63 8.031.63 17.014c0 8.982 14.076 16.267 31.425 16.267 17.362 0 31.425-7.285 31.425-16.267C63.48 8.03 49.404.76 32.055.76Z"/><path fill="#DBDCDD" d="M32.055.76C14.706.76.63 8.045.63 17.014c0 8.982 14.076 16.253 31.425 16.253S63.48 25.983 63.48 17.014C63.48 8.045 49.404.76 32.055.76Z"/><path fill="#DCDDDE" d="M32.055.76C14.706.76.63 8.045.63 17.014c0 8.982 14.062 16.253 31.425 16.253 17.349 0 31.425-7.284 31.425-16.253C63.48 8.045 49.404.76 32.055.76Z"/><path fill="#DCDEDF" d="M32.055.774C14.706.774.644 8.045.644 17.014c0 8.969 14.062 16.253 31.41 16.253 17.35 0 31.426-7.27 31.426-16.253C63.466 8.045 49.404.774 32.055.774Z"/><path fill="#DDDEE0" d="M32.055.774C14.706.774.644 8.045.644 17.014c0 8.969 14.062 16.253 31.41 16.253 17.35 0 31.412-7.27 31.412-16.253 0-8.969-14.063-16.24-31.411-16.24Z"/><path fill="#DEDFE0" d="M32.055.774C14.706.774.644 8.045.644 17.014c0 8.969 14.062 16.24 31.41 16.24 17.35 0 31.412-7.271 31.412-16.24 0-8.969-14.063-16.24-31.411-16.24Z"/><path fill="#DFE0E1" d="M32.055.774C14.706.774.644 8.045.644 17.014c0 8.969 14.062 16.24 31.41 16.24 17.35 0 31.412-7.271 31.412-16.24 0-8.969-14.063-16.24-31.411-16.24Z"/><path fill="#E0E1E2" d="M32.055.788C14.72.788.657 8.045.657 17.014s14.063 16.24 31.398 16.24c17.349 0 31.411-7.271 31.411-16.24C63.466 8.045 49.403.788 32.055.788Z"/><path fill="#E0E2E3" d="M32.055.788C14.72.788.657 8.058.657 17.014c0 8.969 14.063 16.24 31.398 16.24s31.397-7.271 31.397-16.24C63.452 8.059 49.39.788 32.055.788Z"/><path fill="#E1E2E3" d="M32.055.788C14.72.788.657 8.058.657 17.014c0 8.969 14.063 16.226 31.398 16.226s31.397-7.271 31.397-16.226C63.452 8.059 49.39.788 32.055.788Z"/><path fill="#E2E3E4" d="M32.055.788C14.72.788.67 8.058.67 17.028c0 8.955 14.049 16.225 31.397 16.225 17.336 0 31.398-7.27 31.398-16.226C63.452 8.06 49.39.788 32.055.788Z"/><path fill="#E3E4E5" d="M32.055.802C14.72.802.67 8.059.67 17.027c0 8.956 14.049 16.226 31.384 16.226s31.397-7.27 31.397-16.226C63.452 8.06 49.39.802 32.055.802Z"/><path fill="#E4E5E6" d="M32.055.802C14.72.802.67 8.059.67 17.027c0 8.956 14.049 16.226 31.384 16.226s31.383-7.27 31.383-16.226C63.438 8.06 49.39.802 32.055.802Z"/><path fill="#E5E6E7" d="M32.055.802C14.733.802.67 8.059.67 17.027c0 8.956 14.049 16.213 31.384 16.213s31.383-7.258 31.383-16.213C63.438 8.06 49.39.802 32.055.802Z"/><path fill="#E5E6E7" d="M32.055.802C14.733.802.685 8.059.685 17.027c0 8.956 14.048 16.213 31.383 16.213s31.384-7.258 31.384-16.213C63.438 8.06 49.39.802 32.055.802Z"/><path fill="#E6E7E8" d="M32.055.815C14.733.815.685 8.072.685 17.027c0 8.956 14.048 16.213 31.37 16.213 17.321 0 31.383-7.258 31.383-16.213C63.438 8.072 49.39.815 32.055.815Z"/><path fill="url(#b)" d="M32 1.527C15.021 1.527 1.26 8.456 1.26 17S15.02 32.473 32 32.473c16.98 0 30.74-6.929 30.74-15.473S48.98 1.527 32 1.527Z"/><path stroke="#004E24" stroke-width=".396" d="M32 3.376c-15.911 0-28.81 6.161-28.81 13.761S16.09 30.898 32 30.898s28.81-6.162 28.81-13.761c0-7.6-12.899-13.761-28.81-13.761Z"/><path stroke="#F5F0CC" stroke-width=".751" d="M32 2.568c-16.335 0-29.576 6.477-29.576 14.446 0 7.983 13.24 14.446 29.576 14.446 16.335 0 29.59-6.477 29.59-14.446C61.576 9.044 48.335 2.568 32 2.568Z"/><path fill="#F5F0CC" d="M49.746 10.441h-4.834l-.588 1.766h3.122l-3.56 1.288-.233.712 5.49-1.876.603-1.89ZM19.43 13.4l-.657 1.876h-4.71s.11-.041.26-.356c.15-.315 2.327-6.655 2.327-6.655s.302-.671-.04-.835h2.724s-.15-.041-.41.63c-.151.383-1.972 5.477-1.972 5.477h1.971s.452.04.507-.137Zm7.75 1.876h2.218s-.15-.233-.054-.493c.123-.356 1.3-3.711 1.3-3.711l.52 4.204h2.014l2.629-7.477s.11-.356.26-.356H33.93s.055.26-.014.452c-.082.206-1.287 3.588-1.287 3.588l-.48-4.04h-2.3s.123.206.041.411c-.068.178-2.437 6.983-2.437 6.983s-.137.439-.274.439Zm12.666-7.833h-2.52s.192.315-.054 1.055c-.247.74-2.177 6.189-2.177 6.189s-.151.52-.356.616h3.04s3.683.15 4.82-3.902c-.014-.014 1.423-3.999-2.753-3.958Zm.274 4.286c-.644 1.643-1.602 1.753-2.109 1.753h-.356l1.479-4.354h.575c-.014 0 1.465-.083.41 2.601Zm-29.426 9.873h4.834l.588-1.767h-3.135l3.574-1.287.232-.712-5.49 1.89-.603 1.876Zm13.761-1.643c.904-3.04-2.15-2.958-2.15-2.958H19.17c.233.26.055.822.055.822l-2.095 6.27c-.15.453-.425.754-.425.754h2.479c-.082 0-.082-.26-.082-.26l.89-2.465s1.109 2.273 1.19 2.424c.07.164.042.287.042.287h2.642c-.26 0-.52-.506-.52-.506l-1.314-2.479c1.82.028 2.423-1.89 2.423-1.89Zm-2.163-.274c-.343.78-1.287.684-1.287.684h-.48l.507-1.574h.52c1.137 0 .74.89.74.89Zm29.508.37c.972-3.191-2.123-3.027-2.123-3.027H46.57c.233.26.055.822.055.822s-2.027 5.847-2.177 6.285c-.15.452-.438.74-.438.74h2.587c-.191 0-.054-.48-.054-.48l.794-2.246s1.068 2.273 1.15 2.424c.082.164.041.288.041.288h2.739c-.26 0-.534-.507-.534-.507l-1.315-2.478c1.835.027 2.383-1.822 2.383-1.822Zm-2.191-.33c-.288.754-1.219.686-1.219.686h-.479l.507-1.561h.684s.836-.028.507.876Zm-20.238-2.93c-2.424 0-3.998 1.918-4.409 4.3-.37 2.19.808 3.944 2.766 3.944 2.738 0 4.368-2.807 4.368-4.82 0-2.109-.835-3.423-2.725-3.423Zm.356 4.369c-.397 1.643-1.15 2.15-1.821 2.026-.931-.178-.767-1.684-.616-2.383.328-1.52 1.136-2.245 1.739-2.177.191.028 1.287.055.698 2.534Zm3.012-4.136s.192.11.192.603v6.791s-.027.37-.164.452h2.026s0-.164.206-.424c.205-.26 4.422-6.19 4.422-6.19s.959-1.245 1.22-1.245h-2.917s.232.164.054.451c-.178.288-2.765 4.341-2.765 4.341l.04-4.08s0-.658.247-.712l-2.56.013Zm12.297 1.849.657-1.849h-4.93s.178.165-.054.822l-2.232 6.285s-.356.74-.452.74h5.08l.602-1.877s-.082.11-.561.11h-2.15l.452-1.273h1.684s.356-.028.425.082l.684-2.013s-.054.178-.506.178h-1.616l.48-1.397h2.053c0 .014.274-.027.384.192ZM26.92 15.288s-.178-.11-.22-.424l-.3-6.901s-.014-.438.191-.534h-2.41s.165.219-.15.712c-.329.493-4.437 6.873-4.437 6.873s-.082.165-.287.26h2.437s-.014-.191.055-.328c.11-.233.41-.78.41-.78h2.452v.684s.013.247-.165.425h2.424v.013ZM23.264 12.4l1.356-2.3.013 2.3h-1.369Z"/></g><defs><linearGradient id="b" x1="23.916" x2="40.076" y1="-.33" y2="34.325" gradientUnits="userSpaceOnUse"><stop stop-color="#008948"/><stop offset=".042" stop-color="#008847"/><stop offset=".096" stop-color="#008244"/><stop offset=".157" stop-color="#00793F"/><stop offset=".222" stop-color="#006A37"/><stop offset=".291" stop-color="#00572B"/><stop offset=".319" stop-color="#004E24"/><stop offset="1"/></linearGradient><clipPath id="a"><path fill="#fff" d="M0 .194h64v33.613H0z"/></clipPath></defs></svg>