<!-- Generated by IcoMoon.io -->
<svg version="1.1" xmlns="http://www.w3.org/2000/svg" width="32" height="32" viewBox="0 0 32 32">
<title>lightning_solid</title>
<path fill="#3da9f4" d="M0 0h32v32h-32z"></path>
<path fill="#fbed1f" d="M17.457 1.693c0.377-0.528 1.209-0.261 1.209 0.387v11.253h6.705c0.368 0 0.666 0.299 0.666 0.667 0 0.145-0.047 0.28-0.125 0.389l0.001-0.002-11.371 15.92c-0.377 0.527-1.209 0.261-1.209-0.387v-11.253h-6.705c-0 0-0 0-0 0-0.368 0-0.667-0.298-0.667-0.667 0-0.145 0.046-0.28 0.125-0.389l-0.001 0.002 11.371-15.92z"></path>
</svg>
