<!-- Generated by IcoMoon.io -->
<svg version="1.1" xmlns="http://www.w3.org/2000/svg" width="32" height="32" viewBox="0 0 32 32">
<title>mail-solid-by</title>
<path fill="#3da9f4" d="M0 0h32v32h-32z"></path>
<path fill="#fbed1f" d="M15.2 17.206l-7.2-4.157v7.751c0 0.884 0.716 1.6 1.6 1.6v0h12.8c0.884 0 1.6-0.716 1.6-1.6v0-7.752l-7.2 4.158c-0.23 0.135-0.505 0.214-0.8 0.214s-0.57-0.080-0.808-0.218l0.008 0.004z"></path>
<path fill="#fbed1f" d="M16 15.82l-8-4.62c0-0.884 0.716-1.6 1.6-1.6v0h12.8c0.884 0 1.6 0.716 1.6 1.6v0 0.002l-8 4.618z"></path>
</svg>
