<svg xmlns="http://www.w3.org/2000/svg" width="65" height="64" fill="none"><g clip-path="url(#a)"><path fill="url(#b)" d="M63.453 32c0 17.3-14 31.3-31.3 31.3S.853 49.3.853 32s14-31.3 31.3-31.3 31.3 14 31.3 31.3Zm-31.3-29.4c-16.3 0-29.4 13.1-29.4 29.4 0 16.3 13.2 29.4 29.4 29.4 16.3 0 29.4-13.2 29.4-29.4 0-16.3-13.1-29.4-29.4-29.4Z"/><path fill="url(#c)" d="M32.153 2.6c-16.3 0-29.4 13.1-29.4 29.4 0 16.3 13.2 29.4 29.4 29.4 16.3 0 29.4-13.2 29.4-29.4 0-16.3-13.1-29.4-29.4-29.4Zm0 56.9c-15.2 0-27.5-12.3-27.5-27.5s12.3-27.5 27.5-27.5 27.5 12.3 27.5 27.5-12.3 27.5-27.5 27.5Z"/><path fill="url(#d)" d="M32.153 63.3c17.3 0 31.3-14 31.3-31.3S49.453.7 32.153.7.853 14.7.853 32s14 31.3 31.3 31.3Zm0-63.3c17.6 0 32 14.4 32 32s-14.4 32-32 32-32-14.4-32-32 14.4-32 32-32Z" opacity=".4"/><path fill="#fff" d="M2.353 32.1c0-16.4 13.3-29.9 29.8-29.9s29.8 13.4 29.8 29.9c0 16.4-13.3 29.7-29.8 29.7s-29.8-13.3-29.8-29.7Zm9.3-20.6c-5.3 5.3-8.6 12.6-8.6 20.6 0 8 3.3 15.3 8.5 20.5 5.3 5.2 12.6 8.5 20.6 8.5 8 0 15.3-3.2 20.5-8.5 5.3-5.2 8.5-12.5 8.5-20.5s-3.3-15.3-8.5-20.6c-5.2-5.3-12.5-8.6-20.5-8.6s-15.3 3.3-20.5 8.6Z"/><path fill="url(#e)" d="M32.153 59.6c-7.4 0-14.3-2.9-19.5-8.1-5.2-5.2-8.1-12.1-8.1-19.5s2.9-14.3 8.1-19.5c5.2-5.2 12.1-8.1 19.5-8.1s14.3 2.9 19.5 8.1c5.2 5.2 8.1 12.1 8.1 19.5s-2.9 14.3-8.1 19.5c-5.2 5.2-12.1 8.1-19.5 8.1Zm0-.8c7.1 0 13.9-2.8 18.9-7.8 5.1-5.1 7.8-11.8 7.8-18.9 0-7.1-2.8-13.9-7.8-18.9-5.1-5.1-11.8-7.8-18.9-7.8-7.1 0-13.9 2.8-18.9 7.8-5.1 4.9-7.9 11.7-7.9 18.8 0 7.1 2.8 13.9 7.8 18.9 5.1 5.1 11.9 7.9 19 7.9Z" opacity=".4"/><path fill="#fff" d="M56.453 45c-.5-.4-19.8-15.7-19.8-15.7l-4.5-25.7c-.3.1-.7.4-.9.8l-3.2 25-19.9 15.3s-.4.5-.6.8c-.1.2-.1.5-.1.8l24.6-10.1 24.6 10.1c.2-.5 0-1-.2-1.3Z"/><path fill="#565F64" d="m32.353 32.8-.2 4.6 22.6 9.1c.8.4 1.4.2 2-.2l-24.1-13.6c-.1-.1-.3 0-.3.1Z"/><path fill="url(#f)" d="M32.352 32.8s1.3 2.3 2.8 3.9c2.1 2.3 4.9 3.9 4.9 3.9l14.7 5.9c.8.4 1.4.2 2-.2l-24.1-13.6c-.1-.1-.3 0-.3.1Z"/><path fill="#A4AAAE" fill-opacity=".6" d="M56.653 45.4c0-.1-.1-.2-.2-.4l-20.6-15.1-2.8 1.8s.2.1.3 0c.3-.1.9-.2 1.5 0 .5.2 21.8 13.8 21.8 13.7 0 .1 0 .1 0 0Z"/><path fill="#333E46" d="m55.953 44.5-19.2-15.2-.9.6 20.6 15.2c-.1-.2-.3-.4-.5-.6Z"/><path fill="#565F64" d="m32.653 31.3-.1.1s0 .2.2.1c.1-.1 3-1.6 4-2.2l-3.5-24c-.1-.9-.5-1.3-1.2-1.6l.4 27.8.2-.2Z"/><path fill="#A4AAAE" fill-opacity=".6" d="M30.953 5.3v1.3l-2.2 22.1c0 .3.1.6.4.8l1.3 1 .9-24.4.1-1.9c-.3.2-.4.6-.5 1.1Zm-1.2 25.6-1.2-1-20.3 14.7s-.6.4-.7.8l.7-.4 21.3-13.4c.4-.2.5-.4.2-.7Z"/><path fill="#565F64" d="M31.853 32.8c0-.1-.1-.2-.2-.1l-24.2 13.7c.6.4 1.2.5 2 .2l22.6-9.1-.2-4.7Z"/><path fill="url(#g)" d="m32.553 31.4.1-.1-.1.1s0 .1.1.1h.1c.1-.1 3-1.6 4-2.2l-.4-2.9-3.1-21.1c0-.4-.1-.7-.3-.9 0 0 1.5 20.2 1.5 22.4 0 2.9-1.9 4.6-1.9 4.6Z"/><path fill="url(#h)" fill-opacity=".8" d="M31.853 32.8c0-.1-.1-.2-.2-.1l-24.2 13.7c.6.4 1.2.5 2 .2l22.6-9.1-.2-4.7Z"/><path fill="url(#i)" d="m9.453 46.5 22.6-9.1-.2-4.4c-.4 1.2-1.1 2.5-3 3.5-1.4.8-14.8 7.4-19.6 9.7-.3.2-.7.3-.9.4.4.2.7.1 1.1-.1Z" opacity=".8"/><path fill="url(#j)" d="m32.653 31.3-.1.1s0 .2.2.1c.1-.1 3-1.6 4-2.2l-3.5-24c-.1-.9-.5-1.3-1.2-1.6l.4 27.8.2-.2Z"/><path fill="url(#k)" d="m32.653 31.3-.1.1s0 .2.2.1c.1-.1 3-1.6 4-2.2l-3.5-24c-.1-.9-.5-1.3-1.2-1.6l.4 27.8.2-.2Z"/><path fill="url(#l)" d="M5.253 44.4c-.7-1.6-4.7-9.4-.3-24.4h-1.7c-.9 3-1.6 4.8-2 7.5 0 0-.2 1-.3 2.1-.1 1.1-.1 1.7-.1 2.4 0 6 1.5 9.5 1.5 9.5 1.6 5 4.4 9.5 8.2 12.9 3.3 2.9 8.4 5.1 12.6 5.9-.7-.1-12.7-5.2-17.9-15.9Z"/><path fill="url(#m)" d="M32.553 32.6h-.9c.1 0 .2 0 .2.1l.2 4.6h.1l.2-4.6c0-.1.1-.2.2-.1Z"/><path fill="url(#n)" d="M42.153 2.3c10.5 4 20.4 15 20.4 28.9 0 16.8-13.4 30.5-30.4 30.5v1.6c17 0 31.3-14 31.3-31.3 0-13.8-8.8-25.4-21.3-29.7Z"/><path fill="url(#o)" d="M58.953 20.2c-7-16.1-22.8-17-23.7-17.1h-.1c12.1 2.2 19.8 10.1 22.5 18.4v.1c1.2 3.2 1.8 6.6 1.9 10.3.1 3.5-.7 7.4-2.2 11-.1.5-.2 1.1-.3 1.1h1.6c4.8-9 2.7-18.1.3-23.8Z"/><path fill="#FBFBFB" d="M2.353 32.1c0-16.4 13.3-29.9 29.8-29.9s29.8 13.4 29.8 29.9c0 16.4-13.3 29.7-29.8 29.7s-29.8-13.3-29.8-29.7Zm9.3-20.6c-5.3 5.3-8.6 12.6-8.6 20.6 0 8 3.3 15.3 8.5 20.5 5.3 5.2 12.6 8.5 20.6 8.5 8 0 15.3-3.2 20.5-8.5 5.3-5.2 8.5-12.5 8.5-20.5s-3.3-15.3-8.5-20.6c-5.2-5.3-12.5-8.6-20.5-8.6s-15.3 3.3-20.5 8.6Z"/><path fill="#333F47" d="m8.052 44.8 20.4-14.7c1.1.6 2.9 1.4 3.1 1.4.2.1.2-.1.2-.1l-2.5-2.1c-.3-.2-.4-.5-.4-.8l2.4-24.1c-.1.1-.1.3-.2.4-.1.2-.1.3-.1.5l-3.5 24.1-19.2 15.1c-.1.1-.2.2-.2.3Z"/></g><defs><linearGradient id="b" x1="8.151" x2="56.154" y1="11.898" y2="52.102" gradientUnits="userSpaceOnUse"><stop stop-color="#fff"/><stop offset=".1" stop-color="#CDD0D0"/><stop offset=".2" stop-color="#A5ACAF"/><stop offset=".3" stop-color="#98A0A4"/><stop offset=".4" stop-color="#828A8F"/><stop offset=".5" stop-color="#667075"/><stop offset=".6" stop-color="#535C63"/><stop offset=".7" stop-color="#475158"/><stop offset=".8" stop-color="#434D54"/><stop offset="1" stop-color="#475157"/></linearGradient><linearGradient id="c" x1="9.624" x2="54.624" y1="13.059" y2="50.859" gradientUnits="userSpaceOnUse"><stop stop-color="#0B1F2A"/><stop offset=".2" stop-color="#333F47"/><stop offset=".5" stop-color="#81898D"/><stop offset=".7" stop-color="#B3B8B8"/><stop offset=".8" stop-color="#DEE0DD"/><stop offset="1" stop-color="#FBFBFB"/></linearGradient><linearGradient id="d" x1="43.09" x2="21.19" y1="62.063" y2="1.864" gradientUnits="userSpaceOnUse"><stop stop-color="#E1E3E1"/><stop offset=".1" stop-color="#C1C5C4"/><stop offset=".3" stop-color="#9BA1A2"/><stop offset=".5" stop-color="#7D8487"/><stop offset=".7" stop-color="#687074" stop-opacity="0"/><stop offset=".8" stop-color="#5B6469" stop-opacity="0"/><stop offset="1" stop-color="#576065" stop-opacity="0"/></linearGradient><linearGradient id="e" x1="18.354" x2="45.952" y1="8.101" y2="55.899" gradientUnits="userSpaceOnUse"><stop stop-color="#E1E3E1"/><stop offset=".1" stop-color="#C1C5C4"/><stop offset=".3" stop-color="#9BA1A2"/><stop offset=".5" stop-color="#7D8487"/><stop offset=".7" stop-color="#687074" stop-opacity="0"/><stop offset=".8" stop-color="#5B6469" stop-opacity="0"/><stop offset="1" stop-color="#576065" stop-opacity="0"/></linearGradient><linearGradient id="f" x1="44.641" x2="42.941" y1="39.393" y2="42.193" gradientUnits="userSpaceOnUse"><stop stop-color="#27343C"/><stop offset="1" stop-color="#00111E" stop-opacity="0"/></linearGradient><linearGradient id="g" x1="39.733" x2="36.932" y1="29.112" y2="24.612" gradientUnits="userSpaceOnUse"><stop offset=".1" stop-color="#02131F"/><stop offset=".9" stop-color="#02131F" stop-opacity="0"/></linearGradient><linearGradient id="h" x1="32.135" x2="27.935" y1="36.336" y2="37.536" gradientUnits="userSpaceOnUse"><stop offset=".2" stop-color="#02131F"/><stop offset=".9" stop-color="#02131F" stop-opacity="0"/></linearGradient><linearGradient id="i" x1="20.944" x2="20.343" y1="41.904" y2="40.404" gradientUnits="userSpaceOnUse"><stop stop-color="#02131F"/><stop offset=".1" stop-color="#02131F"/><stop offset="1" stop-color="#02131F" stop-opacity="0"/></linearGradient><linearGradient id="j" x1="35.755" x2="32.355" y1="17.214" y2="17.614" gradientUnits="userSpaceOnUse"><stop offset=".3" stop-color="#02131F"/><stop offset=".8" stop-color="#02131F" stop-opacity="0"/></linearGradient><linearGradient id="k" x1="35.861" x2="33.559" y1="17.157" y2="17.457" gradientUnits="userSpaceOnUse"><stop offset=".4" stop-color="#27343C"/><stop offset="1" stop-color="#3B474E" stop-opacity="0"/></linearGradient><linearGradient id="l" x1="-.207" x2="27.692" y1="32.831" y2="48.931" gradientUnits="userSpaceOnUse"><stop stop-color="#25323B" stop-opacity="0"/><stop offset=".1" stop-color="#27343C"/></linearGradient><linearGradient id="m" x1="32.103" x2="32.103" y1="37.4" y2="32.6" gradientUnits="userSpaceOnUse"><stop offset=".3" stop-color="#A5ABAF"/><stop offset="1" stop-color="#A5ABAF" stop-opacity="0"/></linearGradient><linearGradient id="n" x1="47.803" x2="47.803" y1="2.3" y2="63.3" gradientUnits="userSpaceOnUse"><stop stop-color="#6B7378"/><stop offset=".2" stop-color="#333F47"/><stop offset=".5" stop-color="#27343C"/><stop offset=".8" stop-color="#333F47"/><stop offset="1" stop-color="#434D54"/></linearGradient><linearGradient id="o" x1="57.442" x2="43.942" y1="8.093" y2="27.893" gradientUnits="userSpaceOnUse"><stop offset=".7" stop-color="#49545B"/><stop offset=".8" stop-color="#fff" stop-opacity="0"/></linearGradient><clipPath id="a"><path fill="#fff" d="M.153 0h64v64h-64z"/></clipPath></defs></svg>