<svg xmlns="http://www.w3.org/2000/svg" width="48" height="48" fill="none"><path fill="#3DA9F4" d="M0 0h48v48H0z"/><path fill="#FBED1F" fill-rule="evenodd" d="M44 24c0 11.046-8.954 20-20 20S4 35.046 4 24 12.954 4 24 4s20 8.954 20 20Zm-23-4a3 3 0 1 1-6 0 3 3 0 0 1 6 0Zm9 3a3 3 0 1 0 0-6 3 3 0 0 0 0 6Zm-13.485 6c.918-.614 2.148-.339 2.995.37A6.969 6.969 0 0 0 24 31a6.969 6.969 0 0 0 4.49-1.63c.847-.709 2.077-.984 2.994-.37.918.614 1.175 1.873.406 2.665A10.97 10.97 0 0 1 24 35a10.97 10.97 0 0 1-7.89-3.335c-.77-.792-.512-2.05.405-2.665Z" clip-rule="evenodd"/></svg>