<svg xmlns="http://www.w3.org/2000/svg" width="49" height="49" fill="none"><path fill="#3DA9F4" d="M.667.889h48v48h-48z"/><path fill="#FBED1F" fill-rule="evenodd" d="M44.667 24.889c0 11.046-8.955 20-20 20-11.046 0-20-8.955-20-20 0-11.046 8.954-20 20-20 11.045 0 20 8.954 20 20Zm-23-4a3 3 0 1 1-6 0 3 3 0 0 1 6 0Zm9 3a3 3 0 1 0 0-6 3 3 0 0 0 0 6Zm-13.485 6c.918-.614 2.147-.339 2.994.37a6.97 6.97 0 0 0 4.49 1.63 6.969 6.969 0 0 0 4.491-1.63c.847-.709 2.076-.985 2.994-.37.918.614 1.175 1.873.405 2.665a10.97 10.97 0 0 1-7.89 3.335 10.97 10.97 0 0 1-7.889-3.335c-.77-.792-.513-2.05.405-2.665Z" clip-rule="evenodd"/></svg>