<svg xmlns="http://www.w3.org/2000/svg" width="75" height="64" fill="none"><g clip-path="url(#a)"><path fill="url(#b)" d="M72.352 24.252c-.69-.193-1.46-.284-3.08-.484-6.704-.275-23.272-.92-31.715-.92-8.442 0-25.01.645-31.714.92-1.62.2-2.39.291-3.08.484C.655 24.749.19 25.506.19 27.015v10.346c0 1.51 1.618 2.528 2.733 2.733 1.116.206 1.822.29 2.995.4 5.996.372 19.907 1.147 31.638 1.159 11.731-.011 25.642-.786 31.638-1.158 1.173-.112 1.88-.195 2.996-.401 1.114-.206 2.732-1.223 2.732-2.733V27.015c0-1.51-.463-2.266-2.571-2.763Z"/><path fill="url(#c)" d="M10.672 24.66c3.3-11.476 14.138-19.896 27.004-19.896 12.829 0 23.646 8.374 26.976 19.803.01.04.018.061.03.1 1.912-.215 3.625-.547 4.836-.87-.022-.074-.028-.088-.047-.161C65.686 10.022 52.885.004 37.676.004 22.416.004 9.58 10.087 5.843 23.768c1.681.461 2.913.654 4.83.891Z"/><path fill="url(#d)" d="m64.574 39.699-.088.27c-3.507 11.154-14.183 19.267-26.81 19.267-12.727 0-23.47-8.238-26.891-19.526-2.092.37-2.799.51-4.866.786 3.83 13.547 16.596 23.5 31.757 23.5 15.168 0 27.938-9.963 31.761-23.522a62.12 62.12 0 0 1-4.863-.775Z"/><path fill="url(#e)" d="M11.346 24.634c.794-.328 1.562-.85 2.76-1.188 3.57-9.276 12.775-15.881 23.57-15.881 10.76 0 19.943 6.565 23.535 15.796.013.031.026.07.036.093.618.214 2.44.953 3.006 1.2.08.001.251.007.429.012a2.441 2.441 0 0 1-.03-.1C61.32 13.141 50.505 4.77 37.675 4.77c-12.862 0-23.7 8.416-27 19.889.19 0 .553-.016.67-.025Z"/><path fill="#fff" d="M37.47 5.546c12.038 0 22.707 7.177 26.749 19.008l.033.1c.062 0 .291.008.429.013-.011-.043-.022-.068-.03-.1C61.32 13.14 50.504 4.77 37.675 4.77c-12.863 0-23.702 8.416-27.002 19.888.257-.004.381-.004.673-.024C14.959 13.403 25.523 5.546 37.47 5.546Z"/><path fill="url(#f)" d="M63.891 39.731c-.864.483-1.94.948-2.801 1.22-.012.027-.06.15-.071.179-3.723 8.976-12.771 15.312-23.343 15.312-10.638 0-19.733-6.413-23.412-15.478-.99-.275-2.47-.95-3.03-1.231l-.451-.023c3.422 11.287 14.167 19.526 26.893 19.526 12.67 0 23.373-8.164 26.845-19.371.007-.022.046-.145.054-.166-.2.008-.507.032-.684.032Z"/><path fill="url(#g)" d="M71.753 25.001c-1.776-.216-2.987-.193-7.312-.342l-.6-.02c-7.842-.269-19.624-.628-26.284-.628s-18.44.36-26.285.628l-.598.02c-4.326.15-5.536.126-7.312.342-1.776.218-3.17.996-3.17 2.318v9.595c0 1.323 1.68 2.394 3.17 2.394 0 0 18.961 1.17 34.195 1.184 15.234-.013 34.196-1.184 34.196-1.184 1.49 0 3.17-1.071 3.17-2.395V27.32c0-1.322-1.395-2.1-3.17-2.318Z"/><path fill="#fff" d="M63.891 39.731c-3.72 11.04-14.186 18.729-26.008 18.729-11.941 0-22.538-7.064-26.65-18.729l-.448-.022c3.421 11.287 14.168 19.527 26.895 19.527 12.731 0 23.479-8.245 26.897-19.538l-.686.033Z"/><path fill="#8C8C8C" d="m63.913 39.73-.023.001a16.18 16.18 0 0 1-2.801 1.22 6.86 6.86 0 0 0-.071.179 24.365 24.365 0 0 1-5.015 7.612c3.328-2.433 6.042-5.507 7.91-9.011Z"/><path fill="#4D4D4D" d="M20.066 49.456a24.429 24.429 0 0 1-5.803-8.493c-.99-.275-2.469-.95-3.03-1.232a23.699 23.699 0 0 0 2.111 3.548 27.698 27.698 0 0 0 5.917 5.676c.265.173.533.34.805.5Z"/><path fill="#252525" d="m10.784 39.71-.009.001c-2.085.37-2.792.511-4.856.785.166.59.35 1.172.551 1.748l4.314-2.534Z"/><path fill="url(#h)" d="M52.742 29.25c-.624-1.392-.402-1.246-1.76-1.282-.11-.038-.404-.038-.806-.038s-.476 0-.807.038c-1.282 0-1.062-.073-1.502.843 0 0-2.201 4.948-3.153 7l-.037.074c-.183.365-.073.365.22.365h1.98c.147 0 .22-.072.256-.146 0 0 .294-.623.66-1.503h4.839c.367.844.623 1.466.623 1.503.037.11.147.146.256.146h2.053c.294 0 .367.039.257-.22-.367-.879-2.75-6.01-3.08-6.78Zm-4.216 3.592c.623-1.466 1.247-2.895 1.247-2.932.037-.074.11-.11.22-.11.036-.038.147-.038.257-.038.073 0 .182 0 .22.038.072 0 .147.036.182.147.148.402.697 1.649 1.21 2.895h-3.336Zm-26.393-4.985c.184 0 .22.073.22.22v7.845c0 .182-.037.257-.256.257h-1.906c-.22 0-.256-.038-.256-.257v-7.845c0-.147.036-.22.183-.22h2.015Zm-4.068.073c.219 0 .257.073.257.257v7.808c0 .22-.038.257-.257.257h-2.237c-1.319 0-1.429 0-1.868-.732-.917-1.43-3.667-5.645-3.667-5.645v6.12c0 .222-.036.258-.256.258h-1.65c-.22 0-.256-.036-.256-.257v-7.809c0-.183.037-.257.256-.257h1.906c1.43 0 1.613-.036 2.127.697.403.66 3.739 5.792 3.739 5.792v-6.232c0-.183.036-.257.257-.257h1.649Zm48.935 0c.222 0 .257.073.257.257v7.808c0 .22-.036.257-.257.257h-2.234c-1.32 0-1.43 0-1.87-.732-.918-1.43-3.667-5.646-3.667-5.646v6.121c0 .22-.036.257-.257.257h-1.648c-.22 0-.258-.036-.258-.257v-7.808c0-.183.038-.257.258-.257h1.905c1.43 0 1.614-.036 2.126.697.44.66 3.74 5.792 3.74 5.792v-6.232c0-.183.037-.257.257-.257H67Zm-36.472 3.19c1.467.146 2.53.403 2.823 1.796 0 .11.037.476.037.88 0 .257 0 .586-.074.88-.256 1.319-1.246 1.575-2.785 1.575h-6.16c-.22 0-.256-.036-.256-.256v-1.32c0-.22.037-.257.257-.257h6.23c.258 0 .33-.073.367-.257v-.55c-.037-.147-.073-.366-.403-.402-.697-.037-2.749-.22-4.142-.367-1.797-.183-2.236-.952-2.31-1.613-.036-.22-.036-.513-.036-.77 0-.22 0-.55.036-.806.257-1.174 1.137-1.723 2.676-1.723h5.975c.22 0 .294.037.294.22v1.357c0 .182-.073.256-.294.22h-5.865c-.256 0-.366.11-.403.365v.33c0 .184.11.33.366.366.698.075 2.86.258 3.667.332Zm10.593 0c1.468.146 2.53.403 2.823 1.796 0 .11.037.476.037.88 0 .257 0 .586-.073.88-.256 1.319-1.245 1.575-2.786 1.575h-6.159c-.22 0-.257-.036-.257-.256v-1.32c0-.22.037-.257.257-.257h6.232c.257 0 .329-.073.366-.257v-.55c-.038-.147-.11-.366-.403-.402-.696-.037-2.75-.22-4.142-.367-1.797-.183-2.2-.952-2.31-1.613-.036-.22-.036-.513-.036-.77 0-.22 0-.55.036-.806.257-1.174 1.137-1.723 2.676-1.723h5.976c.219 0 .293.037.293.22v1.357c0 .182-.074.256-.293.22h-5.866c-.256 0-.366.11-.403.365v.33c0 .184.074.33.367.366.697.075 2.859.258 3.665.332Z"/></g><defs><radialGradient id="c" cx="0" cy="0" r="1" gradientTransform="matrix(52.1114 0 0 52.1113 16.579 -12.861)" gradientUnits="userSpaceOnUse"><stop offset=".202" stop-color="#fff"/><stop offset=".382" stop-color="#FDFDFD"/><stop offset=".487" stop-color="#F4F4F4"/><stop offset=".573" stop-color="#E6E6E6"/><stop offset=".648" stop-color="#D2D2D2"/><stop offset=".689" stop-color="#C4C4C4"/><stop offset="1" stop-color="#333"/></radialGradient><radialGradient id="d" cx="0" cy="0" r="1" gradientTransform="translate(142.692 70.608) scale(108.529)" gradientUnits="userSpaceOnUse"><stop offset=".202" stop-color="#fff"/><stop offset=".368" stop-color="#E4E4E4"/><stop offset=".594" stop-color="#C4C4C4"/><stop offset="1" stop-color="#333"/></radialGradient><radialGradient id="e" cx="0" cy="0" r="1" gradientTransform="translate(29.096 46.658) scale(33.3186)" gradientUnits="userSpaceOnUse"><stop offset=".202" stop-color="#fff"/><stop offset=".368" stop-color="#E4E4E4"/><stop offset=".594" stop-color="#C4C4C4"/><stop offset="1" stop-color="#333"/></radialGradient><radialGradient id="f" cx="0" cy="0" r="1" gradientTransform="matrix(63.2206 0 0 63.2205 55.983 80.728)" gradientUnits="userSpaceOnUse"><stop offset=".202" stop-color="#fff"/><stop offset=".368" stop-color="#E4E4E4"/><stop offset=".594" stop-color="#C4C4C4"/><stop offset="1" stop-color="#333"/></radialGradient><radialGradient id="g" cx="0" cy="0" r="1" gradientTransform="matrix(50.239 0 0 50.2389 37.056 6.596)" gradientUnits="userSpaceOnUse"><stop offset=".202" stop-color="#fff"/><stop offset=".397" stop-color="#FDFDFD"/><stop offset=".51" stop-color="#F4F4F4"/><stop offset=".603" stop-color="#E6E6E6"/><stop offset=".684" stop-color="#D2D2D2"/><stop offset=".728" stop-color="#C4C4C4"/><stop offset="1" stop-color="#4D4D4D"/></radialGradient><radialGradient id="h" cx="0" cy="0" r="1" gradientTransform="translate(38.22 11.627) scale(33.8388)" gradientUnits="userSpaceOnUse"><stop offset=".111" stop-color="#4D4D4D"/><stop offset=".248" stop-color="#494949"/><stop offset=".355" stop-color="#404040"/><stop offset=".451" stop-color="#2F2F2F"/><stop offset=".541" stop-color="#181818"/><stop offset=".611"/></radialGradient><linearGradient id="b" x1="37.557" x2="37.557" y1=".948" y2="53.036" gradientUnits="userSpaceOnUse"><stop offset=".194" stop-color="#fff"/><stop offset=".208" stop-color="#F8F8F8"/><stop offset=".366" stop-color="#AEAEAE"/><stop offset=".513" stop-color="#707070"/><stop offset=".647" stop-color="#404040"/><stop offset=".764" stop-color="#1D1D1D"/><stop offset=".86" stop-color="#080808"/><stop offset=".922"/></linearGradient><clipPath id="a"><path fill="#fff" d="M.191 0h74.731v64H.192z"/></clipPath></defs></svg>