<!-- Generated by IcoMoon.io -->
<svg version="1.1" xmlns="http://www.w3.org/2000/svg" width="33" height="32" viewBox="0 0 33 32">
<title>people</title>
<path fill="#3da9f4" d="M0.445 0h32v32h-32v-32z"></path>
<path fill="#3da9f4" d="M3.111 2.667h26.667v26.667h-26.667v-26.667z"></path>
<path fill="#fbed1f" d="M15.056 10.167c0 2.301-1.865 4.167-4.167 4.167s-4.167-1.865-4.167-4.167c0-2.301 1.865-4.167 4.167-4.167s4.167 1.865 4.167 4.167z"></path>
<path fill="#fbed1f" d="M22 14.333c2.301 0 4.167-1.865 4.167-4.167s-1.865-4.167-4.167-4.167c-2.301 0-4.167 1.865-4.167 4.167s1.865 4.167 4.167 4.167z"></path>
<path fill="#fbed1f" d="M20.294 24.889c0.378-0.654 0.595-1.413 0.595-2.222v-2.037c0-0.929-0.29-1.952-1.020-2.783-0.389-0.443-0.81-0.857-1.26-1.239 1.056-0.393 2.198-0.608 3.391-0.608 2.914 0 5.528 1.282 7.31 3.312 0.318 0.362 0.468 0.836 0.468 1.317v2.037c0 1.227-0.995 2.222-2.222 2.222h-7.261z"></path>
<path fill="#fbed1f" d="M18.622 23.115c-0.207 1.013-1.103 1.774-2.177 1.774h-11.111c-1.227 0-2.222-0.995-2.222-2.222v-2.037c0-0.482 0.15-0.956 0.468-1.317 1.782-2.031 4.396-3.312 7.31-3.312 2.066 0 3.981 0.644 5.556 1.743 0.647 0.451 1.236 0.979 1.755 1.57 0.318 0.362 0.468 0.836 0.468 1.317v2.037c0 0.153-0.016 0.303-0.045 0.448z"></path>
</svg>
