<svg xmlns="http://www.w3.org/2000/svg" width="16" height="16" fill="none"><path fill="#fff" d="M3.205 1.333a1.897 1.897 0 0 0-1.433.664 1.752 1.752 0 0 0-.436 1.242A12.168 12.168 0 0 0 4.89 11.11a12.168 12.168 0 0 0 7.87 3.554c.455.028.897-.14 1.243-.436.419-.358.661-.881.664-1.433v-1.342c0-.612-.416-1.145-1.01-1.294l-2.068-.518a1.334 1.334 0 0 0-1.021.157l-1.538.943a.632.632 0 0 1-.723-.033 19.971 19.971 0 0 1-1.595-1.42c-.418-.418-1-1.06-1.42-1.595a.633.633 0 0 1-.033-.723l.943-1.538c.187-.305.244-.673.157-1.02l-.518-2.07a1.333 1.333 0 0 0-1.294-1.009H3.205Z"/></svg>