<!-- Generated by IcoMoon.io -->
<svg version="1.1" xmlns="http://www.w3.org/2000/svg" width="32" height="32" viewBox="0 0 32 32">
<title>phone-solid-by</title>
<path fill="#3da9f4" d="M0 0h32v32h-32z"></path>
<path fill="#fbed1f" d="M10.246 8c-0.687 0.003-1.301 0.31-1.717 0.793l-0.003 0.003c-0.355 0.416-0.557 0.946-0.522 1.491 0.234 3.708 1.819 7.007 4.264 9.444l0 0c2.438 2.445 5.736 4.030 9.402 4.262l0.042 0.002c0.546 0.034 1.075-0.167 1.491-0.522 0.486-0.418 0.793-1.032 0.796-1.719v-1.611c-0-0.746-0.51-1.372-1.2-1.55l-0.011-0.002-2.482-0.622c-0.117-0.030-0.251-0.048-0.389-0.048-0.309 0-0.598 0.088-0.843 0.24l0.007-0.004-1.846 1.132c-0.115 0.073-0.255 0.117-0.405 0.117-0.175 0-0.336-0.059-0.464-0.158l0.002 0.001c-0.698-0.56-1.322-1.117-1.915-1.706l0.002 0.002c-0.501-0.502-1.2-1.272-1.704-1.914-0.098-0.127-0.157-0.288-0.157-0.462 0-0.15 0.044-0.29 0.119-0.408l-0.002 0.003 1.132-1.846c0.148-0.238 0.236-0.527 0.236-0.836 0-0.138-0.017-0.272-0.050-0.4l0.002 0.011-0.622-2.482c-0.18-0.702-0.806-1.212-1.552-1.212h-1.611z"></path>
</svg>
