<!-- Generated by IcoMoon.io -->
<svg version="1.1" xmlns="http://www.w3.org/2000/svg" width="32" height="32" viewBox="0 0 32 32">
<title>phone-solid-w</title>
<path fill="#fff" d="M6.41 2.666c-1.145 0.005-2.17 0.517-2.862 1.323l-0.004 0.005c-0.544 0.614-0.876 1.427-0.876 2.318 0 0.059 0.001 0.117 0.004 0.175l-0-0.008c0.391 6.181 3.033 11.679 7.107 15.741l0.001 0.001c4.063 4.075 9.56 6.717 15.669 7.104l0.071 0.004c0.91 0.056 1.794-0.28 2.486-0.872 0.838-0.716 1.322-1.762 1.328-2.866v-2.684c0-1.224-0.832-2.29-2.020-2.588l-4.136-1.036c-0.194-0.051-0.417-0.080-0.647-0.080-0.516 0-0.998 0.147-1.406 0.4l0.011-0.007-3.076 1.886c-0.191 0.123-0.425 0.196-0.676 0.196-0.291 0-0.559-0.098-0.773-0.264l0.003 0.002c-1.164-0.934-2.204-1.863-3.193-2.843l0.003 0.003c-0.836-0.836-2-2.12-2.84-3.19-0.163-0.211-0.261-0.479-0.261-0.77 0-0.251 0.073-0.484 0.198-0.681l-0.003 0.005 1.886-3.076c0.374-0.61 0.488-1.346 0.314-2.040l-1.036-4.14c-0.3-1.168-1.344-2.018-2.586-2.018-0.001 0-0.001 0-0.002 0h-2.684z"></path>
</svg>
