<svg xmlns="http://www.w3.org/2000/svg" width="40" height="40" fill="none"><path fill="#3DA9F4" d="M0 0h40v40H0z"/><path fill="#FBED1F" d="M12.807 10a2.846 2.846 0 0 0-2.149.995c-.444.52-.696 1.182-.653 1.864a18.252 18.252 0 0 0 5.33 11.806 18.252 18.252 0 0 0 11.806 5.33c.682.043 1.344-.209 1.864-.653A2.846 2.846 0 0 0 30 27.193V25.18a2 2 0 0 0-1.514-1.94l-3.103-.777a2 2 0 0 0-1.531.235l-2.308 1.415a.949.949 0 0 1-1.084-.05 29.955 29.955 0 0 1-2.392-2.13c-.626-.627-1.5-1.59-2.13-2.392a.949.949 0 0 1-.05-1.084l1.415-2.308a2 2 0 0 0 .235-1.531l-.777-3.103A2 2 0 0 0 14.821 10h-2.014Z"/></svg>