<svg xmlns="http://www.w3.org/2000/svg" width="29" height="27" fill="none"><g fill="#FBED1F" filter="url(#a)"><path d="M24.3 25c1.491 0 2.7-1.244 2.7-2.778V15.44c0-1.534-1.209-2.777-2.7-2.777h-3.747c0-.977.056-1.953.168-2.929.167-1.034.446-1.952.837-2.756.39-.804.893-1.436 1.507-1.895.614-.517 1.395-.775 2.344-.775V0c-1.563 0-2.93.345-4.102 1.034a9.07 9.07 0 0 0-2.93 2.756c-.726 1.148-1.284 2.498-1.675 4.048-.335 1.493-.502 3.1-.502 4.824v9.56c0 1.534 1.209 2.778 2.7 2.778h5.4ZM8.1 25c1.491 0 2.7-1.244 2.7-2.778V15.44c0-1.534-1.209-2.777-2.7-2.777H4.353c0-.977.056-1.953.168-2.929.167-1.034.446-1.952.837-2.756.39-.804.893-1.436 1.507-1.895.614-.517 1.395-.775 2.344-.775V0C7.647 0 6.28.345 5.107 1.034a9.069 9.069 0 0 0-2.93 2.756C1.45 4.938.893 6.288.502 7.838.167 9.331 0 10.938 0 12.662v9.56C0 23.756 1.209 25 2.7 25h5.4Z"/></g><defs><filter id="a" width="29" height="27" x="0" y="0" color-interpolation-filters="sRGB" filterUnits="userSpaceOnUse"><feFlood flood-opacity="0" result="BackgroundImageFix"/><feColorMatrix in="SourceAlpha" result="hardAlpha" values="0 0 0 0 0 0 0 0 0 0 0 0 0 0 0 0 0 0 127 0"/><feOffset dx="2" dy="2"/><feComposite in2="hardAlpha" operator="out"/><feColorMatrix values="0 0 0 0 0.239216 0 0 0 0 0.662745 0 0 0 0 0.956863 0 0 0 1 0"/><feBlend in2="BackgroundImageFix" result="effect1_dropShadow_84_8150"/><feBlend in="SourceGraphic" in2="effect1_dropShadow_84_8150" result="shape"/></filter></defs></svg>