<!-- Generated by IcoMoon.io -->
<svg version="1.1" xmlns="http://www.w3.org/2000/svg" width="32" height="32" viewBox="0 0 32 32">
<title>quote</title>
<path fill="#fbed1f" d="M26.814 28.69c1.645 0 2.979-1.373 2.979-3.065v-7.484c0-1.693-1.334-3.064-2.979-3.064h-4.135c0-1.078 0.062-2.155 0.185-3.232 0.184-1.141 0.492-2.154 0.924-3.041 0.43-0.887 0.985-1.585 1.663-2.091 0.678-0.57 1.539-0.855 2.586-0.855v-4.754c-1.725 0-3.233 0.381-4.526 1.141-1.306 0.776-2.388 1.796-3.211 3.006l-0.022 0.035c-0.801 1.267-1.417 2.756-1.848 4.467-0.37 1.647-0.554 3.421-0.554 5.323v10.549c0 1.693 1.334 3.065 2.979 3.065h5.959zM8.938 28.69c1.645 0 2.979-1.373 2.979-3.065v-7.484c0-1.693-1.334-3.064-2.979-3.064h-4.135c0-1.078 0.062-2.155 0.185-3.232 0.184-1.141 0.492-2.154 0.924-3.041 0.43-0.887 0.985-1.585 1.663-2.091 0.678-0.57 1.539-0.855 2.586-0.855v-4.754c-1.724 0-3.232 0.381-4.526 1.141-1.306 0.776-2.388 1.796-3.211 3.006l-0.022 0.035c-0.802 1.267-1.417 2.756-1.848 4.467-0.37 1.647-0.554 3.421-0.554 5.323v10.549c0 1.693 1.334 3.065 2.979 3.065h5.959z"></path>
</svg>
