<!-- Generated by IcoMoon.io -->
<svg version="1.1" xmlns="http://www.w3.org/2000/svg" width="32" height="32" viewBox="0 0 32 32">
<title>repair</title>
<path fill="#fbed1f" d="M15.366 0c8.487 0 15.366 6.88 15.366 15.366s-6.88 15.366-15.366 15.366c-8.487 0-15.366-6.88-15.366-15.366s6.88-15.366 15.366-15.366z"></path>
<path fill="#3da9f4" opacity="0.5" d="M16.515 15.755c-1.117-0.31-2.17-0.304-3.251-0.003-0.543 0.151-0.908 0.609-0.908 1.141v0.296c0 0.131 0.113 0.238 0.253 0.238h4.562c0.14 0 0.253-0.106 0.253-0.238v-0.292c0-0.531-0.366-0.99-0.911-1.141zM15.050 14.891c0.803 0 1.426-0.917 1.426-1.706 0-0.806-0.639-1.462-1.426-1.462s-1.426 0.656-1.426 1.462c0 0.789 0.623 1.706 1.426 1.706z"></path>
<path fill="#3da9f4" d="M19.395 18.693c-0.213 0.253-0.448 0.488-0.701 0.701l1.834 1.834 0.701-0.701-1.833-1.833z"></path>
<path fill="#3da9f4" d="M15.050 9.822c2.883 0 5.228 2.345 5.228 5.228s-2.345 5.228-5.228 5.228c-2.883 0-5.228-2.345-5.228-5.228s2.345-5.228 5.228-5.228zM10.32 15.050c0 2.608 2.122 4.73 4.73 4.73s4.73-2.122 4.73-4.73-2.122-4.73-4.73-4.73-4.73 2.122-4.73 4.73z"></path>
</svg>
