<svg xmlns="http://www.w3.org/2000/svg" width="101" height="101" fill="none"><g filter="url(#a)"><rect width="97" height="97" fill="#FBED1F" rx="48.5"/></g><path fill="#3DA9F4" fill-rule="evenodd" d="M52.126 49.727c-3.526-.978-6.848-.958-10.26-.01-1.715.477-2.866 1.923-2.866 3.6v.933c0 .414.358.75.8.75h14.4c.442 0 .8-.336.8-.75v-.922c0-1.677-1.154-3.125-2.874-3.601ZM47.5 47c2.534 0 4.5-2.895 4.5-5.385C52 39.07 49.982 37 47.5 37S43 39.07 43 41.615C43 44.105 44.966 47 47.5 47Z" clip-rule="evenodd" opacity=".5"/><path fill="#3DA9F4" fill-rule="evenodd" d="M61.214 59c-.673.8-1.414 1.54-2.214 2.213L64.787 67 67 64.786 61.214 59Z" clip-rule="evenodd"/><path fill="#3DA9F4" fill-rule="evenodd" d="M47.5 31C56.598 31 64 38.401 64 47.5S56.598 64 47.5 64C38.402 64 31 56.599 31 47.5S38.402 31 47.5 31ZM32.571 47.5c0 8.232 6.697 14.929 14.929 14.929S62.429 55.732 62.429 47.5 55.732 32.571 47.5 32.571 32.571 39.268 32.571 47.5Z" clip-rule="evenodd"/><defs><filter id="a" width="101" height="101" x="0" y="0" color-interpolation-filters="sRGB" filterUnits="userSpaceOnUse"><feFlood flood-opacity="0" result="BackgroundImageFix"/><feColorMatrix in="SourceAlpha" result="hardAlpha" values="0 0 0 0 0 0 0 0 0 0 0 0 0 0 0 0 0 0 127 0"/><feOffset dx="4" dy="4"/><feComposite in2="hardAlpha" operator="out"/><feColorMatrix values="0 0 0 0 0.239216 0 0 0 0 0.662745 0 0 0 0 0.956863 0 0 0 1 0"/><feBlend in2="BackgroundImageFix" result="effect1_dropShadow_84_8040"/><feBlend in="SourceGraphic" in2="effect1_dropShadow_84_8040" result="shape"/></filter></defs></svg>