<!-- Generated by IcoMoon.io -->
<svg version="1.1" xmlns="http://www.w3.org/2000/svg" width="32" height="32" viewBox="0 0 32 32">
<title>shina</title>
<path fill="#fbed1f" d="M0 13.333h18.667v18.667h-18.667z"></path>
<path fill="#666" d="M14.52 26c-3.31 0-5.993-4.254-5.993-9.5s2.683-9.5 5.993-9.5z"></path>
<path fill="#2b4255" d="M11.994 26c-3.31 0-5.994-4.255-5.994-9.5 0-5.248 2.684-9.5 5.994-9.5h7c-1.46 0.39-3.355 1.063-4.596 2.782-1.24 1.719-2.298 4.094-2.298 6.717 0 2.624 1.057 4.999 2.298 6.718 1.24 1.719 2.51 2.224 4.596 2.782l-7 0.001z"></path>
<path fill="#34485c" d="M18.994 6.998c-3.862 0-6.994 4.253-6.994 9.5s3.132 9.5 6.994 9.5h0.012c3.863 0 6.994-4.253 6.994-9.5s-3.131-9.5-6.994-9.5h-0.012zM18.996 11.998h0.006c1.656 0 2.998 2.015 2.998 4.5s-1.342 4.5-2.998 4.5h-0.006c-1.655 0-2.996-2.015-2.996-4.5s1.341-4.5 2.996-4.5z"></path>
<path fill="none" stroke="#2b4255" stroke-linejoin="round" stroke-linecap="round" stroke-miterlimit="4" stroke-width="0.6667" d="M18.993 9h-0.008c-2.753 0-4.985 3.131-4.985 6.993"></path>
<path fill="#34485c" d="M12.472 6.998c-0.768 0.547-1.453 1.293-2.020 2.192-1.204 1.907-1.926 4.493-1.926 7.341s0.722 5.435 1.925 7.342c0.546 0.865 1.203 1.585 1.936 2.125h2.502c-1.358-0.173-2.618-1.116-3.592-2.66-1.081-1.713-1.771-4.13-1.771-6.807s0.69-5.095 1.771-6.808c1.081-1.714 2.512-2.696 4.041-2.696 0.001 0 0.002 0 0.003 0 0.061 0 0.119-0.011 0.172-0.030l-0.003 0.001h-3.037z"></path>
</svg>
