<svg xmlns="http://www.w3.org/2000/svg" width="48" height="48" fill="none"><g clip-path="url(#a)"><path fill="#FBED1F" d="M0 20h28v28H0z"/><path fill="#666" d="M21.78 39c-4.965 0-8.99-6.381-8.99-14.25 0-7.87 4.025-14.25 8.99-14.25"/><path fill="#2B4255" d="M17.991 39C13.026 39 9 32.617 9 24.75c0-7.872 4.026-14.25 8.991-14.25h10.5c-2.19.585-5.032 1.595-6.894 4.173-1.86 2.579-3.447 6.141-3.447 10.075 0 3.936 1.585 7.499 3.447 10.077 1.86 2.579 3.765 3.336 6.894 4.173l-10.5.002Z"/><path fill="#34485C" d="M28.491 10.497c-5.793 0-10.491 6.38-10.491 14.25s4.698 14.25 10.491 14.25h.018c5.794 0 10.491-6.38 10.491-14.25s-4.697-14.25-10.491-14.25h-.018Zm.003 7.5h.009c2.484 0 4.497 3.023 4.497 6.75 0 3.728-2.013 6.75-4.497 6.75h-.009c-2.482 0-4.494-3.022-4.494-6.75 0-3.727 2.012-6.75 4.494-6.75Z"/><path stroke="#2B4255" stroke-linecap="round" stroke-linejoin="round" d="M28.49 13.5h-.012C24.348 13.5 21 18.197 21 23.99"/><path fill="#34485C" d="M18.708 10.497c-1.152.82-2.18 1.94-3.03 3.288-1.806 2.86-2.889 6.74-2.889 11.012s1.083 8.152 2.888 11.013c.819 1.297 1.804 2.377 2.904 3.187h3.753c-2.037-.26-3.927-1.674-5.388-3.99-1.622-2.57-2.657-6.195-2.657-10.21 0-4.016 1.035-7.643 2.657-10.212 1.621-2.571 3.768-4.044 6.061-4.044a.751.751 0 0 0 .258-.044H18.71Z"/></g><defs><clipPath id="a"><path fill="#fff" d="M0 0h48v48H0z"/></clipPath></defs></svg>