<svg width="49" height="48" viewBox="0 0 49 48" fill="none" xmlns="http://www.w3.org/2000/svg">
<rect width="48" height="48" transform="translate(0.666748)" fill="#3DA9F4"/>
<g clip-path="url(#clip0_488_7327)">
<rect width="40" height="40" transform="translate(4.66675 4)" fill="#3DA9F4"/>
<path d="M22.5834 15.25C22.5834 18.7018 19.7852 21.5 16.3334 21.5C12.8816 21.5 10.0834 18.7018 10.0834 15.25C10.0834 11.7982 12.8816 9 16.3334 9C19.7852 9 22.5834 11.7982 22.5834 15.25Z" fill="#FBED1F"/>
<path d="M33.0001 21.5C36.4519 21.5 39.2501 18.7018 39.2501 15.25C39.2501 11.7982 36.4519 9 33.0001 9C29.5482 9 26.7501 11.7982 26.7501 15.25C26.7501 18.7018 29.5482 21.5 33.0001 21.5Z" fill="#FBED1F"/>
<path d="M30.4416 37.3333C31.0087 36.3528 31.3334 35.2143 31.3334 34V30.9447C31.3334 29.5515 30.8986 28.0172 29.8039 26.7698C29.2207 26.1053 28.5887 25.484 27.9134 24.9117C29.4972 24.3222 31.2111 24 33.0001 24C37.3707 24 41.2924 25.9227 43.9652 28.9685C44.4416 29.5113 44.6667 30.2223 44.6667 30.9447V34C44.6667 35.841 43.1744 37.3333 41.3334 37.3333H30.4416Z" fill="#FBED1F"/>
<path d="M27.9324 34.6718C27.6216 36.1907 26.2776 37.3333 24.6667 37.3333H8.00008C6.15913 37.3333 4.66675 35.841 4.66675 34V30.9447C4.66675 30.2223 4.89191 29.5113 5.36826 28.9685C8.0411 25.9227 11.9627 24 16.3334 24C19.4318 24 22.3046 24.9663 24.6667 26.614C25.6367 27.2905 26.5206 28.082 27.2986 28.9685C27.7749 29.5113 28.0001 30.2223 28.0001 30.9447V34C28.0001 34.2302 27.9767 34.4548 27.9324 34.6718Z" fill="#FBED1F"/>
</g>
<defs>
<clipPath id="clip0_488_7327">
<rect width="40" height="40" fill="white" transform="translate(4.66675 4)"/>
</clipPath>
</defs>
</svg>
