<!-- Generated by IcoMoon.io -->
<svg version="1.1" xmlns="http://www.w3.org/2000/svg" width="32" height="32" viewBox="0 0 32 32">
<title>team</title>
<path fill="#3da9f4" d="M0.435 0.327h31.347v31.347h-31.347v-31.347z"></path>
<path fill="#3da9f4" d="M3.048 2.939h26.122v26.122h-26.122v-26.122z"></path>
<path fill="#fbed1f" d="M14.748 10.286c0 2.254-1.827 4.082-4.082 4.082s-4.082-1.827-4.082-4.082c0-2.254 1.827-4.082 4.082-4.082s4.082 1.827 4.082 4.082z"></path>
<path fill="#fbed1f" d="M21.551 14.367c2.254 0 4.082-1.827 4.082-4.082s-1.827-4.082-4.082-4.082c-2.254 0-4.082 1.827-4.082 4.082s1.827 4.082 4.082 4.082z"></path>
<path fill="#fbed1f" d="M19.88 24.707c0.37-0.64 0.582-1.384 0.582-2.177v-1.995c0-0.91-0.284-1.912-0.999-2.726-0.381-0.434-0.794-0.84-1.235-1.213 1.034-0.385 2.154-0.595 3.322-0.595 2.854 0 5.415 1.256 7.161 3.245 0.311 0.354 0.458 0.819 0.458 1.291v1.995c0 1.202-0.975 2.177-2.177 2.177h-7.113z"></path>
<path fill="#fbed1f" d="M18.242 22.969c-0.203 0.992-1.081 1.738-2.133 1.738h-10.884c-1.202 0-2.177-0.975-2.177-2.177v-1.995c0-0.472 0.147-0.936 0.458-1.291 1.746-1.989 4.307-3.245 7.161-3.245 2.023 0 3.9 0.631 5.442 1.707 0.633 0.442 1.211 0.959 1.719 1.538 0.311 0.354 0.458 0.819 0.458 1.291v1.995c0 0.15-0.015 0.297-0.044 0.439z"></path>
</svg>
