<svg xmlns="http://www.w3.org/2000/svg" width="16" height="16" fill="none"><g clip-path="url(#a)"><path fill="#fff" d="M8 0a8 8 0 1 1 0 16A8 8 0 0 1 8 0Zm3.554 4.8c-.305.006-.773.166-3.024 1.09-1.58.659-3.154 1.329-4.725 2.01-.384.15-.584.298-.603.442-.035.276.368.362.876.525.413.133.97.288 1.26.295.262.005.555-.102.878-.32C8.424 7.37 9.562 6.626 9.634 6.61c.05-.01.12-.025.168.016.048.042.043.12.037.142-.04.169-2.113 2.03-2.232 2.153l-.057.057c-.44.435-.884.719-.118 1.217.693.45 1.096.738 1.808 1.2.456.295.814.644 1.284.602.217-.02.44-.221.554-.821.268-1.416.796-4.486.918-5.752a1.39 1.39 0 0 0-.014-.314.336.336 0 0 0-.115-.216.537.537 0 0 0-.313-.094Z"/></g><defs><clipPath id="a"><path fill="#fff" d="M0 0h16v16H0z"/></clipPath></defs></svg>