<!-- Generated by IcoMoon.io -->
<svg version="1.1" xmlns="http://www.w3.org/2000/svg" width="32" height="32" viewBox="0 0 32 32">
<title>telegram</title>
<path fill="#fff" d="M16 0c8.837 0 16 7.163 16 16s-7.163 16-16 16v0c-8.837 0-16-7.163-16-16s7.163-16 16-16v0zM23.108 9.6c-0.61 0.012-1.546 0.332-6.048 2.18-3.16 1.318-6.308 2.658-9.45 4.020-0.768 0.3-1.168 0.596-1.206 0.884-0.070 0.552 0.736 0.724 1.752 1.050 0.826 0.266 1.94 0.576 2.52 0.59 0.524 0.010 1.11-0.204 1.756-0.64 4.416-2.944 6.692-4.432 6.836-4.464 0.1-0.020 0.24-0.050 0.336 0.032 0.096 0.084 0.086 0.24 0.074 0.284-0.080 0.338-4.226 4.060-4.464 4.306l-0.114 0.114c-0.88 0.87-1.768 1.438-0.236 2.434 1.386 0.9 2.192 1.476 3.616 2.4 0.912 0.59 1.628 1.288 2.568 1.204 0.434-0.040 0.88-0.442 1.108-1.642 0.536-2.832 1.592-8.972 1.836-11.504 0.004-0.057 0.007-0.124 0.007-0.191 0-0.154-0.013-0.306-0.037-0.453l0.002 0.016c-0.021-0.174-0.105-0.325-0.229-0.431l-0.001-0.001c-0.17-0.118-0.38-0.188-0.607-0.188-0.007 0-0.013 0-0.020 0h0.001z"></path>
</svg>
