<svg xmlns="http://www.w3.org/2000/svg" width="65" height="64" fill="none"><g clip-path="url(#a)"><path fill="#000" d="m32.34 14.299 6.54-8.07c8.195.451 15.828 2.422 22.778 5.64l-.389-.162c-2.188 2.874-5.074 5.106-8.403 6.453l-.135.048c-.386-3.837-3.05-4.773-11.506-4.773L32.343 64l-8.935-50.576c-8.404 0-11.068.944-11.456 4.779-3.462-1.384-6.345-3.606-8.499-6.424l-.034-.046C9.975 8.672 17.607 6.696 25.64 6.248l.161-.008 6.54 8.059h-.002Zm0-10.4c.283-.006.616-.006.949-.006 10.483 0 20.449 2.24 29.45 6.272l-.463-.184a23.963 23.963 0 0 0 1.718-3.549l.058-.168C54.668 2.363 43.78.069 32.366.003h-.026C20.903.067 10.012 2.36.052 6.477l.576-.21a30.889 30.889 0 0 0 1.858 3.888L2.404 10c8.557-3.861 18.544-6.11 29.053-6.11.312 0 .621.003.93.006h-.047v.003Z"/></g><defs><clipPath id="a"><path fill="#fff" d="M.633 0h64v64h-64z"/></clipPath></defs></svg>