<!-- Generated by IcoMoon.io -->
<svg version="1.1" xmlns="http://www.w3.org/2000/svg" width="32" height="32" viewBox="0 0 32 32">
<title>thumb-up-solid</title>
<path fill="#3da9f4" d="M0 0h32v32h-32z"></path>
<path fill="#fbed1f" d="M18.253 1.333c-0.591 0-1.109 0.309-1.403 0.773l-0.004 0.007-6.179 9.887v16h14.352c0 0 0 0 0 0 1.038 0 1.938-0.593 2.378-1.459l0.007-0.015 2.7-5.4c0.355-0.695 0.563-1.515 0.563-2.384 0-0 0-0.001 0-0.001v0-5.407c0-1.473-1.194-2.667-2.667-2.667v0h-8.667l1.355-6.322c0.035-0.157 0.055-0.337 0.055-0.521 0-1.375-1.115-2.49-2.49-2.49v0zM2.667 13.333c0-0.736 0.597-1.333 1.333-1.333v0h4v16h-4c-0.736 0-1.333-0.597-1.333-1.333v0-13.333z"></path>
</svg>
