<svg xmlns="http://www.w3.org/2000/svg" width="79" height="64" fill="none"><g clip-path="url(#a)"><path fill="#AB002F" d="M39.224 57.088c-.011-3.817 3.065-6.897 6.908-6.903 3.748.006 6.827 3.085 6.903 6.903-.075 3.774-3.154 6.854-6.903 6.907-3.843-.053-6.919-3.133-6.907-6.907Zm6.908 4.363c2.075-.032 3.792-1.982 3.813-4.363-.021-2.427-1.738-4.377-3.813-4.363-2.164-.014-3.886 1.935-3.817 4.363-.069 2.381 1.653 4.33 3.817 4.363Zm14.716-8.362v10.543h-2.905V53.089h-4.181V50.73h11.085v2.359h-3.999Zm7.45 7.631-1.088 2.912h-3.45l5.45-12.902h3.632l5.272 12.902h-3.45l-1.09-2.912h-5.276Zm2.73-2.178h1.814l-1.814-4.726-1.818 4.726h1.818ZM7.424 53.09v10.543H4.516V53.089H.52V50.73h10.904v2.359h-4Zm4.726 3.999a6.901 6.901 0 0 1 6.902-6.903c3.772.006 6.851 3.085 6.907 6.903-.056 3.774-3.135 6.854-6.907 6.907-3.822-.053-6.897-3.133-6.902-6.907Zm6.902 4.363c2.099-.032 3.815-1.982 3.817-4.363-.003-2.427-1.718-4.377-3.817-4.363-2.143-.014-3.862 1.935-3.812 4.363-.05 2.381 1.669 4.33 3.812 4.363ZM32.5 63.63h1.452v-4.907l5.09-7.994h-3.27L32.5 56.18l-3.09-5.45h-3.452l5.09 7.994v4.908H32.5Z"/><path fill="#000" d="M2.859 22.33c0 12.31 16.007 22.327 35.681 22.327 19.675 0 35.682-10.016 35.682-22.327C74.222 10.02 58.215.004 38.54.004 18.866.004 2.86 10.02 2.86 22.33Zm1.095 0c0-11.705 15.515-21.229 34.586-21.229 19.071 0 34.587 9.524 34.587 21.23 0 11.707-15.516 21.23-34.587 21.23-19.071 0-34.586-9.522-34.586-21.23Z"/><path fill="#000" d="M35.169 4.063c-8.351.51-14.417 2.723-15.45 5.64-.106.293-.16.603-.161.915 0 .492.139.984.415 1.454 1.159 1.975 4.756 3.603 9.876 4.477l.542.088.091-.541c.84-5.126 2.685-9.157 5.063-11.06l1.347-1.08-1.723.107ZM20.918 11.52a1.763 1.763 0 0 1-.266-.898c0-.186.032-.368.098-.553.789-2.228 6.15-4.174 12.999-4.801-1.954 2.21-3.456 5.77-4.24 10.097-4.45-.823-7.65-2.241-8.591-3.845Zm12.724 4.904-.107.595.604.046c1.433.107 2.914.165 4.4.165 1.488 0 2.97-.058 4.403-.165l.603-.046-.108-.595c-.823-4.626-2.656-7.389-4.897-7.389-2.243 0-4.075 2.763-4.898 7.389Zm4.898-6.294c1.533 0 2.947 2.295 3.693 5.877-1.212.079-2.446.128-3.694.128-1.246 0-2.48-.05-3.69-.128.742-3.582 2.16-5.877 3.691-5.877Zm2.994-5.094c2.377 1.903 4.224 5.935 5.065 11.06l.09.542.54-.089c5.122-.873 8.722-2.502 9.877-4.477.449-.758.534-1.578.257-2.369-1.034-2.916-7.1-5.13-15.45-5.64l-1.722-.107 1.343 1.08Zm1.8.232c6.847.628 12.207 2.577 12.994 4.8.069.186.1.368.1.554 0 .295-.089.594-.263.898-.944 1.604-4.145 3.022-8.594 3.845-.783-4.326-2.283-7.887-4.237-10.097Zm-28.9 6.583c-3.753 3.144-5.737 6.88-5.737 10.803 0 9.231 11.256 17.034 26.181 18.146l1.667.125-1.27-1.085c-3.269-2.797-5.3-9.434-5.3-17.322l.035-1.863-.458-.093c-7.85-1.407-13.435-4.708-14.23-8.405l-.19-.887-.698.582Zm-4.64 10.803c0-3.365 1.64-6.594 4.722-9.399 1.436 3.736 6.8 6.847 14.384 8.295-.01.427-.018.968-.018.968 0 7.314 1.735 13.63 4.598 17.038-13.6-1.451-23.687-8.554-23.687-16.902Zm23.402-.986-.003.198c0 7.332 2.299 12.864 5.347 12.864 3.048 0 5.347-5.532 5.347-12.864l-.008-.79-.587.05c-1.551.135-3.147.203-4.751.203a54.54 54.54 0 0 1-4.749-.203l-.59-.054-.006.596Zm9.59.587c-.083 6.822-2.232 11.38-4.246 11.38-2.015 0-4.165-4.558-4.245-11.38 1.392.103 2.814.167 4.245.167 1.433 0 2.851-.064 4.245-.167Zm18.971-10.098c-.794 3.697-6.38 6.997-14.228 8.405l-.46.085.036 1.871c0 7.888-2.031 14.525-5.3 17.322l-1.27 1.084L42.2 40.8c14.927-1.112 26.183-8.914 26.183-18.145 0-3.924-1.986-7.659-5.739-10.803l-.695-.582-.192.888Zm.805 1.098c3.084 2.805 4.727 6.034 4.727 9.4 0 8.347-10.087 15.45-23.688 16.901 2.863-3.408 4.598-9.724 4.598-17.038l-.018-.968c7.58-1.448 12.945-4.56 14.381-8.295Z"/><path fill="url(#b)" d="M62.145 9.339a4.174 4.174 0 0 1 .029 2.834c3.56 2.936 5.66 6.557 5.66 10.481 0 9.795-13.116 17.736-29.294 17.736-16.179 0-29.294-7.941-29.294-17.736 0-3.92 2.102-7.545 5.658-10.482a4.192 4.192 0 0 1-.101-2.41c.042-.155.1-.307.17-.452-4.86 3.462-7.805 7.998-7.805 12.967 0 10.849 14.045 19.642 31.372 19.642 17.325 0 31.372-8.793 31.372-19.642 0-4.958-2.934-9.485-7.767-12.938Z"/><path fill="url(#c)" d="M42.899 16.52c-1.383.104-2.84.16-4.36.16a58.33 58.33 0 0 1-4.357-.16h-.005l-.903.657c1.667.145 3.427.227 5.266.227s3.599-.082 5.267-.227l-.908-.657Zm16.024-6.882c-1.1-3.64-10.179-6.313-20.383-6.313C28.338 3.325 19.26 6 18.16 9.638c-.956 3.158 4.262 6.08 12.494 7.239l-.715-.87c-6.66-1.134-10.618-3.55-9.704-6.12 1.106-3.12 9.145-5.378 18.305-5.378s17.201 2.26 18.307 5.378c.912 2.57-3.044 4.986-9.706 6.12l-.712.87c8.229-1.159 13.45-4.081 12.495-7.239Z"/><path fill="url(#d)" d="M34.193 16.52c.764-4.248 2.423-6.903 4.346-6.903 1.926 0 3.583 2.655 4.349 6.903h.015l.895.649c-.755-5.61-2.823-9.196-5.257-9.196-2.436 0-4.503 3.586-5.257 9.196l.894-.649h.015Z"/><path fill="url(#e)" d="m44.069 20.348-.732 1.323c0 .096.005.195.005.296 0 7.042-2.154 12.381-4.802 12.381-2.651 0-4.8-5.34-4.8-12.381 0-.112.002-.222.004-.328l-.733-1.291a39.89 39.89 0 0 0-.032 1.611c0 7.984 2.49 14.032 5.562 14.032s5.563-6.048 5.563-14.032a40.078 40.078 0 0 0-.035-1.611Z"/><path fill="url(#f)" d="M30.665 16.88c1.052-7.798 4.18-13.555 7.876-13.555-3.962 0-7.34 5.1-8.592 12.697l.705.858h.011Z"/><path fill="url(#g)" d="M46.416 16.88h.008l.706-.858C45.879 8.426 42.5 3.325 38.54 3.325c3.696 0 6.825 5.757 7.877 13.555Z"/><path fill="url(#h)" d="m47.621 21.096-.898-1.072h-.007c.05.852.08 1.718.08 2.598 0 10.658-3.697 19.297-8.256 19.297 5.111 0 9.11-8.013 9.11-19.297 0-.516-.01-1.023-.029-1.526Z"/><path fill="url(#i)" d="M30.288 22.622c0-.88.028-1.746.078-2.598h-.006l-.9 1.07c-.02.509-.03 1.018-.03 1.528 0 11.284 4.002 19.297 9.11 19.297-4.556 0-8.252-8.64-8.252-19.297Z"/><path fill="#2D2F34" d="M62.174 12.172c1.361 1.123 2.51 2.348 3.408 3.65a12.556 12.556 0 0 0-2.396-5.7 24.4 24.4 0 0 0-1.041-.783 4.166 4.166 0 0 1 .03 2.833Zm-47.27 0a4.193 4.193 0 0 1-.101-2.41c.042-.156.1-.307.17-.452-.365.263-.725.534-1.079.813a12.606 12.606 0 0 0-2.395 5.699c.898-1.302 2.044-2.527 3.405-3.65Z"/><path fill="url(#j)" d="M3.406 22.33C3.406 10.304 19.136.552 38.541.552c19.402 0 35.131 9.752 35.131 21.778 0 12.03-15.73 21.777-35.131 21.777-19.406 0-35.135-9.748-35.135-21.777ZM38.54 41.92c17.325 0 31.372-8.795 31.372-19.643 0-10.85-14.047-19.647-31.372-19.647-17.327 0-31.373 8.797-31.373 19.647 0 10.848 14.046 19.642 31.373 19.642Z"/><path fill="url(#k)" d="M30.288 22.622c0-10.546 3.696-19.297 8.252-19.297 4.558 0 8.255 8.752 8.255 19.297 0 10.658-3.697 19.297-8.255 19.297-4.558 0-8.252-8.64-8.252-19.297Zm8.252 13.37c3.072 0 5.564-6.049 5.564-14.03 0-8.282-2.492-13.988-5.564-13.988S32.98 13.68 32.98 21.962c0 7.981 2.49 14.03 5.561 14.03Z"/><path fill="url(#l)" d="M14.803 9.762C15.708 6.177 26.659.96 38.54.96c11.88 0 22.455 3.728 23.738 8.803 1.436 5.688-9.118 10.836-23.738 10.836-14.622 0-25.175-5.147-23.737-10.836ZM38.54 3.325C28.338 3.325 19.26 6 18.159 9.638c-1.234 4.077 7.827 7.766 20.381 7.766 12.557 0 21.616-3.69 20.383-7.766-1.101-3.64-10.179-6.313-20.383-6.313Z"/><path fill="url(#m)" d="m33 20.337.007.005.754 1.329a55.2 55.2 0 0 0 9.581-.003l.733-1.327.005-.004c-1.765.168-3.615.26-5.54.26a58.369 58.369 0 0 1-5.54-.26Zm29.402-9.345c-.189 4.067-6.44 7.67-15.682 9.029l.004.003.901 1.077c9.042-1.625 14.99-5.618 14.777-10.11Zm-47.723 0c-.214 4.495 5.734 8.483 14.775 10.109l.903-1.077.003-.003c-9.243-1.358-15.49-4.962-15.681-9.03Z"/></g><defs><linearGradient id="b" x1="38.54" x2="38.54" y1="39.493" y2="14.678" gradientUnits="userSpaceOnUse"><stop stop-color="#F0F3F5"/><stop offset=".056" stop-color="#E2E5E8"/><stop offset=".138" stop-color="#D4D8DD"/><stop offset=".242" stop-color="#CCD0D6"/><stop offset=".44" stop-color="#CACED4"/><stop offset=".568" stop-color="#B3B7BD"/><stop offset=".835" stop-color="#797C83"/><stop offset="1" stop-color="#52545C"/></linearGradient><linearGradient id="c" x1="38.541" x2="38.541" y1="20.585" y2="7.138" gradientUnits="userSpaceOnUse"><stop stop-color="#F0F3F5"/><stop offset=".056" stop-color="#E2E5E8"/><stop offset=".138" stop-color="#D4D8DD"/><stop offset=".242" stop-color="#CCD0D6"/><stop offset=".44" stop-color="#CACED4"/><stop offset=".568" stop-color="#B3B7BD"/><stop offset=".835" stop-color="#797C83"/><stop offset="1" stop-color="#52545C"/></linearGradient><linearGradient id="d" x1="43.005" x2="34.608" y1="18.113" y2="11.068" gradientUnits="userSpaceOnUse"><stop stop-color="#F0F3F5"/><stop offset=".056" stop-color="#E2E5E8"/><stop offset=".138" stop-color="#D4D8DD"/><stop offset=".242" stop-color="#CCD0D6"/><stop offset=".44" stop-color="#CACED4"/><stop offset=".568" stop-color="#B3B7BD"/><stop offset=".835" stop-color="#797C83"/><stop offset="1" stop-color="#52545C"/></linearGradient><linearGradient id="e" x1="43.859" x2="31.616" y1="29.834" y2="22.765" gradientUnits="userSpaceOnUse"><stop stop-color="#F0F3F5"/><stop offset=".056" stop-color="#E2E5E8"/><stop offset=".138" stop-color="#D4D8DD"/><stop offset=".242" stop-color="#CCD0D6"/><stop offset=".44" stop-color="#CACED4"/><stop offset=".568" stop-color="#B3B7BD"/><stop offset=".835" stop-color="#797C83"/><stop offset="1" stop-color="#52545C"/></linearGradient><linearGradient id="f" x1="34.245" x2="34.245" y1=".551" y2="21.879" gradientUnits="userSpaceOnUse"><stop stop-color="#F0F3F5"/><stop offset=".056" stop-color="#E2E5E8"/><stop offset=".138" stop-color="#D4D8DD"/><stop offset=".242" stop-color="#CCD0D6"/><stop offset=".44" stop-color="#CACED4"/><stop offset=".568" stop-color="#B3B7BD"/><stop offset=".835" stop-color="#797C83"/><stop offset="1" stop-color="#52545C"/></linearGradient><linearGradient id="g" x1="42.835" x2="42.835" y1=".551" y2="21.879" gradientUnits="userSpaceOnUse"><stop stop-color="#F0F3F5"/><stop offset=".056" stop-color="#E2E5E8"/><stop offset=".138" stop-color="#D4D8DD"/><stop offset=".242" stop-color="#CCD0D6"/><stop offset=".44" stop-color="#CACED4"/><stop offset=".568" stop-color="#B3B7BD"/><stop offset=".835" stop-color="#797C83"/><stop offset="1" stop-color="#52545C"/></linearGradient><linearGradient id="h" x1="43.095" x2="43.095" y1=".371" y2="35.966" gradientUnits="userSpaceOnUse"><stop stop-color="#F0F3F5"/><stop offset=".056" stop-color="#E2E5E8"/><stop offset=".138" stop-color="#D4D8DD"/><stop offset=".242" stop-color="#CCD0D6"/><stop offset=".44" stop-color="#CACED4"/><stop offset=".568" stop-color="#B3B7BD"/><stop offset=".835" stop-color="#797C83"/><stop offset="1" stop-color="#52545C"/></linearGradient><linearGradient id="i" x1="33.985" x2="33.985" y1=".371" y2="35.966" gradientUnits="userSpaceOnUse"><stop stop-color="#F0F3F5"/><stop offset=".056" stop-color="#E2E5E8"/><stop offset=".138" stop-color="#D4D8DD"/><stop offset=".242" stop-color="#CCD0D6"/><stop offset=".44" stop-color="#CACED4"/><stop offset=".568" stop-color="#B3B7BD"/><stop offset=".835" stop-color="#797C83"/><stop offset="1" stop-color="#52545C"/></linearGradient><linearGradient id="j" x1="38.539" x2="38.539" y1=".552" y2="44.107" gradientUnits="userSpaceOnUse"><stop stop-color="#F0F3F5"/><stop offset=".253" stop-color="#EDF0F3"/><stop offset=".406" stop-color="#E5E8EA"/><stop offset=".531" stop-color="#D7DADC"/><stop offset=".642" stop-color="#C3C5C9"/><stop offset=".744" stop-color="#A9ABAF"/><stop offset=".839" stop-color="#888B90"/><stop offset=".926" stop-color="#63656B"/><stop offset="1" stop-color="#3D3F46"/></linearGradient><linearGradient id="k" x1="38.541" x2="38.541" y1=".55" y2="44.108" gradientUnits="userSpaceOnUse"><stop stop-color="#F0F3F5"/><stop offset=".253" stop-color="#EDF0F3"/><stop offset=".406" stop-color="#E5E8EA"/><stop offset=".531" stop-color="#D7DADC"/><stop offset=".642" stop-color="#C3C5C9"/><stop offset=".744" stop-color="#A9ABAF"/><stop offset=".839" stop-color="#888B90"/><stop offset=".926" stop-color="#63656B"/><stop offset="1" stop-color="#3D3F46"/></linearGradient><linearGradient id="l" x1="38.54" x2="38.54" y1=".555" y2="44.111" gradientUnits="userSpaceOnUse"><stop stop-color="#F0F3F5"/><stop offset=".253" stop-color="#EDF0F3"/><stop offset=".406" stop-color="#E5E8EA"/><stop offset=".531" stop-color="#D7DADC"/><stop offset=".642" stop-color="#C3C5C9"/><stop offset=".744" stop-color="#A9ABAF"/><stop offset=".839" stop-color="#888B90"/><stop offset=".926" stop-color="#63656B"/><stop offset="1" stop-color="#3D3F46"/></linearGradient><linearGradient id="m" x1="38.541" x2="38.541" y1="9.586" y2="21.999" gradientUnits="userSpaceOnUse"><stop stop-color="#CACED4"/><stop offset="1" stop-color="#52545C"/></linearGradient><clipPath id="a"><path fill="#fff" d="M.52 0h77.594v64H.52z"/></clipPath></defs></svg>