<svg xmlns="http://www.w3.org/2000/svg" width="65" height="64" fill="none"><g clip-path="url(#a)"><path fill="#BCBCB6" d="M32.962 11.238c5.646 0 10.666 2.355 14.326 6.1 3.765 3.746 5.961 8.99 5.961 14.768 0 5.67-2.196 10.916-5.96 14.66-3.662 3.747-8.682 6.1-14.328 6.1-5.647 0-10.666-2.355-14.43-6.1a21.042 21.042 0 0 1-5.962-14.66c0-5.78 2.301-11.022 5.961-14.77 3.765-3.743 8.784-6.098 14.431-6.098Zm0 .321c-5.296.007-10.373 2.162-14.118 5.993-3.662 3.746-5.96 8.882-5.96 14.554 0 5.67 2.3 10.807 5.96 14.447 3.555 3.746 8.574 5.993 14.117 5.993 5.543 0 10.563-2.249 14.118-5.993 3.662-3.638 5.856-8.775 5.856-14.447 0-5.672-2.196-10.808-5.856-14.554-3.745-3.832-8.822-5.987-14.117-5.993Z"/><path fill="url(#b)" d="M32.961.216c7.111 0 13.7 2.46 18.928 6.528l3.451-3.532 6.066 6.207-3.451 3.639c3.87 5.35 6.065 11.879 6.065 18.942 0 17.55-13.908 31.89-31.059 31.89-17.15 0-31.058-14.34-31.058-31.89C1.903 14.448 15.81.216 32.96.216Zm0 7.491C19.89 7.707 9.223 18.623 9.223 32c0 13.483 10.667 24.292 23.738 24.292C46.033 56.292 56.7 45.483 56.7 32c0-13.377-10.667-24.293-23.739-24.293Z"/><path fill="url(#c)" d="M32.961 7.6c6.589 0 12.55 2.675 16.942 7.17a24.453 24.453 0 0 1 5.196 7.952 24.905 24.905 0 0 1 1.81 9.384c0 6.74-2.719 12.842-7.006 17.337C45.51 53.829 39.55 56.61 32.96 56.61c-6.35-.006-12.44-2.583-16.94-7.168-4.288-4.495-7.007-10.596-7.007-17.337 0-6.849 2.719-12.95 7.006-17.336 4.288-4.495 10.353-7.17 16.941-7.17Zm0 .32c-6.483 0-12.444 2.676-16.732 7.064-4.287 4.388-6.902 10.38-6.902 17.122 0 6.635 2.615 12.734 6.902 17.123 4.287 4.28 10.249 7.063 16.732 7.063 6.484 0 12.445-2.783 16.734-7.063a24.246 24.246 0 0 0 5.115-7.859 24.69 24.69 0 0 0 1.787-9.264c0-6.742-2.616-12.735-6.902-17.124-4.442-4.531-10.461-7.071-16.734-7.061Z"/><path fill="url(#d)" d="M32.961.001c7.111 0 13.804 2.462 19.033 6.635l-.105.107C46.447 2.508 39.8.215 32.961.215 15.811.215 1.903 14.447 1.903 32c0 17.55 13.908 31.89 31.058 31.89S64.021 49.55 64.021 32c0-7.063-2.197-13.592-6.066-18.942l.104-.107C61.93 18.302 64.23 24.83 64.23 32c0 8.882-3.555 16.908-9.202 22.687-5.649 5.78-13.386 9.312-22.066 9.312a30.524 30.524 0 0 1-11.939-2.407 31.1 31.1 0 0 1-10.126-6.905C5.249 48.8 1.693 40.881 1.693 32a32.34 32.34 0 0 1 9.203-22.58C16.543 3.64 24.282 0 32.961 0Z"/><path fill="url(#e)" d="M32.962 7.814c13.071 0 23.738 10.808 23.738 24.294C56.7 45.485 46.033 56.4 32.961 56.4 19.89 56.4 9.224 45.483 9.224 32.106c0-13.484 10.667-24.292 23.739-24.292Zm0 3.424c-11.19 0-20.288 9.31-20.288 20.868 0 11.45 9.098 20.761 20.288 20.761 11.189 0 20.287-9.311 20.287-20.76 0-11.558-9.098-20.869-20.288-20.869Z"/><path fill="url(#f)" d="M4.584 39.712c0 .031.007.058.023.085.013.025.035.035.067.035a.15.15 0 0 0 .068-.017.343.343 0 0 0 .073-.054v-.236c-.087.014-.147.035-.18.067a.16.16 0 0 0-.051.12Z" opacity=".67"/><path fill="url(#g)" d="M9.01 39.035h.147v.127h-.146v-.127Z" opacity=".67"/><path fill="url(#h)" d="M9.01 39.187h.147v.13h-.146v-.13Z" opacity=".67"/><path fill="url(#i)" d="M6.055 39.712c0 .031.009.058.023.085.013.025.035.035.067.035a.146.146 0 0 0 .069-.017.345.345 0 0 0 .072-.054v-.236c-.087.014-.147.035-.18.067a.16.16 0 0 0-.05.12Z" opacity=".67"/><path fill="url(#j)" d="M9.647 39.257h.4v.195h-.4v-.195Z" opacity=".67"/><path fill="url(#k)" d="M13.698 38.583H2.578a32.111 32.111 0 0 0 1.088 3.902h11.75a20.977 20.977 0 0 1-1.718-3.902Zm-4.741.248.086.055-.03.036v.09h.139l.03-.05.058.07-.03.036v.095h.016l.042-.055.06.08h-.121l.003.171-.054.033v-.05h-.145v.146h.11l.038-.06.058.086h-.206v.135h.18l.042-.07.065.092h-.287c0 .057.001.118.007.182l-.061.03c.003-.078.006-.148.006-.212h-.154c-.02 0-.04.005-.058.015l-.035-.04h.247v-.135H8.85c-.022 0-.035.004-.047.015l-.03-.04h.189v-.146H8.85c-.022 0-.035.004-.047.016l-.03-.041h.189v-.13h-.166c-.022 0-.035.005-.045.015l-.03-.04h.242v-.125h-.106c-.022 0-.036.006-.046.016l-.03-.04h.18c0-.06-.001-.12-.005-.18Zm-4.575 1.03h-.3v-.03h.09c.014 0 .022-.004.028-.011.006-.008.008-.017.008-.03v-.716c0-.01-.002-.021-.008-.03a.039.039 0 0 0-.029-.012h-.087v-.03h.044a.21.21 0 0 0 .126-.041h.007v.828c0 .013.003.023.009.03.007.005.014.01.026.01h.09v.031h-.004v.002Zm.546-.026c-.013.02-.03.03-.05.03a.059.059 0 0 1-.042-.015.116.116 0 0 1-.023-.05.465.465 0 0 1-.071.053.17.17 0 0 1-.08.017.132.132 0 0 1-.106-.043.13.13 0 0 1-.038-.095c0-.06.02-.11.06-.15.04-.037.118-.065.235-.083v-.061a.18.18 0 0 0-.017-.083c-.013-.024-.038-.033-.08-.033s-.074.009-.09.03c-.018.019-.026.035-.02.056a.064.064 0 0 1 0 .04.034.034 0 0 1-.011.015.032.032 0 0 1-.032.003.03.03 0 0 1-.011-.009.065.065 0 0 1-.012-.035c0-.032.018-.06.05-.088a.19.19 0 0 1 .122-.039c.05 0 .09.012.114.036.028.027.038.06.038.107v.331c0 .029.001.043.006.048.004.004.01.007.022.007.013 0 .023-.007.027-.022a.227.227 0 0 0 .007-.062h.02c0 .044-.005.077-.018.095Zm.498.026h-.161v-.03h.02c.013 0 .022-.004.028-.011.006-.008.006-.015.006-.028v-.338a.182.182 0 0 0-.02-.092.063.063 0 0 0-.056-.033.112.112 0 0 0-.071.032.272.272 0 0 0-.067.086v.346c0 .014.003.024.01.03.006.006.015.01.025.01h.019v.032h-.161v-.032h.019c.014 0 .023-.003.029-.01.005-.008.007-.017.007-.03v-.432a.053.053 0 0 0-.005-.024c-.002-.005-.008-.008-.016-.008h-.034v-.03h.027a.138.138 0 0 0 .038-.004.073.073 0 0 0 .033-.022h.008v.116a.376.376 0 0 1 .068-.075.114.114 0 0 1 .073-.025c.043 0 .075.015.095.043.023.042.034.09.03.137v.321c0 .014.004.024.011.03.007.006.016.01.026.01h.02v.032Zm.408-.038a.102.102 0 0 1-.088.044.095.095 0 0 1-.086-.044.27.27 0 0 1-.03-.141v-.351h-.11v-.03h.03a.091.091 0 0 0 .076-.037c.02-.025.03-.064.035-.117l.003-.04h.024v.196h.152v.03h-.152v.37c0 .048.007.081.02.096.013.018.03.025.058.025a.072.072 0 0 0 .061-.03.22.22 0 0 0 .03-.093l.02.01a.259.259 0 0 1-.043.112Zm.565.012c-.013.02-.029.03-.05.03-.017 0-.03-.005-.04-.015-.011-.01-.019-.029-.025-.05a.465.465 0 0 1-.07.053.161.161 0 0 1-.08.017.134.134 0 0 1-.1-.037.142.142 0 0 1-.044-.1.213.213 0 0 1 .06-.15c.038-.038.117-.066.234-.084v-.061a.18.18 0 0 0-.017-.083c-.012-.024-.038-.033-.078-.033-.044 0-.076.009-.092.03-.017.019-.025.035-.019.056a.063.063 0 0 1 0 .04.032.032 0 0 1-.03.021.03.03 0 0 1-.025-.012.065.065 0 0 1-.01-.035c0-.032.016-.06.05-.088a.186.186 0 0 1 .121-.039c.05 0 .09.012.115.036.026.027.036.06.036.107v.331c0 .029.002.043.006.048.004.004.01.007.023.007s.022-.007.027-.022a.227.227 0 0 0 .007-.062h.019a.174.174 0 0 1-.018.095Zm.477-.431c-.006.012-.016.016-.03.016-.014 0-.024-.004-.03-.016a.055.055 0 0 1-.006-.039l-.003-.027c-.001-.004-.008-.009-.021-.009-.022 0-.045.017-.076.05a.463.463 0 0 0-.078.142v.272c0 .014.003.024.008.03.006.006.015.01.026.01h.085v.032h-.282v-.032h.078c.013 0 .022-.003.028-.01.006-.008.007-.017.007-.03v-.416a.073.073 0 0 0-.007-.033c-.006-.007-.015-.012-.028-.012H6.47v-.03h.03a.283.283 0 0 0 .122-.026h.012v.181a.496.496 0 0 1 .083-.123.126.126 0 0 1 .09-.042c.026 0 .045.008.06.023.014.014.021.03.021.05-.001.018-.004.031-.011.039Zm1.082.267v.2c0 .07-.03.12-.085.147-.001-.05-.042-.087-.119-.109v-.02l.11.011c.025.002.034-.02.034-.062v-.167H7.59a.179.179 0 0 0-.077.015l-.03-.038H7.9l-.003-.146.05.03.1-.115h-.314l-.034.015-.03-.04h.379l.042-.05.068.099c-.035-.006-.1.028-.199.105l.038.026-.038.03v.044h.257l.054-.07.077.095h-.39Zm.39-.3c-.036 0-.066.02-.084.06a.603.603 0 0 1-.306-.38h-.022c0 .155.001.25.003.28l-.066.022c.003-.074.005-.165.005-.278a.858.858 0 0 1-.403.41l-.002-.022a.958.958 0 0 0 .351-.413h-.237a.177.177 0 0 0-.077.015l-.03-.04h.398l-.005-.18.1.055-.037.034v.09h.282l.053-.07.069.096h-.363a.48.48 0 0 0 .371.3v.021Zm.99.541c-.051.02-.076.043-.07.076a3.23 3.23 0 0 1-.241 0 .59.59 0 0 1-.231-.05.453.453 0 0 1-.159-.117.592.592 0 0 1-.18.195l-.011-.015a.68.68 0 0 0 .164-.226.982.982 0 0 1-.092-.255l.016-.01c.024.074.055.145.092.212a1.66 1.66 0 0 0 .054-.34h-.112l-.03.054-.053-.07.045-.026a5.99 5.99 0 0 0 .13-.295h-.124l-.044.015-.03-.04h.204l.034-.055.054.082-.043.025c-.042.09-.09.186-.137.286h.103l.03-.045.058.07-.033.034a1.774 1.774 0 0 1-.068.35.304.304 0 0 0 .136.094.698.698 0 0 0 .205.042c.077.008.189 0 .337-.012l-.005.021Zm.944-.01c-.045.01-.073.035-.08.081a1 1 0 0 1-.19-.1.58.58 0 0 1-.146-.152.74.74 0 0 1-.097-.253h-.122v.401l.206-.116.007.015a.822.822 0 0 0-.236.213l-.045-.085a.126.126 0 0 0 .018-.06v-.725c0-.053-.001-.1-.004-.14l.054.05h.194a.398.398 0 0 0-.065-.174l.007-.017c.064.037.1.07.11.1.008.03 0 .06-.027.09h.173l.03-.048.061.07-.034.03v.285l.003.13-.054.026v-.045h-.253a.775.775 0 0 0 .103.218.852.852 0 0 0 .238-.2l.057.1h-.045c-.077.034-.152.077-.234.118.048.058.11.103.179.13a.552.552 0 0 0 .193.035l-.001.023Z" opacity=".67"/><path fill="url(#l)" d="M9.647 39.057h.4v.175h-.4v-.175Z" opacity=".67"/><path fill="url(#m)" d="M52.24 38.583h11.12a31.597 31.597 0 0 1-1.089 3.902h-11.75a20.883 20.883 0 0 0 1.72-3.902Z" opacity=".86"/><path fill="#000" d="M63.916 23.973c.732 2.57 1.046 5.244 1.046 8.026 0 2.89-.419 5.67-1.046 8.348H2.112v-.108h61.7c.731-2.675 1.045-5.457 1.045-8.347 0-2.782-.314-5.457-.941-7.919Z"/><path fill="url(#n)" d="M2.007 23.867h61.909c.627 2.568.94 5.242.94 8.024 0 2.89-.314 5.672-1.046 8.348H2.112a31.49 31.49 0 0 1-1.15-8.346c0-2.783.418-5.458 1.045-8.026Z"/><path fill="url(#o)" d="m56.595 1.07 6.902 7.065-5.124 5.244.314.428-3.66 2.995-1.15.43 7.529-7.813-6.066-6.207-7.529 7.705.314-1.07 8.47-8.777Z"/><path fill="url(#p)" d="M49.693.323C55.76 3.64 60.673 8.777 64.02 14.877V.323H49.693Z"/><path stroke="#A7A79C" stroke-linecap="round" stroke-width=".505" d="M49.693.323C55.76 3.64 60.673 8.777 64.02 14.877"/><path stroke="#C2C2B9" stroke-linecap="round" stroke-width=".351" d="M49.693.323c6.003 3.36 10.939 8.411 14.223 14.554"/><path stroke="#E0E0D8" stroke-linecap="round" stroke-width=".196" d="M49.589.323c6.065 3.317 10.98 8.454 14.327 14.66"/><path stroke="#fff" stroke-linecap="round" stroke-width=".042" d="M49.589.323c5.96 3.426 10.98 8.454 14.222 14.66"/><path fill="url(#q)" d="M64.02.001c.105 0 .21.107.21.322H49.484c.001-.215.106-.322.21-.322H64.02Z"/><path fill="url(#r)" d="M64.23 14.877c0 .215-.105.322-.211.322l-.104-.215V0h.104c.104 0 .21.107.21.322v14.554Z"/><path fill="#fff" d="M55.34 36.003c-2.791 0-5.061-1.75-5.061-3.897 0-2.15 2.27-3.897 5.061-3.897 2.85 0 5.168 1.748 5.168 3.897 0 2.15-2.318 3.897-5.168 3.897Zm0-6.635c-1.003 0-1.734 1.152-1.734 2.74 0 1.5.747 2.63 1.734 2.63.939 0 1.735-1.205 1.735-2.63.001-1.512-.779-2.74-1.735-2.74Zm-31.79 6.635c-2.793 0-5.064-1.75-5.064-3.897 0-2.056 2.319-3.792 5.064-3.792 2.85 0 5.167 1.702 5.167 3.792 0 2.15-2.318 3.897-5.167 3.897Zm0-6.528c-.99 0-1.735 1.131-1.735 2.633 0 1.5.747 2.63 1.735 2.63.938 0 1.732-1.205 1.732-2.63 0-1.426-.791-2.633-1.732-2.633Zm18.614 6.314-3.28-6.229-1.634.025-.043-1.007 7.155-.045.043 1.008-1.821.044 2.547 4.321 2.12-4.386-1.216.064-.044-1.008 4.959-.044.043 1.007-1.716.045-3.216 6.207h-3.897v-.002Zm-13.072 0-.043-1.221 1.718-.044-.044-4.985-1.63.045-.043-1.008 6.632-.044.043 1.007-1.718.045.044 4.985 1.734-.043c.564 0 2.048-.378 2.151-2.099l1.09-.041.043 3.406h-9.977v-.003Zm-18.719 0-3.28-6.229-1.633.025-.044-1.007 7.155-.045.043 1.008-1.821.044 2.548 4.321 2.225-4.386-1.322.065-.044-1.007 4.959-.045.044 1.008-1.719.044-3.215 6.207-3.896-.003Z"/><path fill="#39393C" d="M55.34 28.253c2.824 0 5.125 1.713 5.125 3.855 0 2.138-2.3 3.852-5.124 3.852-2.72 0-5.02-1.712-5.02-3.852 0-2.142 2.3-3.854 5.02-3.854Zm0 6.528c.94 0 1.778-1.177 1.778-2.675 0-1.605-.836-2.782-1.777-2.782-1.046 0-1.78 1.177-1.78 2.782.002 1.498.734 2.675 1.78 2.675Zm-31.79-6.42c2.822 0 5.122 1.712 5.122 3.747 0 2.138-2.3 3.852-5.122 3.852-2.72 0-5.02-1.712-5.02-3.852 0-2.035 2.3-3.747 5.02-3.747Zm0 6.42c.94 0 1.777-1.177 1.777-2.675 0-1.5-.836-2.677-1.777-2.677-1.047 0-1.78 1.177-1.78 2.677.002 1.498.734 2.675 1.78 2.675Zm27.398-6.206v.961h-1.671l-3.242 6.207h-3.87l-3.24-6.207h-1.673v-.962h7.111v.962h-1.778l2.512 4.388 2.196-4.388h-1.255v-.962h4.91Zm-15.267 0v.961h-1.674v5.03h1.78c.627 0 2.09-.428 2.196-2.139h1.045v3.316h-9.936v-1.177h1.673v-5.03h-1.673v-.962h6.589Zm-16.523 0v.961h-1.674l-3.24 6.207h-3.87L7.13 29.536H5.458v-.962h7.111v.962h-1.777l2.51 4.388 2.3-4.388h-1.36v-.962h4.916Zm36.183-.41c-2.815 0-5.109 1.767-5.109 3.941 0 2.173 2.29 3.94 5.109 3.94 2.874 0 5.21-1.765 5.21-3.94 0-2.176-2.337-3.942-5.21-3.942Zm0 6.527c-.965 0-1.691-1.111-1.691-2.584 0-1.563.71-2.694 1.69-2.694.933 0 1.691 1.209 1.691 2.694 0 1.4-.774 2.584-1.69 2.584Zm-31.791-6.42c-2.769 0-5.108 1.756-5.108 3.834 0 2.173 2.29 3.94 5.108 3.94 2.874 0 5.211-1.765 5.211-3.94 0-2.115-2.337-3.835-5.211-3.835Zm0 6.42c-.965 0-1.69-1.111-1.69-2.584 0-1.475.725-2.587 1.69-2.587.916 0 1.689 1.185 1.689 2.587.001 1.4-.773 2.584-1.69 2.584Zm27.486-6.207h-5.091v1.143h1.2l-2.057 4.113-2.352-4.114h1.714v-1.143h-7.287v1.143h1.707l3.217 6.16.025.047h3.974l.024-.048 3.219-6.16h1.708v-1.14h-.001Zm-15.268 0h-6.763v1.143h1.673v4.852h-1.673v1.357h10.11v-3.498H37.9l-.006.085c-.103 1.687-1.557 2.057-2.109 2.057h-1.69V29.63h1.673v-1.145Zm-16.523 0h-5.09v1.143h1.302l-2.159 4.117-2.354-4.117h1.715v-1.143H5.371v1.143H7.08l3.219 6.16.024.047h3.973l.024-.047 3.218-6.16h1.708v-1.143Z"/><path fill="url(#s)" d="M2.12 23.99c-.627 2.568-1.045 5.242-1.045 8.024 0 .23.077 1.593.084 1.824l.181 2.067c-.002-.166-.084-3.536-.084-3.704 0-2.782.453-5.361 1.08-7.93l21.908-.093 9.455-.186L2.12 23.99Z"/></g><defs><linearGradient id="c" x1="20.703" x2="44.074" y1="27.775" y2="35.639" gradientUnits="userSpaceOnUse"><stop stop-color="#DCDBD3"/><stop offset="1" stop-color="#fff"/></linearGradient><linearGradient id="f" x1="4.699" x2="4.699" y1="39.847" y2="39.667" gradientUnits="userSpaceOnUse"><stop stop-color="#fff"/><stop offset=".17" stop-color="#F8F8F5"/><stop offset=".427" stop-color="#B1B1AC"/><stop offset=".435" stop-color="#ADAEA8"/><stop offset=".534" stop-color="#898984"/><stop offset=".633" stop-color="#6C6C67"/><stop offset=".731" stop-color="#53534E"/><stop offset=".825" stop-color="#3E3E3A"/><stop offset=".916" stop-color="#252523"/><stop offset="1" stop-color="#1B1A19"/></linearGradient><linearGradient id="g" x1="9.083" x2="9.083" y1="39.169" y2="39.096" gradientUnits="userSpaceOnUse"><stop stop-color="#fff"/><stop offset=".17" stop-color="#F8F8F5"/><stop offset=".427" stop-color="#B1B1AC"/><stop offset=".435" stop-color="#ADAEA8"/><stop offset=".534" stop-color="#898984"/><stop offset=".633" stop-color="#6C6C67"/><stop offset=".731" stop-color="#53534E"/><stop offset=".825" stop-color="#3E3E3A"/><stop offset=".916" stop-color="#252523"/><stop offset="1" stop-color="#1B1A19"/></linearGradient><linearGradient id="h" x1="9.083" x2="9.083" y1="39.324" y2="39.248" gradientUnits="userSpaceOnUse"><stop stop-color="#fff"/><stop offset=".17" stop-color="#F8F8F5"/><stop offset=".427" stop-color="#B1B1AC"/><stop offset=".435" stop-color="#ADAEA8"/><stop offset=".534" stop-color="#898984"/><stop offset=".633" stop-color="#6C6C67"/><stop offset=".731" stop-color="#53534E"/><stop offset=".825" stop-color="#3E3E3A"/><stop offset=".916" stop-color="#252523"/><stop offset="1" stop-color="#1B1A19"/></linearGradient><linearGradient id="i" x1="6.17" x2="6.17" y1="39.847" y2="39.667" gradientUnits="userSpaceOnUse"><stop stop-color="#fff"/><stop offset=".17" stop-color="#F8F8F5"/><stop offset=".427" stop-color="#B1B1AC"/><stop offset=".435" stop-color="#ADAEA8"/><stop offset=".534" stop-color="#898984"/><stop offset=".633" stop-color="#6C6C67"/><stop offset=".731" stop-color="#53534E"/><stop offset=".825" stop-color="#3E3E3A"/><stop offset=".916" stop-color="#252523"/><stop offset="1" stop-color="#1B1A19"/></linearGradient><linearGradient id="j" x1="9.847" x2="9.847" y1="39.463" y2="39.349" gradientUnits="userSpaceOnUse"><stop stop-color="#fff"/><stop offset=".17" stop-color="#F8F8F5"/><stop offset=".427" stop-color="#B1B1AC"/><stop offset=".435" stop-color="#ADAEA8"/><stop offset=".534" stop-color="#898984"/><stop offset=".633" stop-color="#6C6C67"/><stop offset=".731" stop-color="#53534E"/><stop offset=".825" stop-color="#3E3E3A"/><stop offset=".916" stop-color="#252523"/><stop offset="1" stop-color="#1B1A19"/></linearGradient><linearGradient id="k" x1="8.996" x2="8.996" y1="42.672" y2="40.38" gradientUnits="userSpaceOnUse"><stop stop-color="#fff"/><stop offset=".17" stop-color="#F8F8F5"/><stop offset=".427" stop-color="#B1B1AC"/><stop offset=".435" stop-color="#ADAEA8"/><stop offset=".534" stop-color="#898984"/><stop offset=".633" stop-color="#6C6C67"/><stop offset=".731" stop-color="#53534E"/><stop offset=".825" stop-color="#3E3E3A"/><stop offset=".916" stop-color="#252523"/><stop offset="1" stop-color="#1B1A19"/></linearGradient><linearGradient id="l" x1="9.847" x2="9.847" y1="39.241" y2="39.138" gradientUnits="userSpaceOnUse"><stop stop-color="#fff"/><stop offset=".17" stop-color="#F8F8F5"/><stop offset=".427" stop-color="#B1B1AC"/><stop offset=".435" stop-color="#ADAEA8"/><stop offset=".534" stop-color="#898984"/><stop offset=".633" stop-color="#6C6C67"/><stop offset=".731" stop-color="#53534E"/><stop offset=".825" stop-color="#3E3E3A"/><stop offset=".916" stop-color="#252523"/><stop offset="1" stop-color="#1B1A19"/></linearGradient><linearGradient id="m" x1="56.944" x2="56.944" y1="42.671" y2="40.379" gradientUnits="userSpaceOnUse"><stop stop-color="#fff"/><stop offset=".17" stop-color="#F8F8F5"/><stop offset=".427" stop-color="#B1B1AC"/><stop offset=".435" stop-color="#ADAEA8"/><stop offset=".534" stop-color="#898984"/><stop offset=".633" stop-color="#6C6C67"/><stop offset=".731" stop-color="#53534E"/><stop offset=".825" stop-color="#3E3E3A"/><stop offset=".916" stop-color="#252523"/><stop offset="1" stop-color="#1B1A19"/></linearGradient><linearGradient id="o" x1="62.887" x2="46.799" y1="16.977" y2="1.254" gradientUnits="userSpaceOnUse"><stop offset=".006" stop-color="#121209"/><stop offset=".646" stop-color="#454441"/><stop offset=".65" stop-color="#484845"/><stop offset=".655" stop-color="#535350"/><stop offset=".66" stop-color="#646561"/><stop offset=".664" stop-color="#7B7B77"/><stop offset=".669" stop-color="#969792"/><stop offset=".674" stop-color="#BBBBB7"/><stop offset=".678" stop-color="#E8E7E2"/><stop offset=".68" stop-color="#FBFAF5"/><stop offset=".682" stop-color="#F8F7F2"/><stop offset=".684" stop-color="#F0F0EA"/><stop offset=".685" stop-color="#E4E3DD"/><stop offset=".686" stop-color="#D2D2CC"/><stop offset=".687" stop-color="#BBBCB5"/><stop offset=".689" stop-color="#83847D"/><stop offset=".69" stop-color="#6D6D67"/><stop offset=".706" stop-color="#5F5F5B"/><stop offset=".732" stop-color="#4D4D4B"/><stop offset=".762" stop-color="#3B3A3A"/><stop offset=".8" stop-color="#242324"/><stop offset=".853" stop-color="#101010"/><stop offset="1"/></linearGradient><linearGradient id="q" x1="49.484" x2="64.23" y1=".162" y2=".162" gradientUnits="userSpaceOnUse"><stop stop-color="#5D5E60"/><stop offset=".019" stop-color="#5B5B5D"/><stop offset=".205" stop-color="#484846"/><stop offset=".41" stop-color="#343431"/><stop offset=".649" stop-color="#222120"/><stop offset="1" stop-color="#1B1A19"/></linearGradient><linearGradient id="r" x1="64.072" x2="64.072" y1="15.199" y2=".003" gradientUnits="userSpaceOnUse"><stop stop-color="#5D5E60"/><stop offset=".386" stop-color="#464543"/><stop offset=".742" stop-color="#2A2927"/><stop offset="1" stop-color="#1B1A19"/></linearGradient><linearGradient id="s" x1="9.51" x2="19.236" y1="18.86" y2="31.715" gradientUnits="userSpaceOnUse"><stop stop-color="#fff"/><stop offset=".109" stop-color="#D5DDF0"/><stop offset=".338" stop-color="#94ADD9"/><stop offset=".542" stop-color="#668FC9"/><stop offset=".714" stop-color="#447DBF"/><stop offset=".848" stop-color="#2A74BA"/><stop offset=".927" stop-color="#1E71B8"/><stop offset=".947" stop-color="#4079BC"/><stop offset=".967" stop-color="#5580C0"/><stop offset=".985" stop-color="#6085C2"/><stop offset="1" stop-color="#6486C3"/></linearGradient><radialGradient id="b" cx="0" cy="0" r="1" gradientTransform="matrix(64.8729 0 0 66.3865 10.754 25.733)" gradientUnits="userSpaceOnUse"><stop stop-color="#fff"/><stop offset=".041" stop-color="#FAFAF8"/><stop offset=".225" stop-color="#F8F8F5"/><stop offset=".287" stop-color="#DADAD7"/><stop offset=".413" stop-color="#A3A4A1"/><stop offset=".52" stop-color="#7E7F7D"/><stop offset=".6" stop-color="#686866"/><stop offset=".646" stop-color="#5F5F5D"/><stop offset=".739" stop-color="#565754"/><stop offset=".899" stop-color="#3B3A37"/><stop offset="1"/></radialGradient><radialGradient id="d" cx="0" cy="0" r="1" gradientTransform="matrix(71.1968 0 0 72.858 51.422 52.485)" gradientUnits="userSpaceOnUse"><stop stop-color="#BBBCB7"/><stop offset="1" stop-color="#808079"/></radialGradient><radialGradient id="e" cx="0" cy="0" r="1" gradientTransform="matrix(49.9956 0 0 51.1621 44.161 43.567)" gradientUnits="userSpaceOnUse"><stop stop-color="#fff"/><stop offset=".157" stop-color="#F1F1F2"/><stop offset=".298" stop-color="#E4E4E5"/><stop offset=".335" stop-color="#CECFCE"/><stop offset=".4" stop-color="#AEAFAC"/><stop offset=".464" stop-color="#969694"/><stop offset=".526" stop-color="#858683"/><stop offset=".586" stop-color="#7C7C79"/><stop offset=".64" stop-color="#787976"/><stop offset=".738" stop-color="#5E5E5B"/><stop offset=".846" stop-color="#43423F"/><stop offset=".937" stop-color="#1F1F1E"/><stop offset="1"/></radialGradient><radialGradient id="n" cx="0" cy="0" r="1" gradientTransform="matrix(40.3617 0 0 41.3034 3.858 25.735)" gradientUnits="userSpaceOnUse"><stop stop-color="#1E71B8"/><stop offset=".082" stop-color="#1C69AB"/><stop offset=".166" stop-color="#1B64A4"/><stop offset=".242" stop-color="#1A63A1"/><stop offset=".392" stop-color="#185D98"/><stop offset=".685" stop-color="#0F4D80"/><stop offset=".837" stop-color="#004472"/><stop offset=".933" stop-color="#014472"/><stop offset=".968" stop-color="#064271"/><stop offset=".993" stop-color="#0D3F6F"/><stop offset="1" stop-color="#0F3D6E"/></radialGradient><radialGradient id="p" cx="0" cy="0" r="1" gradientTransform="matrix(16.8671 0 0 17.2606 61.592 1.952)" gradientUnits="userSpaceOnUse"><stop stop-color="#575652"/><stop offset="1" stop-color="#52524E"/></radialGradient><clipPath id="a"><path fill="#fff" d="M.961 0h64v64h-64z"/></clipPath></defs></svg>