<svg xmlns="http://www.w3.org/2000/svg" width="40" height="40" fill="none"><path fill="#3DA9F4" d="M0 0h40v40H0z"/><path fill="#FBED1F" d="M17.216 8a2 2 0 0 0-1.977 1.696l-.457 2.97A8.96 8.96 0 0 1 20 11a8.96 8.96 0 0 1 5.218 1.666l-.457-2.97A2 2 0 0 0 22.784 8h-5.568Z"/><path fill="#FBED1F" fill-rule="evenodd" d="M24.33 25.5A6.988 6.988 0 0 0 27 20a6.988 6.988 0 0 0-2.67-5.5A6.97 6.97 0 0 0 20 13a6.97 6.97 0 0 0-4.33 1.5A6.988 6.988 0 0 0 13 20a6.988 6.988 0 0 0 2.67 5.5A6.97 6.97 0 0 0 20 27a6.97 6.97 0 0 0 4.33-1.5Zm-4.83-4.634A1 1 0 0 1 19 20v-2a1 1 0 1 1 2 0v1.423l1.557.899a1 1 0 1 1-1 1.732L19.5 20.866Z" clip-rule="evenodd"/><path fill="#FBED1F" d="M14.782 27.334A8.96 8.96 0 0 0 20 29a8.96 8.96 0 0 0 5.218-1.666l-.457 2.97A2 2 0 0 1 22.784 32h-5.568a2 2 0 0 1-1.977-1.696l-.457-2.97Z"/></svg>