<!-- Generated by IcoMoon.io -->
<svg version="1.1" xmlns="http://www.w3.org/2000/svg" width="32" height="32" viewBox="0 0 32 32">
<title>youtube</title>
<path fill="#fff" d="M28.79 9.604c-0.317-1.148-1.201-2.035-2.325-2.348l-0.023-0.006c-2.088-0.574-10.442-0.584-10.442-0.584s-8.352-0.008-10.44 0.54c-1.146 0.333-2.030 1.221-2.35 2.346l-0.006 0.024c-0.55 2.088-0.556 6.42-0.556 6.42s-0.006 4.35 0.54 6.418c0.318 1.148 1.204 2.034 2.329 2.346l0.023 0.006c2.11 0.574 10.44 0.584 10.44 0.584s8.354 0.008 10.44-0.54c1.148-0.318 2.035-1.202 2.352-2.324l0.006-0.024c0.552-2.088 0.556-6.416 0.556-6.416s0.026-4.354-0.544-6.442zM13.328 20.006l0.006-8 6.944 4.008-6.95 3.992z"></path>
</svg>
